<?xml version="1.0" encoding="utf-8"?>
<!-- Generator: Adobe Illustrator 21.1.0, SVG Export Plug-In . SVG Version: 6.00 Build 0)  -->
<svg version="1.1" id="Isolation_Mode" xmlns="http://www.w3.org/2000/svg" xmlns:xlink="http://www.w3.org/1999/xlink" x="0px"
	 y="0px" viewBox="87.2 413.2 390.4 86.8" style="enable-background:new 87.2 413.2 390.4 86.8;" xml:space="preserve">
<style type="text/css">
	.st0{fill-rule:evenodd;clip-rule:evenodd;}
	.st1{fill-rule:evenodd;clip-rule:evenodd;fill:#FEF200;}
	.st2{fill-rule:evenodd;clip-rule:evenodd;fill:#EB3824;}
</style>
<g>
	<g>
		<path class="st0" d="M87.2,472.2c0.1-0.2,0.1-0.3,0.2-0.5c0.2-1.8,0.5-3.6,1.1-5.4c0.6-1.7,1.2-3.5,2-5.1c2-4.4,4.9-8.2,8.3-11.6
			c3-2.9,6.3-5.3,10.1-7.2c2-1,4-1.7,6.1-2.4c2.1-0.7,4.3-1.2,6.6-1.5c2.2-0.3,4.4-0.4,6.6-0.4c0.1,0,0.2,0.1,0.3,0.1
			c-0.1,0.1-0.1,0.2-0.2,0.3c-1.5,1.1-3.1,2.1-4.6,3.3c-1.9,1.5-3.5,3.1-5.1,4.9c-2.1,2.4-4.1,5-5.6,7.9c-0.9,1.6-1.7,3.3-2.4,5.1
			c-0.6,1.5-1.1,3-1.5,4.5c-0.9,3.6-1.3,7.2-0.9,10.9c0.4,3.8,1.6,7.3,3.7,10.5c1.7,2.6,3.9,4.8,6.3,6.6c2.5,1.9,5.3,3.5,8.2,4.6
			c1.1,0.4,2.2,0.8,3.3,1.2c0,0,0.1,0,0.2,0.1c-0.2,0.1-0.3,0.2-0.4,0.2c-2.1,0.5-4.3,1-6.5,1.3c-2.3,0.3-4.5,0.4-6.8,0.3
			c-2.4-0.1-4.7-0.4-7.1-1c-5.6-1.3-10.6-3.9-14.8-7.7c-2.7-2.5-4.7-5.5-5.9-8.9c-0.5-1.5-0.9-3-1-4.6c0-0.1-0.1-0.3-0.1-0.4
			C87.2,475.6,87.2,473.9,87.2,472.2z"/>
		<path class="st1" d="M133.5,413.2c0.1,0.1,0.2,0.2,0.4,0.2c0.8,0.1,1.6,0.1,2.4,0.2c0.3,0,0.6,0.2,1,0.3c0.7,0.2,1.4,0.4,2,0.6
			c0.1,0,0.1,0,0.2,0.1c0.5,0.2,1.1,0.3,1.6,0.5c0.4,0.2,0.7,0.4,1.1,0.6c0.3,0.1,0.5,0.3,0.8,0.4c0.5,0.3,1.1,0.5,1.6,0.9
			c0.6,0.4,1.2,0.9,1.8,1.4c0.4,0.3,0.7,0.6,1.1,0.9c0.5,0.4,1.1,0.9,1.5,1.4c0.6,0.6,1.2,1.2,1.7,1.8c0.4,0.5,0.9,1,1.3,1.5
			c0.6,0.7,1.1,1.5,1.6,2.2c0.5,0.7,0.9,1.5,1.4,2.3c0.3,0.5,0.6,1,0.9,1.6c0.4,0.7,0.7,1.4,1,2.1c0.4,0.8,0.7,1.7,1.1,2.5
			c0.1,0.3,0.2,0.6,0.3,0.9c0.2,0.7,0.4,1.4,0.6,2c0.2,0.7,0.4,1.4,0.6,2.1c0,0,0,0.1,0,0.1c0.2,1.2,0.4,2.5,0.6,3.7
			c0.6,3.2,0.4,6.5,0.2,9.7c-0.1,1-0.2,1.9-0.4,2.9c-0.2,1.1-0.5,2.1-0.7,3.2c-0.2,0.9-0.5,1.8-0.8,2.7c-0.4,1-0.8,2-1.2,3
			c-0.2,0.5-0.4,1-0.6,1.5c-0.1,0.3-0.3,0.6-0.4,0.8c-0.2,0.4-0.5,0.9-0.7,1.3c-0.3,0.4-0.5,0.9-0.8,1.3c-0.1,0.1-0.2,0.2-0.2,0.3
			c-0.1-0.1-0.2-0.2-0.2-0.4c-0.1-0.9-0.1-1.9-0.2-2.8c-0.1-1-0.2-2-0.4-3c-0.2-1.2-0.5-2.3-0.8-3.5c-0.2-0.9-0.5-1.8-0.8-2.7
			c-0.4-1.2-0.9-2.3-1.3-3.4c-0.3-0.7-0.6-1.4-0.9-2.1c-0.6-1.1-1.1-2.2-1.7-3.3c-0.4-0.8-0.9-1.6-1.4-2.4c-0.2-0.4-0.5-0.7-0.8-1.1
			c-0.4-0.6-0.8-1.2-1.3-1.7c-0.5-0.6-1-1.2-1.6-1.8c-0.4-0.4-0.7-0.8-1.1-1.2c-0.5-0.5-1-1-1.5-1.5c-0.6-0.6-1.3-1.1-1.9-1.7
			c-0.3-0.2-0.6-0.4-0.9-0.6c-0.3-0.2-0.6-0.4-0.9-0.6c-0.2-0.2-0.5-0.3-0.7-0.5c-0.3-0.2-0.6-0.3-0.9-0.5c-0.4-0.2-0.7-0.4-1-0.6
			c-0.4-0.2-0.8-0.3-1.2-0.5c-0.4-0.2-0.7-0.3-1-0.5c-0.1,0-0.2-0.1-0.2-0.2c-0.5-0.2-1.1-0.3-1.6-0.5c-0.6-0.2-1.1-0.4-1.7-0.6
			c-0.5-0.1-1-0.1-1.6-0.2c-0.8-0.1-1.5-0.3-2.3-0.3c-1.5,0-2.9,0-4.4,0.1c-0.7,0-1.4,0.2-2.1,0.4c-0.6,0.1-1.2,0.4-1.8,0.6
			c-0.1,0-0.3,0-0.4,0.1c-0.2,0.1-0.4,0.2-0.6,0.3c-0.1,0-0.2,0.1-0.3,0.1c-0.3,0.1-0.6,0.2-0.9,0.3c-0.4,0.2-0.8,0.3-1.2,0.5
			c-0.4,0.2-0.9,0.4-1.3,0.6c-0.1,0-0.1,0.1-0.2,0.1c-0.4,0.2-0.9,0.4-1.3,0.7c-0.3,0.2-0.6,0.3-0.9,0.5c-0.4,0.2-0.7,0.4-1.1,0.6
			c-0.5,0.3-1,0.6-1.5,1c-0.4,0.3-0.8,0.6-1.3,1c-0.4,0.3-0.8,0.6-1.2,0.9c-0.4,0.3-0.7,0.7-1.1,1c-0.2,0.2-0.5,0.4-0.9,0.2
			c0.1-0.4,0.2-0.9,0.3-1.3c0.2-0.5,0.3-1.1,0.5-1.6c0.2-0.6,0.4-1.1,0.7-1.7c0.2-0.5,0.3-1,0.5-1.4c0.4-0.9,0.9-1.8,1.3-2.7
			c0.3-0.6,0.6-1.2,0.9-1.8c0.3-0.5,0.5-1,0.9-1.5c0.8-1.1,1.5-2.3,2.4-3.4c0.7-0.9,1.5-1.6,2.3-2.5c0.4-0.5,0.9-0.9,1.4-1.4
			c0.5-0.5,1-0.9,1.5-1.3c0.5-0.4,1-0.9,1.6-1.3c0.4-0.3,0.9-0.6,1.3-0.9c0.2-0.1,0.5-0.3,0.7-0.4c0.5-0.3,1.1-0.7,1.6-1
			c0.4-0.2,0.8-0.3,1.1-0.5c0.3-0.2,0.7-0.3,1-0.5c0.2-0.1,0.3-0.2,0.5-0.2c0.4-0.2,0.9-0.4,1.3-0.6c0.1,0,0.2-0.1,0.3-0.1
			c0.3-0.1,0.6-0.2,0.9-0.3c0,0,0,0,0,0c0.4-0.1,0.8-0.3,1.3-0.4c0.4-0.1,0.9-0.1,1.3-0.2c0.8-0.1,1.7-0.3,2.5-0.4
			c0.1,0,0.2-0.1,0.2-0.2C131.3,413.2,132.4,413.2,133.5,413.2z"/>
		<path class="st2" d="M165.2,445.7c0.3,0.2,0.5,0.4,0.7,0.6c0.9,1,1.8,1.9,2.6,3c0.7,0.9,1.4,1.9,2.1,2.8c0.5,0.6,0.9,1.3,1.3,2
			c0.6,1.1,1.2,2.3,1.8,3.4c0.5,1,0.9,2,1.3,3c0.4,1,0.7,2.1,1,3.1c0.4,1.6,0.7,3.2,1,4.7c0.2,1.2,0.2,2.4,0.2,3.5
			c0,1.6,0,3.3-0.2,4.9c-0.1,1.2-0.4,2.4-0.7,3.6c-0.4,1.6-1,3.1-1.8,4.6c-0.3,0.5-0.6,1.1-0.9,1.6c-0.8,1.2-1.7,2.5-2.8,3.5
			c-0.6,0.6-1.2,1.2-1.9,1.7c-0.6,0.5-1.2,0.9-1.8,1.3c-0.6,0.4-1.1,0.7-1.7,1.1c-0.6,0.3-1.2,0.6-1.9,0.9c-0.5,0.2-0.9,0.4-1.4,0.6
			c-0.4,0.2-0.7,0.3-1.1,0.4c-0.6,0.2-1.2,0.3-1.8,0.5c-0.7,0.2-1.4,0.4-2.1,0.5c-0.4,0-0.8,0.2-1.2,0.3c-3.4,0.7-6.8,0.5-10.2,0.4
			c-0.6,0-1.2-0.1-1.9-0.1c-0.8-0.1-1.6-0.2-2.4-0.4c-0.6-0.1-1.1-0.2-1.7-0.4c-0.7-0.2-1.3-0.4-1.9-0.6c-0.6-0.2-1.2-0.3-1.8-0.5
			c-0.5-0.2-1.1-0.4-1.6-0.6c-0.5-0.2-1-0.4-1.5-0.6c-0.3-0.1-0.6-0.2-0.8-0.4c-0.7-0.4-1.4-0.7-2.1-1.1c-0.2-0.1-0.4-0.2-0.6-0.3
			c-0.6-0.3-1.1-0.6-1.7-0.9c-0.5-0.3-0.9-0.6-1.4-0.9c-0.4-0.3-0.8-0.6-1.2-0.9c-0.5-0.4-1-0.8-1.5-1.2c-0.7-0.6-1.4-1.2-2.1-1.8
			c-0.7-0.6-1.3-1.3-2-2c-0.4-0.4-0.8-0.8-1.1-1.2c-1-1.2-2-2.5-2.9-3.8c-0.6-0.9-1.1-1.8-1.7-2.7c-0.1-0.1-0.1-0.4-0.1-0.5
			c0.2,0,0.4,0,0.5,0c0.5,0.2,0.9,0.4,1.3,0.7c0.4,0.2,0.8,0.4,1.2,0.5c0.9,0.4,1.7,0.7,2.6,1.1c0.6,0.2,1.2,0.3,1.8,0.5
			c0.6,0.2,1.1,0.4,1.6,0.6c0.1,0,0.1,0,0.2,0c0.9,0.2,1.8,0.3,2.6,0.5c0.9,0.2,1.7,0.4,2.6,0.6c0,0,0.1,0,0.1,0
			c1.4,0.1,2.9,0.3,4.3,0.4c1.7,0.1,3.4,0,5.1,0c1.2-0.1,2.4-0.2,3.5-0.4c0.7-0.1,1.3-0.2,2-0.4c0.7-0.2,1.4-0.4,2.1-0.6
			c0.1,0,0.2,0,0.3,0c0.7-0.2,1.4-0.5,2.1-0.7c0.4-0.1,0.8-0.3,1.3-0.5c0.5-0.2,1.1-0.4,1.6-0.7c0.4-0.2,0.8-0.3,1.2-0.5
			c0.6-0.3,1.2-0.7,1.7-1c0.7-0.4,1.4-0.8,2.1-1.3c0.6-0.4,1.1-0.9,1.6-1.3c0.6-0.6,1.2-1.1,1.8-1.7c0.6-0.6,1.2-1.3,1.7-2
			c0.4-0.6,0.8-1.1,1.2-1.7c0.4-0.7,0.8-1.4,1.1-2c0.3-0.5,0.5-1,0.8-1.5c0.2-0.4,0.3-0.8,0.4-1.2c0.3-1.2,0.6-2.3,0.9-3.5
			c0.7-3.2,0.7-6.5,0.5-9.7c-0.1-1-0.2-2.1-0.4-3.1c-0.1-0.5-0.2-1-0.3-1.5c0-0.2,0-0.3,0-0.5C165.2,445.7,165.2,445.7,165.2,445.7z
			"/>
	</g>
	<g>
		<path class="st0" d="M471.8,460c-0.5-2.1,0.8-1.8,1.9-1.8c1,0,2,0,3,0c0.7,0,1,0.2,0.9,1c-1.2,9.2-0.4,18.4-0.6,27.7
			c-0.1,2.6-0.4,5.2-1.8,7.5c-1.8,3.2-4.7,4.9-8.2,5.4c-4.1,0.6-8.1,0.1-11.8-1.8c-0.5-0.2-0.8-0.9-1-1.4c-0.3-0.9-0.4-2-0.5-2.9
			c-0.1-0.4,0-0.7,0-1.1c0.2-0.1,0.4-0.2,0.5-0.4c0.1,0.3,0.2,0.6,0.3,0.9c2.8,4.4,8.9,5.9,13.6,3.9c1.7-0.7,2.9-2.1,3.2-3.9
			c0.4-2.4,0.6-4.8,0.7-7.2c0.1-1.2-0.6-0.9-1.3-0.6c-5.1,1.9-12.8,1.4-16.8-3.5c-1.4-1.7-2.4-3.7-2.8-5.9c-0.9-4.9-0.4-9.7,3-13.7
			c4.1-4.7,10.9-5.9,16.4-2.8C470.9,459.6,471.3,459.7,471.8,460z M472.2,473C472.1,473,472.1,473,472.2,473c-0.1-2.7,0-5.4-0.1-8.2
			c0-0.5-0.1-1.1-0.4-1.4c-2.1-2.7-5-3.9-8.3-3.4c-3.1,0.5-5.2,2.5-6.2,5.5c-1.4,4.4-1.1,8.8,0.7,13c2.2,5.3,8.2,7.2,13.1,4.4
			c0.9-0.5,1.3-1.1,1.2-2.1C472.1,478.2,472.2,475.6,472.2,473z"/>
		<path class="st0" d="M394.8,484.5c-4.1,2.1-8.5,2.3-13,0.9c-2.6-0.8-4.7-2.5-6.3-4.8c-3.4-5.1-3.1-13.1,0.8-17.8
			c2.4-2.8,5.4-4.4,9-4.9c3.6-0.6,7,0.2,10.2,2.3c0.1-0.4,0.2-0.7,0.1-1c-0.2-4.1-0.3-8.2-0.6-12.3c-0.1-0.9,0.1-1.3,1-1.3
			c1.3,0,2.6,0,4,0c0.6,0,1,0.2,1,1c-0.2,3-0.6,6-0.6,9.1c0,8.4,0.1,16.7,0.2,25.1c0,1.4,0.3,2.8,0.4,4.2c0,0.3-0.4,0.9-0.7,0.9
			c-1.4,0.1-2.9,0.1-4.3,0C395.7,485.7,395.3,485,394.8,484.5z M395.7,473C395.7,473,395.7,473,395.7,473c0.1-2,0-4,0.1-6
			c0.1-1.6-0.5-2.9-1.4-4.1c-1.9-2.6-4.6-3.3-7.7-2.9c-3.3,0.5-5.7,2.3-6.9,5.4c-1.8,4.7-1.3,9.4,0.9,13.8c2.5,5,8.3,6.4,13.1,3.4
			c1.3-0.8,2-1.8,2-3.4C395.6,477.2,395.7,475.1,395.7,473z"/>
		<path class="st0" d="M216.4,447.1c-0.4,1-0.6,2-1.1,2.9c-0.1,0.3-0.9,0.4-1.3,0.3c-3.6-0.8-7.3-0.7-11-0.5c-0.7,0-0.9,0.2-0.9,0.9
			c0,4.2,0,8.4,0,12.6c0,0.9,0.4,1,1.2,0.9c3-0.2,6.1-0.4,9.1-0.6c1.6-0.1,1.8,0,1.4,1.5c-0.7,2.8-0.2,2.4-3,2
			c-2.5-0.3-5.1-0.4-7.6-0.6c-0.8-0.1-1,0.3-1,1c0,4.9,0,9.8,0,14.6c0,0.7,0.3,1,1,0.9c4.1-0.5,8.2-0.9,12.2-1.4
			c1.2-0.2,1.4-0.1,1.2,1.1c-0.4,3.1-0.4,3.1-3.6,3c-5.1-0.1-10.2-0.1-15.2-0.1c-1.3,0-1.4-0.2-1.3-1.5c0.2-3,0.5-6,0.5-9
			c0.1-7.6,0-15.3,0-22.9c0-1.3-0.3-2.7-0.5-4c-0.1-0.8,0.1-1.2,1-1.2c6-0.1,12.1-0.2,18.1-0.3C215.7,447,216,447.1,216.4,447.1z"/>
		<path class="st0" d="M427.4,462.2c0.3-0.2,0.6-0.5,0.9-0.7c2.2-1.7,4.6-3,7.3-3.6c4.6-1.1,8.9,1.8,9.3,6.5
			c0.3,4.3,0.2,8.6,0.3,12.9c0.1,2.5,0.3,5,0.6,7.5c0.1,0.7-0.2,1-0.9,1c-1.4,0-2.9,0-4.3,0c-0.9,0-0.9-0.5-0.9-1.2
			c0.2-5.8,0.5-11.7,0.5-17.5c0-1.3-0.4-2.6-0.9-3.8c-1-2.1-3.4-3-5.6-2.2c-2.3,0.7-4.4,1.9-6.2,3.6c-0.4,0.4-0.8,1.2-0.8,1.7
			c0.1,5.8,0.2,11.6,0.3,17.4c0.1,2,0.1,2-1.9,2c-0.9,0-1.8,0-2.8,0c-0.9,0-1.3-0.3-1.1-1.3c0.9-7,0.7-14.1,0.4-21.2
			c0-1.3-0.2-2.6-0.4-3.9c-0.1-0.8,0.1-1.2,1-1.2c1.4,0,2.7,0,4.1,0c0.9,0,1.1,0.4,0.9,1.2c-0.2,0.8-0.2,1.7-0.2,2.6
			C427.1,462.1,427.2,462.1,427.4,462.2z"/>
		<path class="st0" d="M362.3,484c-1.3,0.6-2.6,1.3-3.9,1.7c-3.3,0.9-6.6,0.8-9.7-0.8c-2.2-1.1-3.3-3-3.7-5.4
			c-0.9-6.1,3.1-8.9,7.5-10.1c2.8-0.8,5.8-1,8.7-1.4c1.1-0.1,1.5-0.5,1.4-1.6c-0.2-3.7-1.9-6.1-4.8-6.5c-2.4-0.3-4.7,0.1-6.8,1.3
			c-0.9,0.6-1.9,1.1-2.8,1.7c-0.2-1.5,1.3-4,2.6-4.4c3.9-1.2,7.8-1.5,11.6,0c3.1,1.2,5.1,4,5.1,7.3c0,3.5-0.1,7,0,10.4
			c0.1,2.7,0.3,5.3,0.5,8c0.1,1.2-0.2,1.5-1.3,1.4c-0.8-0.1-1.6,0-2.4,0C362.5,485.8,362.5,485.8,362.3,484z M362.7,475.3
			C362.7,475.3,362.7,475.3,362.7,475.3c0-1.4,0-2.7,0-4.1c0-0.8-0.3-1.2-1.1-1.1c-1.5,0.2-3.1,0.2-4.6,0.5
			c-5.3,0.9-7.5,4.5-6.1,9.7c0.8,3,4.7,4.6,8,3.3c2.9-1.1,3.8-2.5,3.9-5.6C362.7,477.1,362.7,476.2,362.7,475.3z"/>
		<path class="st0" d="M255.8,477.4c0.4,0.7,0.7,1.1,0.8,1.5c1.3,3.6,4.9,5.7,8.4,5c2.9-0.6,4.6-2.7,4.5-5.7c-0.1-2.8-1.7-5-3.5-6.9
			c-2.4-2.4-4.9-4.7-7.2-7.2c-2.2-2.4-3.5-5.3-3.4-8.7c0.1-3.9,3-7.5,6.7-8.5c3.3-0.9,6.4-0.2,9.4,1.1c0.3,0.1,0.6,0.7,0.7,1.1
			c0.1,1,0,2-0.1,3c0,0.3-0.2,0.6-0.4,0.9c-0.3-0.2-0.7-0.3-0.9-0.6c-1.5-2.5-3.7-3.7-6.7-3.3c-3,0.4-4.8,2.8-4.4,5.9
			c0.2,2.1,1.3,3.7,2.6,5.1c2.5,2.6,5.1,5.1,7.6,7.7c1.7,1.8,3.3,3.7,4,6.2c1.7,6.3-2.2,11.9-8.7,12.5c-3.3,0.3-6.4-0.5-9.3-2.1
			c-0.9-0.5-1.2-1.1-1-2c0.2-1.3,0.3-2.6,0.5-3.9C255.4,478.3,255.6,478.1,255.8,477.4z"/>
		<path class="st0" d="M312.3,466.4c0.2,5.7,0.4,11.4,0.6,17.1c0.1,2.3,0.1,2.3-2.2,2.3c-1,0-2,0-3,0c-0.7,0-1-0.3-0.9-1
			c0.2-3.3,0.5-6.7,0.6-10c0.1-7.8,0-15.5,0-23.3c0-1.7,0-1.8-1.7-1.6c-3.7,0.4-7.4,0.9-11.1,1.4c-0.8,0.1-1,0-0.9-0.9
			c0.3-3.4,0.3-3.3,3.8-3.3c8.8,0,17.7,0,26.5-0.1c1.2,0,1.7,0.2,2,1.5c0.6,3,0.7,2.8-2.3,2.4c-3.3-0.5-6.6-0.8-9.9-1.2
			c-1.1-0.1-1.4,0.3-1.4,1.4c0,5.1,0,10.2,0,15.2C312.5,466.4,312.4,466.4,312.3,466.4z"/>
		<path class="st0" d="M238.3,466.1c0,3.8-0.1,7.7,0,11.5c0.1,2.3,0.3,4.6,0.6,6.9c0.1,0.9-0.1,1.4-1.1,1.3c-1.4-0.1-2.7,0-4.1,0
			c-0.9,0-1.1-0.4-1-1.2c0.2-3.5,0.5-6.9,0.6-10.4c0.1-7.5,0-15,0-22.6c0-1.9,0-2-1.8-1.8c-3.6,0.4-7.3,0.9-10.9,1.4
			c-0.9,0.1-1.2,0-1-0.9c0.1-0.4,0.2-0.8,0.3-1.2c0.3-2.1,0.3-2.1,2.4-2.1c9.3,0,18.6,0,27.9,0c1,0,1.6,0.2,1.6,1.4
			c0,0.7,0.3,1.4,0.4,2.1c0.1,0.7-0.2,0.9-0.9,0.8c-3.8-0.5-7.7-1-11.5-1.5c-1.1-0.2-1.4,0.3-1.4,1.4
			C238.3,456.2,238.3,461.1,238.3,466.1z"/>
		<path class="st0" d="M332.1,461.6c0.4-0.3,0.9-0.6,1.3-0.9c2.1-1.6,4.4-2.9,7.2-2.9c1,0,2.2,0.1,3,0.6c1.3,0.8-0.1,1.9-0.1,2.8
			c0,0.8-0.4,1.6-0.7,2.7c-0.4-0.4-0.7-0.6-0.9-0.9c-1-1.6-2.7-2.4-4.3-1.6c-1.9,0.9-3.7,2-5.5,3.1c-0.4,0.2-0.7,0.9-0.7,1.3
			c0.1,6.3,0.3,12.7,0.5,19c0,0.8-0.2,1.1-0.9,1.1c-1.4,0-2.8,0-4.2,0c-0.6,0-0.9-0.2-0.9-1c1-8.2,0.9-16.3,0.2-24.5
			c-0.2-2.1-0.2-2.1,1.9-2.1c1,0,2,0,3,0c0.7,0,1,0.2,0.9,1c-0.2,0.7-0.2,1.4-0.3,2.1C331.8,461.4,332,461.5,332.1,461.6z"/>
		<path class="st0" d="M411.2,485.8c-0.7,0-1.4,0-2,0c-0.9,0-1.2-0.3-1.1-1.2c0.2-2.4,0.5-4.8,0.6-7.1c0.1-5,0-10-0.1-15
			c0-1-0.3-2.1-0.4-3.1c-0.1-0.8,0.1-1.2,1-1.2c1.4,0,2.7,0,4.1,0c0.8,0,1,0.3,1,1.1c-0.2,3.4-0.5,6.8-0.6,10.2c-0.1,4,0,8,0.1,12
			c0,1.1,0.3,2.1,0.5,3.2c0.1,0.8,0,1.2-0.9,1.2C412.6,485.8,411.9,485.8,411.2,485.8z"/>
		<path class="st0" d="M411.2,453.2c-1.6,0-3-1.3-3-2.9c0-1.6,1.4-3,3-2.9c1.6,0,3,1.4,2.9,3C414.1,451.9,412.8,453.2,411.2,453.2z"
			/>
	</g>
</g>
</svg>
