<?xml version="1.0" standalone="no"?>
<!DOCTYPE svg PUBLIC "-//W3C//DTD SVG 20010904//EN"
 "http://www.w3.org/TR/2001/REC-SVG-20010904/DTD/svg10.dtd">
<svg version="1.0" xmlns="http://www.w3.org/2000/svg"
 width="16.000000pt" height="16.000000pt" viewBox="0 0 16.000000 16.000000"
 preserveAspectRatio="xMidYMid meet">
<metadata>
Created by potrace 1.11, written by Peter Selinger 2001-2013
</metadata>
<g transform="translate(0.000000,16.000000) scale(0.001389,-0.001389)"
fill="#000000" stroke="none">
<path d="M11485 8664 c-39 -32 -269 -185 -315 -210 -19 -10 -38 -23 -42 -29
-5 -7 -8 -7 -8 0 0 6 -4 5 -8 -1 -4 -7 -23 -20 -43 -30 -91 -47 -290 -144
-294 -144 -3 0 -27 -9 -53 -21 -99 -44 -113 -49 -125 -49 -7 0 -25 -7 -40 -15
-26 -13 -108 -39 -115 -36 -1 1 -16 -6 -32 -14 -16 -8 -32 -15 -35 -15 -3 0
-6 0 -7 -1 -2 0 -10 -2 -18 -4 -29 -8 -95 -26 -110 -30 -30 -9 -96 -24 -129
-30 -19 -3 -37 -7 -40 -9 -3 -2 -24 -7 -46 -10 -72 -12 -100 -17 -115 -21 -8
-2 -33 -6 -55 -9 -128 -16 -192 -24 -205 -24 -8 0 -44 -3 -80 -7 -36 -5 -171
-7 -300 -6 -129 1 -998 2 -1930 3 -1478 1 -1946 -3 -2090 -17 -19 -1 -68 -5
-107 -6 -40 -2 -73 -6 -73 -9 0 -3 -21 -5 -48 -6 -42 0 -79 -4 -207 -20 -49
-5 -113 -15 -140 -20 -11 -2 -40 -7 -64 -10 -39 -4 -71 -10 -168 -30 -13 -2
-35 -6 -50 -9 -16 -2 -47 -9 -71 -14 -23 -6 -59 -14 -80 -17 -20 -3 -45 -10
-54 -15 -10 -5 -18 -8 -18 -5 0 3 -20 -1 -45 -8 -25 -8 -45 -12 -45 -9 0 3 -7
0 -15 -7 -8 -7 -15 -10 -15 -7 0 5 -84 -16 -120 -30 -8 -3 -22 -7 -31 -9 -9
-2 -51 -14 -93 -28 -42 -13 -76 -21 -76 -17 0 3 -4 1 -8 -4 -4 -6 -27 -17 -52
-24 -44 -13 -292 -108 -360 -139 -197 -87 -581 -290 -610 -322 -3 -3 -21 -14
-40 -24 -19 -11 -37 -22 -40 -25 -3 -3 -39 -28 -80 -56 -41 -27 -79 -53 -85
-58 -5 -4 -46 -35 -90 -68 -87 -65 -89 -67 -185 -149 -116 -98 -153 -133 -305
-286 -141 -142 -213 -219 -266 -289 -13 -17 -26 -32 -30 -35 -4 -3 -44 -52
-88 -110 -45 -58 -87 -112 -94 -120 -43 -55 -67 -90 -67 -98 0 -6 -4 -12 -8
-14 -5 -1 -23 -25 -42 -53 -18 -27 -37 -52 -40 -55 -4 -3 -15 -21 -25 -40 -10
-19 -21 -37 -24 -40 -16 -12 -194 -308 -270 -450 -171 -316 -319 -635 -456
-980 -21 -52 -44 -110 -52 -128 -8 -18 -16 -42 -18 -53 -2 -12 -8 -26 -13 -33
-6 -6 -13 -27 -17 -46 -4 -19 -11 -40 -15 -45 -8 -10 -226 -653 -235 -691 -3
-16 -74 -254 -106 -359 -5 -16 -9 -31 -9 -33 0 -5 5675 5 5730 11 30 3 89 8
130 11 128 11 222 21 275 30 17 2 53 7 80 11 49 6 86 11 145 19 16 3 53 9 82
15 29 6 67 13 83 16 17 3 41 8 55 11 61 11 219 47 265 60 28 7 61 15 75 18 43
8 368 106 415 126 11 4 61 22 110 40 97 35 228 87 313 126 29 13 55 24 58 24
11 0 382 188 394 200 3 3 19 12 35 20 17 8 64 35 105 60 41 25 82 50 92 55 78
47 144 90 146 97 2 4 9 8 16 8 7 0 21 8 32 18 10 9 48 37 84 62 70 48 223 161
255 188 11 10 58 49 105 87 47 39 105 89 130 111 238 219 346 327 515 518 94
106 295 353 295 362 0 3 6 12 13 19 6 8 17 20 22 27 44 56 275 395 275 403 0
3 17 32 38 63 35 51 128 212 210 362 57 105 222 442 222 454 0 3 15 38 34 78
39 83 127 306 181 453 20 55 39 107 42 115 3 8 7 20 8 25 2 6 21 66 43 135 45
136 116 372 127 425 3 11 14 49 25 85 10 36 29 99 41 140 11 41 29 105 40 143
40 141 60 213 64 227 2 8 4 15 5 15 1 0 3 7 5 15 2 8 26 94 54 190 27 96 49
176 48 177 -1 0 -15 -10 -32 -23z"/>
</g>
</svg>
