<?xml version="1.0" standalone="no"?>
<!DOCTYPE svg PUBLIC "-//W3C//DTD SVG 1.1//EN" "http://www.w3.org/Graphics/SVG/1.1/DTD/svg11.dtd" >
<svg xmlns="http://www.w3.org/2000/svg">
<metadata>Generated by IcoMoon</metadata>
<defs>
<font id="icomoon" horiz-adv-x="1024">
<font-face units-per-em="1024" ascent="960" descent="-64" />
<missing-glyph horiz-adv-x="1024" />
<glyph unicode="&#x20;" horiz-adv-x="512" d="" />
<glyph unicode="&#xe600;" glyph-name="account" horiz-adv-x="1010" d="M727.327 730.318v90.916c0 76.561-100.486 138.766-224.897 138.766s-224.897-62.206-224.897-138.766v-90.916h-277.533v-421.084h33.495v-373.234h942.654v373.234h33.495v421.084h-282.318zM325.383 821.234c0 43.065 66.991 90.916 177.047 90.916s181.832-47.85 181.832-90.916v-90.916h-358.879v90.916zM81.346-16.15v325.383h282.318v-71.776h282.318v71.776h277.533v-325.383h-842.168zM411.514 285.308v90.916h186.617v-90.916h-186.617zM957.009 357.084h-311.028v66.991h-282.318v-66.991h-315.813v325.383h909.159v-325.383z" />
<glyph unicode="&#xe601;" glyph-name="analytics" horiz-adv-x="791" d="M687.838 960h-589.576c-51.717 0-98.263-46.545-98.263-98.263v-827.475c0-56.889 46.545-98.263 98.263-98.263h387.879c51.717 0 98.263 41.374 98.263 103.434v56.889c0 25.859 20.687 46.545 46.545 46.545h56.889c51.717 0 98.263 41.374 98.263 98.263v620.606c0 51.717-41.374 98.263-98.263 98.263zM734.384 235.96c0-25.859-20.687-46.545-46.545-46.545h-56.889c-51.717 0-98.263-41.374-98.263-98.263v-56.889c0-25.859-20.687-46.545-46.545-46.545h-387.879c-25.859 0-46.545 20.687-46.545 46.545v827.475c0 25.859 20.687 46.545 46.545 46.545v-5.172h589.576c25.859 0 46.545-20.687 46.545-46.545v-620.606zM196.525 520.404h51.717v-134.465h-51.717v134.465zM367.192 727.273h51.717v-341.333h-51.717v341.333zM543.030 675.556h51.717v-289.616h-51.717v289.616z" />
<glyph unicode="&#xe602;" glyph-name="calendar" horiz-adv-x="1014" d="M903.837 960h-799.347c-57.469 0-104.49-47.020-104.49-104.49v-815.020c0-57.469 47.020-104.49 104.49-104.49h799.347c57.469 0 109.714 47.020 104.49 109.714v809.796c0 57.469-47.020 104.49-104.49 104.49zM104.49 907.755h799.347c26.122 0 52.245-20.898 52.245-52.245v-135.837h-903.837v135.837c0 26.122 26.122 52.245 52.245 52.245zM903.837-6.531h-799.347c-26.122 0-52.245 20.898-52.245 52.245v621.714h903.837v-621.714c0-26.122-20.898-52.245-52.245-52.245zM355.265 547.265h88.816v-52.245h-88.816v52.245zM569.469 547.265h88.816v-52.245h-88.816v52.245zM783.673 547.265h88.816v-52.245h-88.816v52.245zM141.061 416.653h88.816v-52.245h-88.816v52.245zM355.265 416.653h88.816v-52.245h-88.816v52.245zM569.469 416.653h88.816v-52.245h-88.816v52.245zM783.673 416.653h88.816v-52.245h-88.816v52.245zM141.061 280.816h88.816v-52.245h-88.816v52.245zM355.265 280.816h88.816v-52.245h-88.816v52.245zM569.469 280.816h88.816v-52.245h-88.816v52.245zM783.673 280.816h88.816v-52.245h-88.816v52.245zM141.061 150.204h88.816v-52.245h-88.816v52.245zM355.265 150.204h88.816v-52.245h-88.816v52.245zM569.469 150.204h88.816v-52.245h-88.816v52.245z" />
<glyph unicode="&#xe603;" glyph-name="cards" horiz-adv-x="1333" d="M969.82 743.28h-823.534c-81.27 0-146.286-65.016-146.286-146.286v-514.709c0-81.27 65.016-146.286 146.286-146.286h823.534c81.27 0 146.286 70.434 146.286 151.704v509.291c0 81.27-65.016 146.286-146.286 146.286zM146.286 689.101h823.534c48.762 0 92.106-37.926 92.106-92.106v-97.524h-1007.746v97.524c0 48.762 43.344 92.106 92.106 92.106zM969.82-4.402h-823.534c-48.762 0-92.106 37.926-92.106 92.106v357.587h1007.746v-357.587c0-48.762-37.926-92.106-92.106-92.106zM151.704 152.72h200.466v-54.18h-200.466v54.18zM1219.048 960h-883.132c-65.016 0-119.196-54.18-119.196-119.196v-43.344h54.18v43.344c0 37.926 27.090 65.016 65.016 65.016h883.132c37.926 0 65.016-32.508 65.016-65.016v-124.614h-113.778v-54.18h113.778v-390.095c0-37.926-32.508-65.016-65.016-65.016h-48.762v-54.18h48.762c65.016 0 113.778 54.18 119.196 113.778v574.307c0 65.016-54.18 119.196-119.196 119.196z" />
<glyph unicode="&#xe604;" glyph-name="clients" horiz-adv-x="1153" d="M1148.272 179.573l-24.854 89.476c-19.883 89.476-99.417 169.010-193.864 208.777 44.738 49.709 74.563 119.301 74.563 188.893 0 164.039-129.243 293.282-293.282 293.282s-293.282-129.243-293.282-293.282c0-74.563 29.825-139.184 69.592-193.864-94.447-34.796-164.039-114.33-188.893-203.806l-24.854-84.505c-19.883-64.621-9.942-129.243 24.854-173.981 34.796-49.709 94.447-74.563 159.068-74.563h502.058c69.592 0 124.272 24.854 164.039 69.592 34.796 49.709 44.738 109.359 24.854 173.981zM710.835 910.291c134.214 0 238.602-109.359 243.573-243.573 0-134.214-109.359-243.573-243.573-243.573s-243.573 109.359-243.573 243.573 109.359 243.573 243.573 243.573zM1078.68 35.417c-24.854-34.796-69.592-54.68-119.301-54.68h-502.058c-49.709 0-94.447 19.883-119.301 54.68s-34.796 79.534-19.883 129.243l29.825 89.476c19.883 79.534 99.417 154.097 183.922 178.951 49.709-39.767 114.33-59.65 178.951-59.65s129.243 24.854 173.981 59.65c84.505-24.854 164.039-99.417 188.893-178.951l24.854-89.476c14.913-49.709 4.971-94.447-19.883-129.243zM69.592 100.039c-19.883 29.825-24.854 64.621-14.913 104.388l19.883 74.563c19.883 59.65 79.534 124.272 149.126 144.155 24.854-19.883 54.68-34.796 89.476-39.767l4.971 49.709c-89.476 19.883-149.126 99.417-149.126 188.893 0 109.359 89.476 198.835 198.835 198.835 14.913 0 24.854-4.971 34.796-4.971l9.942 49.709c-14.913 4.971-24.854 4.971-39.767 4.971-139.184 0-248.544-114.33-248.544-248.544 0-59.65 19.883-114.33 59.65-159.068-74.563-34.796-134.214-99.417-159.068-169.010l-19.883-74.563c-14.913-54.68-4.971-109.359 24.854-149.126s79.534-59.65 134.214-59.65h74.563v49.709h-74.563c-39.767 0-74.563 14.913-94.447 39.767z" />
<glyph unicode="&#xe605;" glyph-name="contract" horiz-adv-x="788" d="M704.777 960h-626.008c-41.457 0-78.769-37.312-78.769-78.769v-866.462c0-41.457 33.166-78.769 78.769-78.769h418.721c45.603 0 82.915 33.166 82.915 78.769v91.206c0 20.729 16.583 37.312 37.312 37.312h91.206c41.457 0 78.769 33.166 78.769 78.769v659.174c0 41.457-37.312 78.769-82.915 78.769zM742.089 222.057c0-20.729-16.583-37.312-37.312-37.312h-91.206c-41.457 0-78.769-33.166-78.769-78.769v-91.206c0-20.729-16.583-37.312-37.312-37.312h-418.721c-20.729 0-37.312 16.583-37.312 37.312v866.462c0 20.729 16.583 37.312 37.312 37.312h626.008c24.874 0 41.457-16.583 37.312-37.312v-659.174zM165.83 205.474h223.87v-41.457h-223.87v41.457zM165.83 466.656h451.887v-41.457h-451.887v41.457zM165.83 731.984h451.887v-41.457h-451.887v41.457z" />
<glyph unicode="&#xe606;" glyph-name="dailes" horiz-adv-x="791" d="M687.838 960h-589.576c-51.717 0-98.263-46.545-98.263-98.263v-827.475c0-56.889 46.545-98.263 98.263-98.263h387.879c51.717 0 98.263 41.374 98.263 103.434v56.889c0 25.859 20.687 46.545 46.545 46.545h56.889c51.717 0 98.263 41.374 98.263 98.263v620.606c0 51.717-41.374 98.263-98.263 98.263zM734.384 235.96c0-25.859-20.687-46.545-46.545-46.545h-56.889c-51.717 0-98.263-41.374-98.263-98.263v-56.889c0-25.859-20.687-46.545-46.545-46.545h-387.879c-25.859 0-46.545 20.687-46.545 46.545v827.475c0 25.859 20.687 46.545 46.545 46.545v-5.172h589.576c25.859 0 46.545-20.687 46.545-46.545v-620.606zM191.354 737.616h62.061v-51.717h-62.061v51.717zM362.020 737.616h62.061v-51.717h-62.061v51.717zM527.515 737.616h62.061v-51.717h-62.061v51.717zM191.354 582.465h62.061v-51.717h-62.061v51.717zM362.020 582.465h62.061v-51.717h-62.061v51.717zM527.515 582.465h62.061v-51.717h-62.061v51.717zM191.354 427.313h62.061v-51.717h-62.061v51.717zM362.020 427.313h62.061v-51.717h-62.061v51.717zM527.515 427.313h62.061v-51.717h-62.061v51.717z" />
<glyph unicode="&#xe607;" glyph-name="download" horiz-adv-x="1190" d="M1121.882 282.353v-195.765c0-45.176-22.588-75.294-52.706-75.294h-941.176c-30.118 0-52.706 37.647-52.706 75.294v195.765h-75.294v-195.765c0-82.824 60.235-150.588 128-150.588h933.647c67.765 0 128 67.765 135.529 150.588v195.765h-75.294zM911.059 553.412l-52.706 52.706-225.882-225.882v579.765h-75.294v-579.765l-225.882 218.353-52.706-52.706 316.235-316.235z" />
<glyph unicode="&#xe608;" glyph-name="exel1" horiz-adv-x="1083" d="M1024 862.476c-126.781 0-253.562 0-380.343 0-9.752 0-19.505 0-29.257 0 0 29.257 0 58.514 0 97.524-39.010-9.752-87.771-19.505-126.781-19.505-156.038-29.257-321.829-58.514-477.867-87.771h-9.752c0-273.067 0-536.381 0-809.448 39.010-9.752 78.019-9.752 117.029-19.505 156.038-29.257 321.829-58.514 477.867-87.771h19.505c0 39.010 0 68.267 0 107.276 9.752 0 19.505 0 29.257 0 126.781 0 253.562 0 380.343 0 48.762 0 58.514 9.752 58.514 48.762 0 234.057 0 477.867 0 711.924 0 48.762-19.505 58.514-58.514 58.514zM419.352 257.829c-29.257 9.752-48.762 9.752-78.019 19.505-19.505 39.010-39.010 87.771-58.514 126.781-9.752-48.762-29.257-87.771-48.762-126.781-29.257 0-48.762 0-78.019 0 29.257 58.514 58.514 117.029 87.771 165.79-29.257 58.514-48.762 117.029-78.019 175.543 29.257 0 48.762 0 78.019 0 9.752-39.010 29.257-78.019 48.762-117.029 19.505 39.010 29.257 87.771 48.762 117.029 29.257 9.752 48.762 9.752 78.019 9.752-29.257-58.514-58.514-117.029-87.771-175.543 29.257-68.267 58.514-126.781 87.771-195.048zM1043.505 72.533c-146.286 0-282.819 0-429.105 0 0 29.257 0 48.762 0 68.267 48.762 0 97.524 0 146.286 0 0 29.257 0 58.514 0 87.771-48.762 0-97.524 0-146.286 0 0 19.505 0 29.257 0 39.010 48.762 0 97.524 0 146.286 0 0 39.010 0 68.267 0 97.524-48.762 0-97.524 0-146.286 0 0 19.505 0 29.257 0 39.010 48.762 0 97.524 0 146.286 0 0 39.010 0 68.267 0 97.524-48.762 0-97.524 0-146.286 0 0 19.505 0 29.257 0 39.010 48.762 0 97.524 0 146.286 0 0 29.257 0 58.514 0 87.771-48.762 0-97.524 0-146.286 0 0 19.505 0 29.257 0 39.010 48.762 0 97.524 0 146.286 0 0 29.257 0 58.514 0 87.771-48.762 0-97.524 0-146.286 0 0 19.505 0 48.762 0 68.267 146.286 0 282.819 0 429.105 0 0-253.562 0-497.371 0-750.933zM975.238 745.448c-58.514 0-117.029 0-165.79 0 0-29.257 0-58.514 0-87.771 48.762 0 107.276 0 165.79 0 0 29.257 0 58.514 0 87.771zM965.486 618.667c-58.514 0-107.276 0-165.79 0 0-29.257 0-58.514 0-87.771 58.514 0 117.029 0 165.79 0 0 29.257 0 58.514 0 87.771zM965.486 491.886c-58.514 0-107.276 0-165.79 0 0-29.257 0-58.514 0-87.771 58.514 0 117.029 0 165.79 0 0 29.257 0 58.514 0 87.771zM975.238 365.105c-58.514 0-117.029 0-175.543 0 0-29.257 0-58.514 0-87.771 58.514 0 117.029 0 175.543 0 0 29.257 0 58.514 0 87.771zM965.486 238.324c-58.514 0-107.276 0-165.79 0 0-29.257 0-58.514 0-87.771 58.514 0 117.029 0 165.79 0 0 29.257 0 58.514 0 87.771z" />
<glyph unicode="&#xe609;" glyph-name="exel2" horiz-adv-x="1083" d="M1033.752 862.476c-136.533 0-263.314 0-390.095 0-9.752 0-19.505 0-29.257 0 0 39.010 0 68.267 0 97.524-39.010-9.752-87.771-19.505-126.781-19.505-156.038-29.257-321.829-58.514-477.867-87.771h-9.752c0-273.067 0-536.381 0-809.448 39.010-9.752 78.019-9.752 117.029-19.505 156.038-29.257 321.829-58.514 477.867-87.771h19.505c0 29.257 0 68.267 0 107.276 9.752 0 19.505 0 29.257 0 126.781 0 253.562 0 380.343 0 39.010 0 58.514 9.752 58.514 48.762 0 234.057 0 477.867 0 711.924 0 39.010-9.752 58.514-48.762 58.514zM419.352 257.829c-29.257 9.752-48.762 9.752-78.019 9.752-19.505 39.010-39.010 87.771-58.514 126.781-9.752-39.010-29.257-78.019-48.762-117.029-29.257 0-48.762 0-78.019 0 29.257 58.514 58.514 117.029 87.771 165.79-29.257 58.514-48.762 117.029-78.019 175.543 29.257 0 48.762 0 78.019 0 9.752-39.010 29.257-78.019 48.762-117.029 19.505 48.762 39.010 87.771 58.514 126.781 29.257 0 48.762 0 78.019 9.752-39.010-68.267-68.267-126.781-97.524-185.295 29.257-68.267 58.514-126.781 87.771-195.048zM1043.505 72.533c-146.286 0-282.819 0-429.105 0 0 9.752 0 19.505 0 29.257 0 19.505 0 29.257 0 48.762v624.152c0 19.505 0 29.257 0 48.762 146.286 0 282.819 0 429.105 0 0-253.562 0-497.371 0-750.933zM750.933 326.095c29.257 0 48.762 9.752 68.267 29.257v-19.505h68.267c0 9.752 0 39.010 0 58.514v68.267c0 58.514-19.505 97.524-97.524 97.524-48.762 9.752-78.019 0-97.524-9.752l9.752-48.762c19.505 9.752 39.010 19.505 68.267 19.505 39.010 0 39.010-19.505 39.010-29.257-78.019-9.752-136.533-39.010-136.533-97.524 0-39.010 29.257-68.267 78.019-68.267zM819.2 443.124v-39.010c-9.752-19.505-29.257-29.257-39.010-29.257-19.505 0-29.257 9.752-29.257 29.257 0 29.257 29.257 39.010 68.267 39.010zM1024 413.867h-78.019c-9.752-39.010-19.505-97.524-39.010-136.533h48.762c29.257 39.010 48.762 87.771 68.267 136.533z" />
<glyph unicode="&#xe60a;" glyph-name="news" horiz-adv-x="1030" d="M987.645 887.29c-12.118 36.355-36.355 66.651-72.71 78.769s-72.71 0-103.006-24.237l-230.249-212.071h-339.314c-133.302 0-242.367-109.065-242.367-242.367 0-127.243 96.947-224.189 218.13-242.367l42.414-212.071c12.118-54.533 60.592-96.947 115.124-96.947 36.355 0 66.651 18.178 90.888 48.473 24.237 24.237 30.296 60.592 24.237 96.947l-30.296 163.598h121.183l230.249-212.071c24.237-18.178 48.473-30.296 72.71-30.296 6.059 0 18.178 0 30.296 0 36.355 12.118 66.651 42.414 72.71 78.769 18.178 84.828 42.414 224.189 42.414 399.905s-24.237 309.018-42.414 405.964zM412.024 14.769c-6.059-12.118-24.237-18.178-42.414-18.178-24.237 0-48.473 24.237-54.533 48.473l-36.355 187.834h109.065l36.355-169.657c6.059-18.178 0-36.355-12.118-48.473zM927.053 93.538c-6.059-12.118-12.118-24.237-30.296-30.296-12.118 0-30.296 0-42.414 12.118l-248.426 218.13h-157.538v6.059h-242.367c-84.828 18.178-145.42 84.828-145.42 175.716 0 103.006 84.828 181.775 181.775 181.775h357.491l254.485 218.13c12.118 12.118 24.237 18.178 42.414 12.118 12.118 0 24.237-12.118 30.296-30.296 18.178-78.769 42.414-212.071 42.414-381.728 0-163.598-24.237-296.899-42.414-381.728zM187.834 578.272h60.592v-193.893h-60.592v193.893zM309.018 578.272h60.592v-193.893h-60.592v193.893zM430.201 578.272h60.592v-193.893h-60.592v193.893z" />
<glyph unicode="&#xe60b;" glyph-name="pdf" horiz-adv-x="881" d="M837.818 344.168c-7.161 0-14.322 0-21.483 0-28.643 7.161-64.448 7.161-93.091 0-14.322 0-21.483-7.161-35.804-7.161-21.483 21.483-42.965 42.965-57.287 71.608-50.126 85.93-100.252 171.86-143.217 257.79 0 0 0 0 0 7.161 7.161 35.804 14.322 78.769 21.483 114.573 0 35.804 0 64.448 0 100.252 0 14.322-7.161 28.643-7.161 42.965-7.161 14.322-14.322 21.483-28.643 28.643-14.322 0-21.483 0-28.643 0-21.483 0-42.965-14.322-50.126-35.804s-14.322-50.126-14.322-71.608c0-21.483 0-50.126 7.161-78.769s7.161-57.287 28.643-78.769c7.161-7.161 14.322-21.483 14.322-28.643s0-7.161 0-14.322c0-14.322-7.161-28.643-7.161-42.965-21.483-85.93-42.965-171.86-71.608-250.629-21.483-57.287-42.965-107.413-64.448-157.538 0-7.161-7.161-7.161-7.161-7.161-28.643-14.322-50.126-21.483-71.608-35.804-50.126-21.483-100.252-50.126-143.217-85.93-28.643-21.483-57.287-42.965-64.448-78.769 0 0 0-7.161 7.161-21.483 7.161-28.643 28.643-35.804 57.287-42.965h7.161c7.161 0 21.483 0 28.643 0 35.804 7.161 64.448 21.483 85.93 42.965 28.643 28.643 50.126 57.287 78.769 85.93 21.483 35.804 42.965 64.448 64.448 100.252 0 0 0 7.161 7.161 7.161 57.287 28.643 114.573 50.126 179.021 71.608 42.965 14.322 93.091 28.643 143.217 42.965l7.161-7.161c21.483-14.322 42.965-35.804 71.608-42.965 21.483-7.161 42.965-14.322 64.448-7.161 14.322 7.161 28.643 14.322 42.965 21.483 7.161 7.161 14.322 14.322 21.483 21.483 21.483 28.643 7.161 71.608-28.643 78.769zM221.986 86.378c-14.322-21.483-35.804-50.126-57.287-71.608-14.322-14.322-35.804-28.643-64.448-35.804-7.161 0-14.322 0-21.483 0-7.161 21.483 0 35.804 7.161 50.126 14.322 14.322 28.643 28.643 42.965 35.804 42.965 28.643 78.769 42.965 121.734 64.448-7.161-14.322-14.322-21.483-28.643-42.965zM429.65 881.231c0 7.161 0 7.161 0 14.322s7.161 7.161 14.322 7.161c7.161-7.161 7.161-14.322 7.161-21.483 0-14.322 0-28.643 0-42.965 0-7.161-7.161-21.483-7.161-28.643s0-7.161-7.161-14.322c-7.161 7.161-7.161 21.483-7.161 28.643 0 21.483 0 35.804 0 57.287zM365.203 236.755c42.965 100.252 71.608 207.664 100.252 315.077 42.965-85.93 85.93-157.538 150.378-229.147-85.93-21.483-164.699-50.126-250.629-85.93zM737.566 286.881c14.322 7.161 21.483 7.161 35.804-7.161 14.322 0 14.322-7.161 14.322-21.483-14.322 7.161-35.804 14.322-50.126 28.643z" />
<glyph unicode="&#xe60c;" glyph-name="question" d="M512 960c-280.253 0-512-231.747-512-512s231.747-512 512-512 512 231.747 512 512c0 280.253-231.747 512-512 512zM512-10.105c-253.305 0-458.105 204.8-458.105 458.105s204.8 458.105 458.105 458.105 458.105-204.8 458.105-458.105c0-253.305-204.8-458.105-458.105-458.105zM512 749.811c-102.4 0-183.242-80.842-183.242-183.242h53.895c0 70.063 59.284 129.347 129.347 134.737 70.063 0 129.347-59.284 129.347-129.347s-37.726-102.4-75.453-134.737c-37.726-32.337-80.842-70.063-80.842-140.126h53.895c0 43.116 26.947 64.674 64.674 91.621 37.726 37.726 91.621 86.232 91.621 177.853 0 102.4-86.232 183.242-183.242 183.242zM512 237.811c-32.337 0-59.284-26.947-59.284-59.284s26.947-59.284 59.284-59.284 59.284 26.947 59.284 59.284c0 32.337-26.947 59.284-59.284 59.284zM506.611 183.916c0 0 0 5.389 0 0 10.779 5.389 10.779 5.389 16.168 0 0-10.779-16.168-10.779-16.168 0z" />
<glyph unicode="&#xe60d;" glyph-name="reports" horiz-adv-x="824" d="M41.626 214.894v666.016c0 20.813 16.65 37.463 37.463 37.463h474.537c20.813 0 37.463-16.65 37.463-37.463v-58.276h41.626v58.276c0 45.789-33.301 79.089-79.089 79.089h-474.537c-41.626 0-79.089-37.463-79.089-79.089v-666.016c0-41.626 37.463-79.089 79.089-79.089h58.276v41.626h-58.276c-20.813 0-37.463 16.65-37.463 37.463zM745.106 760.195h-474.537c-41.626 0-79.089-33.301-79.089-79.089v-666.016c0-41.626 33.301-79.089 79.089-79.089h308.033c45.789 0 83.252 37.463 83.252 83.252v45.789c0 20.813 16.65 37.463 37.463 37.463h45.789c41.626 0 79.089 33.301 79.089 79.089v499.512c0 41.626-33.301 79.089-79.089 79.089zM782.569 177.431c0-20.813-16.65-37.463-37.463-37.463h-45.789c-41.626 0-79.089-33.301-79.089-79.089v-45.789c0-20.813-16.65-37.463-37.463-37.463h-312.195c-20.813 0-37.463 16.65-37.463 37.463v666.016c0 20.813 16.65 37.463 37.463 37.463v-4.163h474.537c20.813 0 37.463-16.65 37.463-37.463v-499.512zM466.211 323.122l-95.74 87.415-29.138-29.138 129.041-116.553 203.967 208.13-29.138 29.138z" />
<glyph unicode="&#xe60e;" glyph-name="summary" horiz-adv-x="791" d="M687.838 960h-589.576c-51.717 0-98.263-46.545-98.263-98.263v-827.475c0-56.889 46.545-98.263 98.263-98.263h387.879c51.717 0 98.263 41.374 98.263 103.434v56.889c0 25.859 20.687 46.545 46.545 46.545h56.889c51.717 0 98.263 41.374 98.263 98.263v620.606c0 51.717-41.374 98.263-98.263 98.263zM734.384 235.96c0-25.859-20.687-46.545-46.545-46.545h-56.889c-51.717 0-98.263-41.374-98.263-98.263v-56.889c0-25.859-20.687-46.545-46.545-46.545h-387.879c-25.859 0-46.545 20.687-46.545 46.545v827.475c0 25.859 20.687 46.545 46.545 46.545v-5.172h589.576c25.859 0 46.545-20.687 46.545-46.545v-620.606zM222.384 685.899h341.333v-51.717h-341.333v51.717zM222.384 479.030h341.333v-51.717h-341.333v51.717z" />
<glyph unicode="&#xe60f;" glyph-name="exit" d="M770.226 768.557c-26.713 17.809-57.878 13.357-80.139-13.357-17.809-26.713-13.357-57.878 13.357-75.687 89.043-66.783 142.47-169.183 142.47-280.487 0-191.443-155.826-347.27-347.27-347.27s-347.27 155.826-347.27 347.27c0 111.304 57.878 218.157 151.374 284.939 26.713 17.809 31.165 53.426 13.357 75.687-13.357 26.713-48.974 31.165-75.687 13.357-120.209-84.591-195.896-222.609-195.896-373.983 0-253.774 204.8-458.574 458.574-458.574s454.122 204.8 454.122 458.574c0 142.47-71.235 280.487-186.991 369.53zM503.096 541.496c31.165 0 53.426 26.713 53.426 53.426v311.652c0 31.165-26.713 53.426-53.426 53.426s-57.878-26.713-57.878-53.426v-307.2c0-35.617 26.713-57.878 57.878-57.878z" />
<glyph unicode="&#xe610;" glyph-name="find" horiz-adv-x="1033" d="M1032.866-19.671l-297.004 297.004c57.628 70.926 97.524 164.017 97.524 265.974 0 230.511-186.182 416.693-416.693 416.693s-416.693-186.182-416.693-416.693 186.182-416.693 416.693-416.693c106.39 0 199.481 39.896 274.84 101.957l297.004-297.004 44.329 48.762zM66.494 543.307c0 195.048 155.152 350.199 350.199 350.199s350.199-155.152 350.199-350.199-155.152-350.199-350.199-350.199-350.199 159.584-350.199 350.199z" />
<glyph unicode="&#xe611;" glyph-name="gear" d="M1024 357.647v185.008l-107.563 34.42-30.118 68.84 51.63 98.958-129.076 129.076-103.261-51.63-68.84 30.118-34.42 107.563h-185.008l-34.42-107.563-64.538-30.118-103.261 51.63-129.076-129.076 51.63-98.958-30.118-68.84-107.563-34.42v-185.008l107.563-34.42 30.118-68.84-51.63-98.958 129.076-129.076 103.261 51.63 68.84-30.118 34.42-107.563h180.706l34.42 107.563 68.84 30.118 103.261-51.63 129.076 129.076-51.63 98.958 30.118 68.84 107.563 34.42zM834.689 409.277l-68.84-159.193 38.723-77.445-17.21-17.21-77.445 38.723-159.193-68.84-25.815-81.748h-25.815l-25.815 81.748-159.193 68.84-77.445-38.723-21.513 17.21 38.723 77.445-68.84 159.193-81.748 25.815v25.815l86.050 25.815 68.84 159.193-43.025 77.445 21.513 21.513 77.445-38.723 159.193 64.538 25.815 81.748h25.815l25.815-81.748 159.193-68.84 77.445 43.025 17.21-17.21-38.723-77.445 68.84-159.193 81.748-25.815v-25.815l-81.748-30.118zM512 645.916c-107.563 0-193.613-86.050-193.613-193.613s86.050-193.613 193.613-193.613c107.563 0 193.613 86.050 193.613 193.613s-86.050 193.613-193.613 193.613zM512 361.95c-47.328 0-86.050 38.723-86.050 86.050s38.723 86.050 86.050 86.050 86.050-38.723 86.050-86.050-38.723-86.050-86.050-86.050z" />
<glyph unicode="&#xe612;" glyph-name="mail" d="M1019.548 813.078c-4.452 8.904-8.904 13.357-13.357 17.809 0 0 0 0 0 0s0 0 0 0c-4.452 4.452-8.904 8.904-17.809 8.904-4.452 8.904-13.357 8.904-17.809 8.904 0 0-4.452 0-4.452 0h-912.696c0 0-4.452 0-4.452 0-4.452 0-8.904 0-13.357-4.452-8.904-4.452-13.357-4.452-17.809-8.904 0 0 0 0 0 0s0 0 0 0c-4.452-8.904-8.904-13.357-13.357-22.261-4.452-4.452-4.452-13.357-4.452-17.809 0 0 0 0 0 0v-681.183c0-31.165 26.713-53.426 53.426-53.426h912.696c31.165 0 53.426 26.713 53.426 53.426v681.183c0 0 0 0 0 0 4.452 4.452 0 13.357 0 17.809zM832.557 737.391l-320.557-325.009-320.557 325.009h641.113zM111.304 167.513v489.739l360.626-365.078c8.904-8.904 26.713-17.809 40.070-17.809s31.165 4.452 40.070 17.809l360.626 365.078v-489.739h-801.391z" />
<glyph unicode="&#xe613;" glyph-name="menu" d="M65.164 704h902.982c37.236 0 65.164 27.927 65.164 65.164v9.309c0 37.236-27.927 65.164-65.164 65.164h-902.982c-37.236 0-65.164-27.927-65.164-65.164v-9.309c0-37.236 27.927-65.164 65.164-65.164zM972.8 517.818h-907.636c-37.236 0-65.164-27.927-65.164-65.164v-9.309c0-37.236 27.927-65.164 65.164-65.164h907.636c37.236 0 65.164 27.927 65.164 65.164v9.309c0 37.236-32.582 65.164-65.164 65.164zM972.8 192h-907.636c-37.236 0-65.164-27.927-65.164-65.164v-9.309c0-37.236 27.927-65.164 65.164-65.164h907.636c37.236 0 65.164 27.927 65.164 65.164v9.309c0 37.236-32.582 65.164-65.164 65.164z" />
<glyph unicode="&#xe614;" glyph-name="card" horiz-adv-x="1416" d="M1230.174 960h-1044.617c-103.087 0-185.557-82.47-185.557-185.557v-646.013c0-103.087 82.47-185.557 185.557-185.557h1044.617c103.087 0 185.557 82.47 185.557 185.557v646.013c0 103.087-82.47 185.557-185.557 185.557zM185.557 891.275h1044.617c68.725 0 116.832-54.98 116.832-116.832v-116.832h-1278.282v116.832c0 61.852 54.98 116.832 116.832 116.832zM1230.174 4.725h-1044.617c-68.725 0-116.832 54.98-116.832 116.832v460.456h1278.282v-460.456c0-61.852-48.107-116.832-116.832-116.832zM192.43 210.899h254.282v-68.725h-254.282v68.725z" />
<glyph unicode="&#xe615;" glyph-name="loader" d="M471.482 164.374h73.669v-228.374h-73.669v228.374zM471.482 960h73.669v-228.374h-73.669v228.374zM0 488.518h228.374v-73.669h-228.374v73.669zM795.626 488.518h228.374v-73.669h-228.374v73.669zM283.209 276.323l52.091-52.091-161.483-161.483-52.091 52.091 161.483 161.483zM842.587 837.46l52.091-52.091-161.483-161.483-52.091 52.091 161.483 161.483zM178.142 836.551l161.529-161.438-52.077-52.106-161.529 161.438 52.077 52.106zM739.276 277.225l161.483-161.483-52.091-52.091-161.483 161.483 52.091 52.091z" />
<glyph unicode="&#xe616;" glyph-name="pen" d="M77.283 328.855v0l-77.283-77.283v-315.572h315.572l624.704 624.704-315.572 315.572-547.421-547.421zM64.403 0.403v225.409l12.881 12.881 225.409-225.409-12.881-12.881h-225.409zM347.774 58.365l-218.969 225.409 495.899 495.899 225.409-225.409-502.34-495.899zM661.053 916.247l45.539 45.539 314.219-314.219-45.539-45.539-314.219 314.219zM349.151 237.429l-45.539 45.539 318.773 318.773 45.539-45.539-318.773-318.773z" />
<glyph unicode="&#xe900;" glyph-name="notifications" horiz-adv-x="1324" d="M1130.956 633.043c-15.638 0-26.062-10.424-26.062-26.062v-437.855c0-26.062-20.85-46.914-46.914-46.914h-787.096c-26.062 0-46.914 20.85-46.914 46.914v437.855c0 15.638-10.424 26.062-26.062 26.062-20.85 0-31.276-15.638-31.276-26.062v-437.855c0-57.338 46.914-99.038 99.038-99.038h787.096c57.338 0 99.038 46.914 99.038 99.038v437.855c5.213 10.424-10.424 26.062-20.85 26.062zM588.853 346.355c20.85-15.638 46.914-26.062 72.976-26.062s52.126 10.424 72.976 26.062l401.367 364.879c20.85 20.85 26.062 46.914 15.638 72.976-10.424 31.276-41.7 46.914-72.976 46.914h-839.223c-31.276 0-57.338-15.638-67.763-46.914-10.424-26.062-5.213-52.126 15.638-72.976l401.367-364.879zM218.76 768.572c5.213 5.213 10.424 10.424 20.85 10.424h839.223c10.424 0 20.85-5.213 20.85-10.424s0-10.424-5.213-15.638l-401.367-364.879c-20.85-20.85-52.126-20.85-72.976 0l-401.367 364.879c0 5.213 0 10.424 0 15.638z" />
<glyph unicode="&#xe901;" glyph-name="user" horiz-adv-x="890" d="M830.104 212.965l-21.762 78.346c-21.762 78.346-87.049 147.986-169.748 182.806 39.172 43.525 65.287 104.461 65.287 169.748-4.353 139.28-117.518 252.447-256.798 252.447-143.633 0-256.798-113.165-256.798-256.798 0-65.287 26.115-121.87 65.287-169.748-78.346-34.821-143.633-104.461-169.748-182.806l-21.762-78.346c-17.409-52.23-8.706-104.461 21.762-147.986 30.468-39.172 78.346-65.287 139.28-65.287h439.604c56.583 0 108.813 21.762 139.28 65.287s39.172 95.755 26.115 152.339zM447.083 852.783c117.518 0 213.273-95.755 213.273-213.273s-95.755-213.273-213.273-213.273c-117.518 0-213.273 95.755-213.273 213.273s95.755 213.273 213.273 213.273zM769.169 86.741c-21.762-30.468-60.935-47.878-104.461-47.878h-439.604c-43.525 0-82.699 17.409-104.461 47.878s-26.115 69.64-17.409 113.165l21.762 78.346c21.762 69.64 87.049 134.927 161.042 161.042 43.525-34.821 100.108-56.583 156.691-56.583 60.935 0 113.165 21.762 156.691 56.583 73.993-26.115 143.633-87.049 161.042-161.042l21.762-78.346c17.409-43.525 8.706-82.699-13.057-113.165z" />
<glyph unicode="&#xe902;" glyph-name="ok" horiz-adv-x="1175" d="M981.666 855.963l-491.411-676.852-305.974 305.974-64.904-64.904 380.15-380.15 556.315 760.298z" />
<glyph unicode="&#xe903;" glyph-name="cancel" d="M896 118.304l-325.816 325.816 325.816 333.576-54.304 54.304-325.816-333.576-333.576 333.576-54.304-62.059 333.576-325.816-333.576-325.816 62.059-54.304 325.816 325.816 325.816-325.816z" />
</font>
</defs>
</svg>
