<svg xmlns="http://www.w3.org/2000/svg" viewBox="0 0 46.79 35.79"><defs><style>.cls-1{fill:#0078b9;}.cls-2{fill:#ed1b34;}</style></defs><title>GloPro-short-logo-4</title><g id="Layer_2" data-name="Layer 2"><g id="Layer_1-2" data-name="Layer 1"><path class="cls-1" d="M21.85,18.42c-.56-.47-2.81-.58-3.9-.61a2.63,2.63,0,0,1-2.43,1.93h-7a2.43,2.43,0,0,1-1.91-1,3,3,0,0,1-.54-2.61l1.08-4.38a7.44,7.44,0,0,1,7.07-5.85h7.57a5.28,5.28,0,0,0,5.12-4L27.42,0H13A13.48,13.48,0,0,0,1.36,10.34L.27,14.72a9,9,0,0,0,1.64,7.75,8.4,8.4,0,0,0,6.64,3.27h7a8.48,8.48,0,0,0,6.63-3.25C23.32,20.77,22.87,19.27,21.85,18.42Z"/><path class="cls-2" d="M23,17.78a2.83,2.83,0,0,0-1.77-.56l-6,0c-2.85,0-4.54-2.3-3.78-5.18l.07-.41h3.38l4.2,0c3,0,4.86,2.47,4,5.55Z"/><path class="cls-1" d="M39.27,21.56l.07,0a17.4,17.4,0,0,0,3.19-.39c1.7-.54,3.44-1.31,4.24-5a5.09,5.09,0,0,0-1-3.72,4.9,4.9,0,0,0-3.89-1.92H26.3L19.89,35.79h6.19L31,16.58h9.57Z"/><path class="cls-2" d="M37.46,27.87c3.5,0,5.64-2.3,6.45-5.17l.35-1.22a4.07,4.07,0,0,1-2.72.81l-3.51,0c-4,0-5.47,2.52-6.34,5.59Z"/></g></g></svg>