<svg xmlns="http://www.w3.org/2000/svg" viewBox="0 0 123.57 39.09"><defs><style>.cls-1{fill:#0078b9;}.cls-2{fill:#ed1b34;}</style></defs><title>GloPro-short-logo-2</title><g id="Layer_2" data-name="Layer 2"><g id="Layer_1-2" data-name="Layer 1"><path class="cls-1" d="M33.17,28.44c-1.25-1.07-4-1.24-5.4-1.26l-.05.21a4.71,4.71,0,0,1-4.43,3.7H12.54a4.35,4.35,0,0,1-3.44-1.73,5.28,5.28,0,0,1-.94-4.56l2-7.37A12.08,12.08,0,0,1,21.67,8H33.34a7.5,7.5,0,0,0,7.28-5.69L41.19,0H20.6A20.1,20.1,0,0,0,2.4,15.51l-2,7.37A13.23,13.23,0,0,0,2.81,34.29a12.32,12.32,0,0,0,9.74,4.8H23.28a12.43,12.43,0,0,0,9.66-4.69C34.54,32,34.74,29.78,33.17,28.44Z"/><path class="cls-1" d="M67.49,16.32a14.74,14.74,0,0,0,4.9-.61,7.13,7.13,0,0,0,4.66-4.55l.52-2a7.25,7.25,0,0,0-1.3-6.28A6.93,6.93,0,0,0,70.78.14H47.33l-4,15.59,8.2.23,2-7.82h16Z"/><path class="cls-2" d="M64,26.15c5.38,0,8.69-3.54,9.94-8l.53-1.88a6.26,6.26,0,0,1-4.19,1.25l-46.23,0c-6.23,0-8.42,3.88-9.76,8.62Z"/><path class="cls-1" d="M45.68,39.08,47,34c.56-2.84.32-4.27-.78-5.47-1.25-1.37-4.73-1.34-5.76-1.3l-3,11.9Z"/><path class="cls-1" d="M112.08,39.09H109.2a9.54,9.54,0,0,1-7.52-3.66,9.9,9.9,0,0,1-1.82-8.69,12.29,12.29,0,0,1,11.82-9.31h2.22a9.54,9.54,0,0,1,7.52,3.67,9.9,9.9,0,0,1,1.82,8.69l-.17.65A11.43,11.43,0,0,1,112.08,39.09Zm-.39-15.76a6.31,6.31,0,0,0-6,4.86,4.11,4.11,0,0,0,.74,3.61,3.52,3.52,0,0,0,2.78,1.38h2.87A5.46,5.46,0,0,0,117.26,29l.17-.65a4.11,4.11,0,0,0-.74-3.61,3.52,3.52,0,0,0-2.78-1.39Z"/><path class="cls-1" d="M80.5,39.08l4-15.65h9c-.4,2-1.22,2.45-3.71,2.45h-1A3.15,3.15,0,0,0,86,30.57l4.76,8.51h6.88l-4.28-7.65c3.46-1,5.52-3.52,6.16-7.63a5.27,5.27,0,0,0-1-4.4,5.05,5.05,0,0,0-4-2H79.82L74.31,39.08Z"/></g></g></svg>