<svg xmlns="http://www.w3.org/2000/svg" viewBox="0 0 367.96 70.01"><defs><style>.cls-1{fill:none;stroke:#0078b9;stroke-miterlimit:10;stroke-width:6px;}.cls-2{fill:#0078b9;}.cls-3{fill:#ed1b34;}</style></defs><title>GloPro-main-logo</title><g id="Layer_2" data-name="Layer 2"><g id="Layer_1-2" data-name="Layer 1"><path class="cls-1" d="M62.8,35"/><path class="cls-2" d="M39,0C22.47,0,8,11.66,3.91,28.36L.71,41.29A23.46,23.46,0,0,0,5,61.52,21.71,21.71,0,0,0,22.13,70H42.71A22.06,22.06,0,0,0,61.41,59.35c1.8-3.3,2-5.69,0-7.87C60,50,55.57,49.69,53.14,49.65l-.08.31a10.94,10.94,0,0,1-10.35,8.53H22.13A10.15,10.15,0,0,1,14,54.43a12,12,0,0,1-2.16-10.38l3.2-12.93C17.94,19.57,27.77,11.5,39,11.5H61.35a12.46,12.46,0,0,0,12.1-9.45L74,0Z"/><path class="cls-3" d="M64.91,49.57a8.36,8.36,0,0,0-5.23-1.65L42,48c-8.41.05-13.41-6.8-11.17-15.31L31,31.49s6.54,0,10,0l12.4-.05c9-.06,14.36,7.28,12,16.4Z"/><path class="cls-2" d="M243.5,12l-4.43,17.41a20.36,20.36,0,0,0,6.42-1.22c5.44-2.38,6.75-4.22,9.27-13.94a12,12,0,0,0-2.26-9.81,11.37,11.37,0,0,0-9-4.45H200L182.21,70h11.87L209,11.5l34.41,0A.53.53,0,0,1,243.5,12Z"/><path class="cls-2" d="M341.45,70h-4.68a21.6,21.6,0,0,1-17.12-8.49,23.34,23.34,0,0,1-4.16-20.23c3.29-12.91,14.53-21.93,27.35-21.93h3.08A21.61,21.61,0,0,1,363,27.84a23.34,23.34,0,0,1,4.16,20.23l-.41,1.61C363.76,61.64,353.33,70,341.45,70Zm1.39-39.15c-7.56,0-14.22,5.45-16.21,13.26a11.92,11.92,0,0,0,2.09,10.33,10,10,0,0,0,8,4.05h4.68c6.62,0,12.46-4.79,14.21-11.65l.41-1.61A11.93,11.93,0,0,0,354,34.9a10.06,10.06,0,0,0-8-4.05Z"/><path class="cls-2" d="M149.76,70h-4.68A21.6,21.6,0,0,1,128,61.5a23.34,23.34,0,0,1-4.16-20.23c3.29-12.91,14.53-21.93,27.35-21.93h3.08a21.61,21.61,0,0,1,17.12,8.5,23.34,23.34,0,0,1,4.16,20.23l-.41,1.61C172.07,61.64,161.65,70,149.76,70Zm1.39-39.15c-7.56,0-14.22,5.45-16.21,13.26A11.92,11.92,0,0,0,137,54.44a10,10,0,0,0,8,4.05h4.68c6.62,0,12.46-4.79,14.21-11.65l.41-1.61a11.93,11.93,0,0,0-2.09-10.33,10.06,10.06,0,0,0-8-4.05Z"/><path class="cls-3" d="M230.56,48c10.32,0,16.65-6.78,19.05-15.26l1-3.61a12,12,0,0,1-8,2.41l-10.37-.05c-11.95,0-16.15,7.44-18.71,16.52Z"/><path class="cls-2" d="M263.61,70l10-39.17,23.85,0a.55.55,0,0,1,.13.56l-.12.58C296.26,40,293.25,42.5,284.55,42.5h-2.84a6.17,6.17,0,0,0-5.36,9.21L286.73,70H300l-9.35-16.48c10.45-1.7,16.42-8.18,18.17-19.65a12,12,0,0,0-2.23-10.08,11.39,11.39,0,0,0-9-4.46H264.64L251.74,70Z"/><path class="cls-2" d="M106,58.49H86.53l10-39.15H84.63L71.74,70h46.71A12.51,12.51,0,0,0,106,58.49Z"/></g></g></svg>