<svg xmlns="http://www.w3.org/2000/svg" viewBox="0 0 105.57 37.63"><defs><style>.cls-1{fill:none;stroke:#0078b9;stroke-miterlimit:10;stroke-width:6px;}.cls-2{fill:#0078b9;}.cls-3{fill:#ed1b34;}</style></defs><title>GloPro-short-logo-1</title><g id="Layer_2" data-name="Layer 2"><g id="Layer_1-2" data-name="Layer 1"><path class="cls-1" d="M33.26,18.87"/><path class="cls-2" d="M32.94,28c-.9-.85-3.72-1-5.38-1.06a5.15,5.15,0,0,1-4.79,3.69H12A4.84,4.84,0,0,1,8.21,28.7a5.78,5.78,0,0,1-1-5L8.85,17a12.58,12.58,0,0,1,12-9.86H32.5a7,7,0,0,0,6.8-5.31L39.75,0,20.84.11A19.56,19.56,0,0,0,2.06,15.29L.39,22A12.74,12.74,0,0,0,2.7,33,11.82,11.82,0,0,0,12,37.63H22.78a11.88,11.88,0,0,0,8.63-3.77C33.36,31.32,34.53,29.5,32.94,28Z"/><path class="cls-3" d="M34.36,26.48a4.36,4.36,0,0,0-2.73-.86l-9.23,0c-4.39,0-7-3.55-5.83-8l.11-.63s3.41,0,5.21,0l6.47,0c4.7,0,7.49,3.8,6.24,8.55Z"/><path class="cls-2" d="M94.58,37.63H91.71a9,9,0,0,1-7.12-3.46,9.37,9.37,0,0,1-1.73-8.24A11.78,11.78,0,0,1,94.19,17h2.22a9.05,9.05,0,0,1,7.12,3.46,9.37,9.37,0,0,1,1.73,8.24l-.17.65A10.93,10.93,0,0,1,94.58,37.63Zm-.39-15.71a6.81,6.81,0,0,0-6.49,5.21,4.57,4.57,0,0,0,.83,4,4,4,0,0,0,3.17,1.57h2.87a6,6,0,0,0,5.67-4.57l.17-.65a4.57,4.57,0,0,0-.83-4,4,4,0,0,0-3.18-1.57Z"/><path class="cls-2" d="M63,37.63,67,22h8c-.41,2.71-1.34,3.45-4.3,3.45h-1a2.65,2.65,0,0,0-2.31,3.95L72,37.63h5.73L73.5,30.15c3.67-.77,5.78-3.21,6.42-7.4a4.78,4.78,0,0,0-.89-4A4.56,4.56,0,0,0,75.41,17H63.1L57.84,37.63Z"/><path class="cls-2" d="M58.11,18.5a4,4,0,0,0-3.18-1.57H41.46l-5.27,20.7h5.16l4-15.7h8.4L52.3,27.44h-2a5.19,5.19,0,0,0-5,3.86l-.3,1.15h7.68A4.59,4.59,0,0,0,57.05,29l1.81-6.89A4.18,4.18,0,0,0,58.11,18.5Z"/></g></g></svg>