<svg xmlns="http://www.w3.org/2000/svg" viewBox="0 0 220.88 42.03"><defs><style>.cls-1{fill:#fff;}.cls-2{fill:#a7a9ac;}</style></defs><title>GloPro-main-logo-bw2</title><g id="Layer_2" data-name="Layer 2"><g id="Layer_1-2" data-name="Layer 1"><path class="cls-1" d="M37.7,21"/><path class="cls-1" d="M23.4,0A21.93,21.93,0,0,0,2.35,17L.43,24.79A14.08,14.08,0,0,0,3,36.93,13,13,0,0,0,13.28,42H25.64a13.24,13.24,0,0,0,11.23-6.39c1.08-2,1.2-3.41,0-4.73-.83-.91-3.5-1.08-5-1.1l0,.19a6.56,6.56,0,0,1-6.21,5.12H13.28a6.09,6.09,0,0,1-4.86-2.44,7.22,7.22,0,0,1-1.29-6.23l1.92-7.76A15,15,0,0,1,23.4,6.9H36.83a7.48,7.48,0,0,0,7.26-5.67L44.4,0Z"/><path class="cls-2" d="M39,29.76a5,5,0,0,0-3.14-1l-10.62.05c-5,0-8-4.08-6.7-9.19l.12-.73s3.92,0,6,0l7.44,0c5.41,0,8.62,4.37,7.18,9.84Z"/><path class="cls-1" d="M146.17,7.21l-2.66,10.45a12.22,12.22,0,0,0,3.86-.73c3.26-1.43,4.05-2.53,5.56-8.37a7.18,7.18,0,0,0-1.36-5.89A6.83,6.83,0,0,0,146.15,0H120.07l-10.7,42h7.12L125.44,6.9l20.66,0A.32.32,0,0,1,146.17,7.21Z"/><path class="cls-1" d="M205,42h-2.81a13,13,0,0,1-10.28-5.1,14,14,0,0,1-2.5-12.14A17.14,17.14,0,0,1,205.8,11.61h1.85a13,13,0,0,1,10.28,5.1,14,14,0,0,1,2.5,12.15l-.25,1A15.88,15.88,0,0,1,205,42Zm.84-23.5a10.24,10.24,0,0,0-9.73,8,7.15,7.15,0,0,0,1.26,6.2,6,6,0,0,0,4.83,2.43H205a9,9,0,0,0,8.53-7l.25-1a7.16,7.16,0,0,0-1.26-6.2,6,6,0,0,0-4.83-2.43Z"/><path class="cls-1" d="M89.9,42H87.09a13,13,0,0,1-10.28-5.1,14,14,0,0,1-2.5-12.14A17.14,17.14,0,0,1,90.74,11.61h1.85a13,13,0,0,1,10.28,5.1,14,14,0,0,1,2.5,12.15l-.25,1A15.88,15.88,0,0,1,89.9,42Zm.84-23.5a10.24,10.24,0,0,0-9.73,8,7.15,7.15,0,0,0,1.26,6.2,6,6,0,0,0,4.83,2.43H89.9a9,9,0,0,0,8.53-7l.25-1A7.16,7.16,0,0,0,97.42,21a6,6,0,0,0-4.83-2.43Z"/><path class="cls-2" d="M138.4,28.78c6.2,0,10-4.07,11.44-9.16l.61-2.17a7.21,7.21,0,0,1-4.82,1.44l-6.23,0c-7.17,0-9.69,4.47-11.23,9.92Z"/><path class="cls-1" d="M158.24,42l6-23.51h14.32a.33.33,0,0,1,.08.33l-.07.35c-.71,4.85-2.52,6.32-7.74,6.32h-1.7A3.7,3.7,0,0,0,165.89,31l6.23,11h7.94l-5.61-9.89c6.27-1,9.85-4.91,10.91-11.8A7.2,7.2,0,0,0,184,14.29a6.84,6.84,0,0,0-5.42-2.68H158.86L151.12,42Z"/><path class="cls-1" d="M63.63,35.11H51.94l6-23.5H50.8L43.06,42h28A7.51,7.51,0,0,0,63.63,35.11Z"/></g></g></svg>