<svg xmlns="http://www.w3.org/2000/svg" viewBox="0 0 77.81 38.95"><defs><style>.cls-1{fill:#0078b9;}.cls-2{fill:#ed1b34;}</style></defs><title>GloPro-short-logo-3</title><g id="Layer_2" data-name="Layer 2"><g id="Layer_1-2" data-name="Layer 1"><path class="cls-1" d="M33.17,28.3c-1.25-1.07-4-1.24-5.4-1.26l-.05.21A4.71,4.71,0,0,1,23.28,31H12.54a4.35,4.35,0,0,1-3.44-1.73,5.28,5.28,0,0,1-.94-4.56l1.72-7.2A12.08,12.08,0,0,1,21.39,8H33.06A7.5,7.5,0,0,0,40.34,2.3L40.92,0H21A20.07,20.07,0,0,0,2.12,15.54L.4,22.74A13.23,13.23,0,0,0,2.81,34.15,12.32,12.32,0,0,0,12.54,39H23.28a12.43,12.43,0,0,0,9.66-4.69C34.54,31.85,34.74,29.64,33.17,28.3Z"/><path class="cls-1" d="M46.21,28.35C45,27,41.48,27,40.45,27l-3,11.9h8.25L47,33.81C47.54,31,47.3,29.54,46.21,28.35Z"/><path class="cls-1" d="M67.49,16.18a14.74,14.74,0,0,0,4.9-.61A7.13,7.13,0,0,0,77.06,11l.52-2a7.25,7.25,0,0,0-1.3-6.28A6.93,6.93,0,0,0,70.78,0H47.33L43.22,16.17h8.25L53.55,8h16Z"/><path class="cls-2" d="M64,26c5.38,0,8.69-3.54,9.94-8l.53-1.88a6.26,6.26,0,0,1-4.19,1.25l-46.23,0c-6.23,0-8.42,3.88-9.76,8.62Z"/></g></g></svg>