<?xml version="1.0" encoding="utf-8"?>
<!-- Generator: Adobe Illustrator 19.1.0, SVG Export Plug-In . SVG Version: 6.00 Build 0)  -->
<svg version="1.1" id="Layer_1" xmlns="http://www.w3.org/2000/svg" xmlns:xlink="http://www.w3.org/1999/xlink" x="0px" y="0px"
	 viewBox="0 0 197 54.3" style="enable-background:new 0 0 197 54.3;" xml:space="preserve">
<style type="text/css">
	.st0{clip-path:url(#SVGID_2_);}
	.st1{fill:#36C4E5;}
	.st2{fill:#36C2E4;}
	.st3{fill:#36C1E3;}
	.st4{fill:#36C0E2;}
	.st5{fill:#36BFE1;}
	.st6{fill:#36BEE0;}
	.st7{fill:#36BDDF;}
	.st8{fill:#36BCDE;}
	.st9{fill:#35BBDE;}
	.st10{fill:#35BBDD;}
	.st11{fill:#35BADC;}
	.st12{fill:#34B9DC;}
	.st13{fill:#34B9DB;}
	.st14{fill:#34B8DA;}
	.st15{fill:#33B7DA;}
	.st16{fill:#33B7D9;}
	.st17{fill:#32B6D8;}
	.st18{fill:#32B5D8;}
	.st19{fill:#32B5D7;}
	.st20{fill:#31B4D6;}
	.st21{fill:#31B3D6;}
	.st22{fill:#31B3D5;}
	.st23{fill:#30B2D5;}
	.st24{fill:#30B1D4;}
	.st25{fill:#30B0D3;}
	.st26{fill:#2FB0D3;}
	.st27{fill:#2FAFD2;}
	.st28{fill:#2EAED1;}
	.st29{fill:#2EADD0;}
	.st30{fill:#2DACCF;}
	.st31{fill:#2DABCE;}
	.st32{fill:#2CAACE;}
	.st33{fill:#2CAACD;}
	.st34{fill:#2CA9CC;}
	.st35{fill:#2BA9CC;}
	.st36{fill:#2BA8CB;}
	.st37{fill:#2AA7CB;}
	.st38{fill:#2AA7CA;}
	.st39{fill:#2AA6CA;}
	.st40{fill:#29A5C9;}
	.st41{fill:#29A5C8;}
	.st42{fill:#28A4C8;}
	.st43{fill:#28A3C7;}
	.st44{fill:#27A2C6;}
	.st45{fill:#27A2C5;}
	.st46{fill:#26A1C5;}
	.st47{fill:#26A0C4;}
	.st48{fill:#259FC3;}
	.st49{fill:#259EC3;}
	.st50{fill:#249EC2;}
	.st51{fill:#249DC1;}
	.st52{fill:#239CC1;}
	.st53{fill:#239CC0;}
	.st54{fill:#239BC0;}
	.st55{fill:#229BBF;}
	.st56{fill:#229ABF;}
	.st57{fill:#2199BE;}
	.st58{fill:#2199BD;}
	.st59{fill:#2098BD;}
	.st60{fill:#2098BC;}
	.st61{fill:#2097BC;}
	.st62{fill:#1F96BB;}
	.st63{fill:#1F95BA;}
	.st64{fill:#1E94B9;}
	.st65{fill:#1D93B8;}
	.st66{fill:#1D92B7;}
	.st67{fill:#1C91B7;}
	.st68{fill:#1C91B6;}
	.st69{fill:#1B90B6;}
	.st70{fill:#1B90B5;}
	.st71{fill:#1B8FB4;}
	.st72{fill:#1A8EB4;}
	.st73{fill:#1A8EB3;}
	.st74{fill:#198DB3;}
	.st75{fill:#198DB2;}
	.st76{fill:#198CB2;}
	.st77{fill:#188BB1;}
	.st78{fill:#178AB0;}
	.st79{fill:#1689AF;}
	.st80{fill:#1688AF;}
	.st81{fill:#1588AE;}
	.st82{fill:#1587AD;}
	.st83{fill:#1487AD;}
	.st84{fill:#1486AC;}
	.st85{fill:#1485AC;}
	.st86{fill:#1484AB;}
	.st87{fill:#1484AA;}
	.st88{fill:#1483AA;}
	.st89{fill:#1482A9;}
	.st90{fill:#1381A8;}
	.st91{fill:#1380A7;}
	.st92{fill:#137FA6;}
	.st93{fill:#137EA5;}
	.st94{fill:#137DA5;}
	.st95{fill:#127DA4;}
	.st96{fill:#127CA3;}
	.st97{fill:#127BA3;}
	.st98{fill:#127BA2;}
	.st99{fill:#127AA2;}
	.st100{fill:#1179A1;}
	.st101{fill:#1178A0;}
	.st102{fill:#11779F;}
	.st103{fill:#11769E;}
	.st104{fill:#10769E;}
	.st105{fill:#10759D;}
	.st106{fill:#10749D;}
	.st107{fill:#10749C;}
	.st108{fill:#0F739C;}
	.st109{fill:#0F739B;}
	.st110{fill:#0F729B;}
	.st111{fill:#0F729A;}
	.st112{fill:#0E719A;}
	.st113{fill:#0E7099;}
	.st114{fill:#0E6F98;}
	.st115{fill:#0E6E97;}
	.st116{fill:#0D6D97;}
	.st117{fill:#0D6D96;}
	.st118{fill:#0D6C96;}
	.st119{fill:#0D6C95;}
	.st120{fill:#0D6B95;}
	.st121{fill:#0D6B94;}
	.st122{fill:#0C6A94;}
	.st123{fill:#0C6993;}
	.st124{fill:#0C6892;}
	.st125{fill:#0C6791;}
	.st126{fill:#0B6791;}
	.st127{fill:#0B6690;}
	.st128{fill:#0A658F;}
	.st129{fill:#0A648F;}
	.st130{fill:#09638E;}
	.st131{fill:#09628D;}
	.st132{fill:#08628D;}
	.st133{fill:#08618C;}
	.st134{fill:#08608B;}
	.st135{fill:#075F8B;}
	.st136{fill:#075F8A;}
	.st137{fill:#075E8A;}
	.st138{fill:#065E89;}
	.st139{fill:#065D89;}
	.st140{fill:#065C88;}
	.st141{fill:#055B87;}
	.st142{fill:#055A86;}
	.st143{fill:#055986;}
	.st144{fill:#055885;}
	.st145{fill:#045885;}
	.st146{fill:#045784;}
	.st147{fill:#045683;}
	.st148{fill:#045582;}
	.st149{fill:#045482;}
	.st150{fill:#045481;}
	.st151{fill:#045381;}
	.st152{fill:#045380;}
	.st153{fill:#045280;}
	.st154{fill:#04517F;}
	.st155{fill:#04507E;}
	.st156{fill:#05507E;}
	.st157{fill:#054F7E;}
	.st158{fill:#054F7D;}
	.st159{fill:#054E7D;}
	.st160{fill:#054E7C;}
	.st161{fill:url(#SVGID_3_);}
</style>
<g>
	<g>
		<path d="M74.2,47.3h17.6c0.4,0,0.7-0.3,0.7-0.7v-2c0-0.4-0.3-0.7-0.7-0.7h-17c-0.7,0-1.2-0.6-1.2-1.2V30.8c0-0.7,0.6-1.2,1.2-1.2
			h15.1c1.5,0,2.6-1.2,2.6-2.6v0c0-0.4-0.3-0.7-0.7-0.7H74.2c-2.2,0-4,1.8-4,4v13C70.2,45.5,71.9,47.3,74.2,47.3z"/>
		<path d="M121.7,47.3L121.7,47.3c1.4,0,2.7-1,3-2.5l1.1-5.8c0.1-0.3,0.3-0.6,0.7-0.6h13.4c0.4,0,0.7,0.3,0.7,0.7v7.5
			c0,0.4,0.3,0.7,0.7,0.7h2c0.4,0,0.7-0.3,0.7-0.7V26.9c0-0.4-0.3-0.7-0.7-0.7h-15.1c-1.9,0-3.5,1.4-3.9,3.2l-3.1,17
			C121,46.9,121.3,47.3,121.7,47.3z M140.5,30.2v4.2c0,0.4-0.3,0.7-0.7,0.7h-12.5c-0.4,0-0.7-0.4-0.7-0.8l0.6-3.5
			c0.1-0.7,0.8-1.3,1.5-1.3h11C140.2,29.6,140.5,29.9,140.5,30.2z"/>
		<path d="M114.9,26.5l-8.2,8.4c-0.1,0.1-0.3,0.2-0.5,0.2h-6c-0.4,0-0.7-0.3-0.7-0.7v-7.5c0-0.4-0.3-0.7-0.7-0.7h-2
			c-0.4,0-0.7,0.3-0.7,0.7v19.6c0,0.4,0.3,0.7,0.7,0.7h2c0.4,0,0.7-0.3,0.7-0.7v-7.5c0-0.4,0.3-0.7,0.7-0.7h6c0.2,0,0.4,0.1,0.5,0.2
			l8.2,8.4c0.1,0.1,0.3,0.2,0.5,0.2h2.4c0.6,0,0.9-0.7,0.5-1.1l-8.6-8.9c-0.3-0.3-0.3-0.7,0-0.9l8.6-8.9c0.4-0.4,0.1-1.1-0.5-1.1
			h-2.4C115.2,26.3,115,26.3,114.9,26.5z"/>
		<path d="M177.4,29.5l-3.1,17c-0.1,0.4,0.2,0.8,0.7,0.8l0,0c1.4,0,2.7-1,3-2.4l1.1-5.8c0.1-0.3,0.3-0.6,0.7-0.6H193
			c0.4,0,0.7,0.3,0.7,0.7v7.5c0,0.4,0.3,0.7,0.7,0.7h2c0.4,0,0.7-0.3,0.7-0.7V26.9c0-0.4-0.3-0.7-0.7-0.7h-15.1
			C179.3,26.3,177.7,27.6,177.4,29.5z M179.8,34.3l0.6-3.5c0.1-0.7,0.8-1.3,1.5-1.3h11c0.4,0,0.7,0.3,0.7,0.7v4.2
			c0,0.4-0.3,0.7-0.7,0.7h-12.5C180,35.1,179.7,34.7,179.8,34.3z"/>
		<path d="M148.3,47.3L148.3,47.3c1.4,0,2.7-1,3-2.5l2.6-14c0.1-0.7,0.8-1.3,1.5-1.3h11c0.4,0,0.7,0.3,0.7,0.7v16.3
			c0,0.4,0.3,0.7,0.7,0.7h2c0.4,0,0.7-0.3,0.7-0.7V26.9c0-0.4-0.3-0.7-0.7-0.7h-15.1c-1.9,0-3.5,1.4-3.9,3.2l-3.1,17
			C147.5,46.9,147.9,47.3,148.3,47.3z"/>
	</g>
	<g>
		<g>
			<defs>
				<path id="SVGID_1_" d="M3.2,54.3c2.6-1.8,4.9-4.8,7.2-7c0.2-0.2,0.5-0.2,0.6,0l3.6,4.1c0.2,0.2,0.5,0.2,0.6,0l19.3-20.7
					c0.2-0.2,0.5-0.2,0.7,0.1l9.2,14.6c0.1,0.2,0.5,0.3,0.7,0.1l3.1-3.1c0.2-0.2,0.5-0.2,0.6,0c0.8,0.9,1.5,1.9,2.3,2.9
					c0.5,0.7,1.6,2.1,1.6,2.1s4-4.9,3-15.6C54.5,20.6,45.8,5.6,39.1,0c-1.6,6.3-4.7,10.9-10.7,14c-5,2.6-15,6.2-21.3,12.8
					C-2.3,36.7-1,49.9,3.2,54.3z"/>
			</defs>
			<clipPath id="SVGID_2_">
				<use xlink:href="#SVGID_1_"  style="overflow:visible;"/>
			</clipPath>
			<g class="st0">
				<path class="st1" d="M40.7,2.1c-2.8-3.2-0.2-1.5-3.6,4.6C31,17.2,16.5,16.6,6.7,28c-5.9,6.9-9.4,19.5-0.9,29.1
					c9.6,10.8,25.9,10,35.8,3.1c9.7-6.7,15.6-17.5,12.8-31.3C52.5,19.8,48.9,11.6,40.7,2.1z"/>
				<path class="st2" d="M37,6.9c3.5-6.1,0.9-7.9,3.7-4.7c4.1,4.8,7.1,9.2,9.2,13.6c2.1,4.4,3.5,8.7,4.4,13.2
					c2.8,13.8-3.1,24.5-12.8,31.2c-0.4,0.3-0.8,0.5-1.2,0.8c-5.1,3.1-11.5,4.7-17.8,4.2c-6.2-0.5-12.2-3-16.8-8.1
					c-8.4-9.5-5-22.1,0.9-29C16.6,16.7,31,17.4,37,6.9z"/>
				<path class="st3" d="M37,7.1c3.5-6.1,1-8,3.8-4.8c4.1,4.8,7,9.2,9.2,13.6c2.1,4.4,3.5,8.7,4.4,13.2c2.8,13.8-3.2,24.5-12.8,31.1
					c-0.4,0.3-0.8,0.5-1.2,0.8c-5.1,3.1-11.5,4.7-17.8,4.2c-6.2-0.5-12.2-3-16.7-8.1c-8.4-9.5-5-22.1,1-29C16.6,16.8,31,17.5,37,7.1
					z"/>
				<path class="st4" d="M37,7.3c3.5-6,1.1-8.1,3.8-4.9c4.1,4.7,7,9.2,9.2,13.6c2.1,4.4,3.5,8.7,4.4,13.2c2.7,13.7-3.2,24.4-12.8,31
					c-0.4,0.3-0.8,0.5-1.2,0.8c-5.1,3.1-11.4,4.6-17.7,4.1c-6.1-0.5-12.1-3-16.6-8.1c-8.4-9.4-5-22,1-28.9C16.7,16.9,31,17.7,37,7.3
					z"/>
				<path class="st5" d="M36.9,7.5c3.5-6,1.1-8.1,3.9-5c4.1,4.7,7,9.2,9.1,13.6c2.1,4.4,3.5,8.7,4.3,13.2C57,43.1,51,53.7,41.4,60.2
					c-0.4,0.3-0.8,0.5-1.2,0.8c-5,3.1-11.4,4.6-17.7,4.1c-6.1-0.5-12.1-3-16.6-8c-8.3-9.4-5-22,1-28.9C16.8,17.1,30.9,17.8,36.9,7.5
					z"/>
				<path class="st6" d="M36.9,7.6c3.5-6,1.2-8.2,3.9-5.1c4.1,4.7,7,9.2,9.1,13.6c2.1,4.4,3.4,8.8,4.3,13.3
					c2.7,13.7-3.4,24.3-12.9,30.8c-0.4,0.3-0.8,0.5-1.2,0.8c-5,3-11.4,4.6-17.6,4.1c-6.1-0.5-12.1-3-16.5-8
					c-8.3-9.3-5-21.9,1.1-28.8C16.9,17.2,30.9,18,36.9,7.6z"/>
				<path class="st6" d="M36.9,7.8c3.5-6,1.3-8.3,4-5.1c4.1,4.7,7,9.2,9.1,13.6c2.1,4.4,3.4,8.8,4.3,13.3
					c2.6,13.7-3.5,24.2-12.9,30.7c-0.4,0.3-0.8,0.5-1.2,0.7c-5,3-11.4,4.6-17.6,4c-6.1-0.5-12-3-16.5-8c-8.3-9.3-5-21.9,1.1-28.8
					C16.9,17.3,30.9,18.1,36.9,7.8z"/>
				<path class="st7" d="M36.9,8c3.5-5.9,1.3-8.3,4-5.2c4,4.7,7,9.2,9.1,13.7c2.1,4.4,3.4,8.8,4.3,13.3c2.6,13.6-3.5,24.2-12.9,30.6
					c-0.4,0.3-0.8,0.5-1.2,0.7c-5,3-11.3,4.5-17.5,4c-6.1-0.5-12-3-16.4-8c-8.2-9.2-5-21.8,1.1-28.7C17,17.4,30.8,18.3,36.9,8z"/>
				<path class="st8" d="M36.9,8.2c3.5-5.9,1.4-8.4,4.1-5.3c4,4.7,6.9,9.2,9,13.7c2.1,4.4,3.4,8.8,4.2,13.3
					c2.6,13.6-3.6,24.1-12.9,30.5c-0.4,0.3-0.8,0.5-1.2,0.7c-5,3-11.3,4.5-17.5,4c-6-0.5-11.9-3-16.4-7.9c-8.2-9.2-5-21.8,1.2-28.7
					C17.1,17.6,30.8,18.4,36.9,8.2z"/>
				<path class="st9" d="M36.9,8.4C40.3,2.5,38.3-0.1,41,3c4,4.7,6.9,9.2,9,13.7c2.1,4.4,3.4,8.8,4.2,13.3
					c2.5,13.6-3.6,24.1-12.9,30.3c-0.4,0.3-0.8,0.5-1.2,0.7c-5,3-11.3,4.5-17.4,3.9c-6-0.5-11.9-3-16.3-7.9
					c-8.2-9.1-5-21.7,1.2-28.6C17.1,17.7,30.8,18.6,36.9,8.4z"/>
				<path class="st10" d="M36.8,8.6C40.3,2.7,38.4,0,41,3.1c4,4.6,6.9,9.2,9,13.7c2.1,4.5,3.4,8.9,4.2,13.3c2.5,13.6-3.7,24-13,30.2
					c-0.4,0.3-0.8,0.5-1.2,0.7c-5,3-11.3,4.4-17.4,3.9c-6-0.5-11.9-3-16.3-7.9c-8.1-9.1-5-21.7,1.2-28.5
					C17.2,17.8,30.7,18.7,36.8,8.6z"/>
				<path class="st11" d="M36.8,8.7c3.5-5.8,1.6-8.6,4.2-5.5c4,4.6,6.9,9.2,9,13.7c2.1,4.5,3.3,8.9,4.2,13.3
					c2.5,13.5-3.8,24-13,30.1c-0.4,0.3-0.8,0.5-1.2,0.7c-5,2.9-11.2,4.4-17.3,3.9c-6-0.5-11.8-3-16.2-7.9c-8.1-9-5-21.6,1.3-28.5
					C17.3,17.9,30.7,18.9,36.8,8.7z"/>
				<path class="st12" d="M36.8,8.9c3.5-5.8,1.6-8.7,4.3-5.6c4,4.6,6.9,9.2,8.9,13.7c2.1,4.5,3.3,8.9,4.1,13.3
					c2.5,13.5-3.8,23.9-13,30c-0.4,0.3-0.8,0.5-1.2,0.7c-5,2.9-11.2,4.4-17.3,3.8c-6-0.5-11.8-3-16.2-7.8c-8.1-8.9-5-21.6,1.3-28.4
					C17.4,18.1,30.7,19,36.8,8.9z"/>
				<path class="st13" d="M36.8,9.1c3.5-5.8,1.7-8.7,4.3-5.7c4,4.6,6.8,9.2,8.9,13.7c2,4.5,3.3,8.9,4.1,13.3
					c2.4,13.5-3.9,23.9-13,29.9c-0.4,0.3-0.8,0.5-1.2,0.7c-5,2.9-11.2,4.4-17.3,3.8c-5.9-0.5-11.8-3-16.1-7.8
					c-8-8.9-4.9-21.5,1.3-28.4C17.4,18.2,30.7,19.2,36.8,9.1z"/>
				<path class="st14" d="M36.8,9.3c3.5-5.7,1.8-8.8,4.4-5.8c4,4.6,6.8,9.2,8.9,13.7c2,4.5,3.3,8.9,4.1,13.3
					c2.4,13.4-4,23.8-13.1,29.8c-0.4,0.3-0.8,0.5-1.2,0.7c-5,2.9-11.2,4.3-17.2,3.8c-5.9-0.5-11.7-3-16.1-7.8
					c-8-8.8-4.9-21.5,1.4-28.3C17.5,18.3,30.6,19.4,36.8,9.3z"/>
				<path class="st15" d="M36.8,9.5c3.5-5.7,1.8-8.9,4.4-5.9c4,4.6,6.8,9.2,8.8,13.7c2,4.5,3.3,8.9,4,13.3C56.4,44,50,54.3,41,60.3
					c-0.4,0.3-0.8,0.5-1.2,0.7c-5,2.9-11.1,4.3-17.2,3.7c-5.9-0.5-11.7-3-16-7.8c-8-8.8-4.9-21.4,1.4-28.3
					C17.6,18.4,30.6,19.5,36.8,9.5z"/>
				<path class="st16" d="M36.7,9.6c3.5-5.7,1.9-8.9,4.5-6c3.9,4.6,6.8,9.2,8.8,13.7c2,4.5,3.3,9,4,13.3C56.4,44,49.9,54.3,41,60.3
					c-0.4,0.3-0.8,0.5-1.2,0.7c-5,2.9-11.1,4.3-17.1,3.7c-5.9-0.5-11.6-3-16-7.7c-7.9-8.7-4.9-21.4,1.4-28.2
					C17.6,18.5,30.6,19.7,36.7,9.6z"/>
				<path class="st17" d="M36.7,9.8c3.5-5.7,2-9,4.5-6c3.9,4.5,6.8,9.2,8.8,13.7c2,4.5,3.3,9,4,13.3c2.3,13.4-4.2,23.6-13.1,29.5
					c-0.4,0.2-0.8,0.5-1.1,0.7c-5,2.8-11.1,4.2-17.1,3.7c-5.9-0.5-11.6-3-15.9-7.7c-7.9-8.7-4.9-21.3,1.5-28.2
					C17.7,18.7,30.6,19.8,36.7,9.8z"/>
				<path class="st18" d="M36.7,10c3.5-5.6,2-9.1,4.6-6.1c3.9,4.5,6.7,9.2,8.8,13.7c2,4.5,3.2,9,4,13.3c2.3,13.3-4.3,23.6-13.1,29.4
					c-0.4,0.2-0.8,0.5-1.1,0.7c-4.9,2.8-11.1,4.2-17,3.6c-5.9-0.6-11.6-3-15.9-7.7C-1,48.3,1.9,35.7,8.3,28.9
					C17.8,18.8,30.5,20,36.7,10z"/>
				<path class="st19" d="M36.7,10.2C40.2,4.6,38.8,1,41.3,4c3.9,4.5,6.7,9.2,8.7,13.7c2,4.5,3.2,9,3.9,13.3
					c2.2,13.3-4.3,23.5-13.2,29.3c-0.4,0.2-0.8,0.5-1.1,0.7c-4.9,2.8-11,4.2-17,3.6c-5.8-0.6-11.5-3-15.8-7.7
					c-7.8-8.6-4.9-21.2,1.5-28C17.9,18.9,30.5,20.1,36.7,10.2z"/>
				<path class="st20" d="M36.7,10.4c3.5-5.6,2.2-9.2,4.7-6.3c3.9,4.5,6.7,9.1,8.7,13.7c2,4.6,3.2,9,3.9,13.3
					c2.2,13.3-4.4,23.5-13.2,29.2c-0.4,0.2-0.8,0.5-1.1,0.7c-4.9,2.8-11,4.1-16.9,3.6c-5.8-0.6-11.5-3-15.8-7.6
					C-0.8,48.4,2,35.7,8.5,29C17.9,19,30.5,20.3,36.7,10.4z"/>
				<path class="st21" d="M36.7,10.6c3.5-5.6,2.2-9.3,4.7-6.4c3.9,4.5,6.7,9.1,8.7,13.7c2,4.6,3.2,9.1,3.9,13.3
					c2.2,13.2-4.5,23.4-13.2,29.1c-0.4,0.2-0.8,0.5-1.1,0.7c-4.9,2.8-11,4.1-16.9,3.5c-5.8-0.6-11.4-3-15.7-7.6
					C-0.7,48.5,2.1,35.8,8.6,29C18,19.2,30.4,20.4,36.7,10.6z"/>
				<path class="st22" d="M36.6,10.7c3.5-5.5,2.3-9.4,4.8-6.5c3.9,4.5,6.7,9.1,8.6,13.7c2,4.6,3.2,9.1,3.9,13.3
					c2.1,13.2-4.5,23.3-13.2,29c-0.4,0.2-0.8,0.5-1.1,0.7c-4.9,2.8-11,4.1-16.8,3.5c-5.8-0.6-11.4-3-15.7-7.6
					C-0.6,48.5,2.2,35.8,8.7,29C18.1,19.3,30.4,20.6,36.6,10.7z"/>
				<path class="st23" d="M36.6,10.9c3.5-5.5,2.4-9.4,4.8-6.5c3.9,4.5,6.6,9.1,8.6,13.7c2,4.6,3.2,9.1,3.8,13.3
					c2.1,13.2-4.6,23.3-13.2,28.9c-0.4,0.2-0.8,0.5-1.1,0.7c-4.9,2.8-10.9,4.1-16.8,3.5c-5.8-0.6-11.4-3-15.6-7.6
					c-7.7-8.4-4.9-21.1,1.7-27.8C18.1,19.4,30.4,20.7,36.6,10.9z"/>
				<path class="st24" d="M36.6,11.1c3.5-5.5,2.4-9.5,4.9-6.6c3.9,4.5,6.6,9.1,8.6,13.7c2,4.6,3.1,9.1,3.8,13.3
					c2.1,13.2-4.7,23.2-13.3,28.8c-0.4,0.2-0.8,0.5-1.1,0.7c-4.9,2.7-10.9,4-16.8,3.5c-5.7-0.6-11.3-3-15.6-7.5
					c-7.6-8.3-4.9-21,1.7-27.8C18.2,19.5,30.4,20.9,36.6,11.1z"/>
				<path class="st25" d="M36.6,11.3c3.5-5.5,2.5-9.6,4.9-6.7c3.8,4.4,6.6,9.1,8.6,13.8c2,4.6,3.1,9.1,3.8,13.3
					c2,13.1-4.7,23.2-13.3,28.7c-0.4,0.2-0.8,0.5-1.1,0.7c-4.9,2.7-10.9,4-16.7,3.4c-5.7-0.6-11.3-3-15.5-7.5
					c-7.6-8.3-4.9-21,1.7-27.7C18.3,19.6,30.3,21,36.6,11.3z"/>
				<path class="st26" d="M36.6,11.5c3.5-5.4,2.5-9.6,5-6.8c3.8,4.4,6.6,9.1,8.5,13.8c1.9,4.6,3.1,9.2,3.8,13.3
					c2,13.1-4.8,23.1-13.3,28.6c-0.4,0.2-0.8,0.5-1.1,0.7c-4.9,2.7-10.9,4-16.7,3.4c-5.7-0.6-11.3-3-15.5-7.5
					C-0.3,48.7,2.4,36,9,29.2C18.3,19.8,30.3,21.2,36.6,11.5z"/>
				<path class="st27" d="M36.6,11.7c3.5-5.4,2.6-9.7,5.1-6.9c3.8,4.4,6.6,9.1,8.5,13.8c1.9,4.6,3.1,9.2,3.7,13.3
					c2,13.1-4.9,23.1-13.3,28.5c-0.4,0.2-0.8,0.5-1.1,0.7c-4.9,2.7-10.8,3.9-16.6,3.4c-5.7-0.6-11.2-2.9-15.4-7.5
					C-0.2,48.7,2.5,36,9.1,29.3C18.4,19.9,30.3,21.3,36.6,11.7z"/>
				<path class="st28" d="M36.5,11.8c3.5-5.4,2.7-9.8,5.1-6.9c3.8,4.4,6.5,9.1,8.5,13.8c1.9,4.6,3.1,9.2,3.7,13.3
					c1.9,13.1-4.9,23-13.4,28.4c-0.4,0.2-0.8,0.5-1.1,0.7c-4.9,2.7-10.8,3.9-16.6,3.3c-5.7-0.6-11.2-2.9-15.4-7.4
					c-7.5-8.1-4.9-20.8,1.8-27.6C18.5,20,30.2,21.5,36.5,11.8z"/>
				<path class="st28" d="M36.5,12c3.5-5.4,2.7-9.8,5.2-7c3.8,4.4,6.5,9.1,8.5,13.8c1.9,4.6,3.1,9.2,3.7,13.3c1.9,13-5,23-13.4,28.3
					c-0.4,0.2-0.8,0.5-1.1,0.7c-4.9,2.7-10.8,3.9-16.5,3.3c-5.7-0.6-11.1-2.9-15.3-7.4c-7.5-8-4.8-20.8,1.9-27.5
					C18.5,20.1,30.2,21.6,36.5,12z"/>
				<path class="st29" d="M36.5,12.2c3.5-5.3,2.8-9.9,5.2-7.1c3.8,4.4,6.5,9.1,8.4,13.8c1.9,4.6,3.1,9.2,3.6,13.3
					c1.9,13-5.1,22.9-13.4,28.2c-0.4,0.2-0.8,0.5-1.1,0.7c-4.9,2.6-10.8,3.9-16.5,3.3c-5.6-0.6-11.1-2.9-15.3-7.4
					c-7.4-8-4.8-20.7,1.9-27.4C18.6,20.2,30.2,21.8,36.5,12.2z"/>
				<path class="st30" d="M36.5,12.4c3.5-5.3,2.9-10,5.3-7.2c3.8,4.4,6.5,9.1,8.4,13.8c1.9,4.7,3,9.2,3.6,13.3
					c1.8,13-5.1,22.8-13.4,28.1c-0.4,0.2-0.7,0.5-1.1,0.7c-4.9,2.6-10.7,3.8-16.4,3.2c-5.6-0.6-11.1-2.9-15.2-7.4
					c-7.4-7.9-4.8-20.7,1.9-27.4C18.7,20.4,30.1,21.9,36.5,12.4z"/>
				<path class="st30" d="M36.5,12.6c3.5-5.3,2.9-10,5.3-7.3c3.8,4.3,6.5,9.1,8.4,13.8c1.9,4.7,3,9.3,3.6,13.3
					c1.8,12.9-5.2,22.8-13.4,28c-0.4,0.2-0.7,0.4-1.1,0.7c-4.8,2.6-10.7,3.8-16.4,3.2c-5.6-0.6-11-2.9-15.2-7.3
					c-7.4-7.9-4.8-20.6,2-27.3C18.7,20.5,30.1,22.1,36.5,12.6z"/>
				<path class="st31" d="M36.4,12.8c3.5-5.2,3-10.1,5.4-7.4c3.8,4.3,6.4,9.1,8.3,13.8c1.9,4.7,3,9.3,3.6,13.3
					c1.8,12.9-5.3,22.7-13.5,27.9c-0.4,0.2-0.7,0.4-1.1,0.6c-4.8,2.6-10.7,3.8-16.3,3.2c-5.6-0.6-11-2.9-15.1-7.3
					c-7.3-7.8-4.8-20.6,2-27.3C18.8,20.6,30.1,22.2,36.4,12.8z"/>
				<path class="st32" d="M36.4,12.9c3.5-5.2,3.1-10.2,5.4-7.4c3.7,4.3,6.4,9.1,8.3,13.8c1.9,4.7,3,9.3,3.5,13.3
					c1.7,12.9-5.4,22.7-13.5,27.8c-0.4,0.2-0.7,0.4-1.1,0.6c-4.8,2.6-10.7,3.7-16.3,3.1c-5.6-0.6-10.9-2.9-15.1-7.3
					c-7.3-7.8-4.8-20.5,2-27.2C18.9,20.7,30.1,22.4,36.4,12.9z"/>
				<path class="st33" d="M36.4,13.1c3.5-5.2,3.1-10.2,5.5-7.5c3.7,4.3,6.4,9.1,8.3,13.8c1.9,4.7,3,9.3,3.5,13.3
					c1.7,12.9-5.4,22.6-13.5,27.7c-0.4,0.2-0.7,0.4-1.1,0.6c-4.8,2.6-10.6,3.7-16.2,3.1c-5.5-0.6-10.9-2.9-15-7.3
					C0.5,49.1,3,36.3,9.9,29.7C18.9,20.8,30,22.5,36.4,13.1z"/>
				<path class="st34" d="M36.4,13.3c3.5-5.2,3.2-10.3,5.5-7.6c3.7,4.3,6.4,9.1,8.3,13.8c1.9,4.7,3,9.3,3.5,13.3
					c1.7,12.8-5.5,22.6-13.5,27.6c-0.4,0.2-0.7,0.4-1.1,0.6c-4.8,2.6-10.6,3.7-16.2,3.1c-5.5-0.6-10.9-2.9-14.9-7.2
					C0.6,49.2,3.1,36.4,10,29.7C19,21,30,22.7,36.4,13.3z"/>
				<path class="st35" d="M36.4,13.5c3.5-5.1,3.2-10.4,5.6-7.7c3.7,4.3,6.4,9.1,8.2,13.8c1.9,4.7,2.9,9.4,3.5,13.3
					c1.6,12.8-5.6,22.5-13.5,27.5c-0.4,0.2-0.7,0.4-1.1,0.6c-4.8,2.5-10.6,3.7-16.2,3c-5.5-0.6-10.8-2.9-14.9-7.2
					C0.7,49.2,3.1,36.4,10,29.8C19.1,21.1,30,22.8,36.4,13.5z"/>
				<path class="st36" d="M36.4,13.7c3.5-5.1,3.3-10.4,5.6-7.8c3.7,4.3,6.4,9.1,8.2,13.8c1.8,4.7,2.9,9.4,3.4,13.3
					c1.6,12.8-5.6,22.4-13.6,27.4c-0.4,0.2-0.7,0.4-1.1,0.6c-4.8,2.5-10.6,3.6-16.1,3C17.4,63.4,12,61.1,8,56.8
					c-7.2-7.6-4.8-20.4,2.2-27C19.1,21.2,29.9,23,36.4,13.7z"/>
				<path class="st37" d="M36.3,13.9C39.9,8.8,39.7,3.3,42,6c3.7,4.2,6.3,9.1,8.2,13.8c1.8,4.7,2.9,9.4,3.4,13.3
					c1.6,12.8-5.7,22.4-13.6,27.2c-0.4,0.2-0.7,0.4-1.1,0.6c-4.8,2.5-10.5,3.6-16.1,3c-5.5-0.6-10.8-2.9-14.8-7.2
					c-7.1-7.5-4.8-20.3,2.2-26.9C19.2,21.3,29.9,23.1,36.3,13.9z"/>
				<path class="st38" d="M36.3,14c3.5-5.1,3.4-10.6,5.7-7.9c3.7,4.2,6.3,9.1,8.2,13.8c1.8,4.7,2.9,9.4,3.4,13.3
					C55.1,46,47.8,55.6,40,60.4c-0.4,0.2-0.7,0.4-1.1,0.6c-4.8,2.5-10.5,3.6-16,2.9c-5.4-0.6-10.7-2.9-14.7-7.1
					C1,49.4,3.3,36.5,10.3,29.9C19.3,21.4,29.9,23.3,36.3,14z"/>
				<path class="st39" d="M36.3,14.2c3.5-5,3.5-10.7,5.8-8c3.7,4.2,6.3,9.1,8.1,13.8c1.8,4.8,2.9,9.4,3.3,13.3
					c1.5,12.7-5.8,22.3-13.6,27c-0.4,0.2-0.7,0.4-1.1,0.6c-4.8,2.5-10.5,3.5-16,2.9c-5.4-0.6-10.7-2.9-14.7-7.1
					C1.1,49.4,3.4,36.6,10.4,30C19.3,21.6,29.9,23.5,36.3,14.2z"/>
				<path class="st40" d="M36.3,14.4c3.5-5,3.6-10.7,5.8-8.1c3.7,4.2,6.3,9.1,8.1,13.8c1.8,4.8,2.9,9.4,3.3,13.3
					c1.5,12.7-5.9,22.2-13.7,26.9c-0.4,0.2-0.7,0.4-1.1,0.6c-4.8,2.5-10.4,3.5-15.9,2.9c-5.4-0.6-10.6-2.9-14.6-7.1
					c-7-7.3-4.8-20.2,2.3-26.8C19.4,21.7,29.8,23.6,36.3,14.4z"/>
				<path class="st41" d="M36.3,14.6c3.5-5,3.6-10.8,5.9-8.2c3.6,4.2,6.3,9.1,8.1,13.9c1.8,4.8,2.9,9.5,3.3,13.3
					c1.5,12.6-6,22.2-13.7,26.8c-0.4,0.2-0.7,0.4-1.1,0.6c-4.8,2.5-10.4,3.5-15.9,2.8c-5.4-0.6-10.6-2.9-14.6-7.1
					c-7-7.3-4.8-20.1,2.3-26.7C19.5,21.8,29.8,23.8,36.3,14.6z"/>
				<path class="st42" d="M36.3,14.8c3.5-5,3.7-10.9,5.9-8.3c3.6,4.2,6.2,9.1,8,13.9c1.8,4.8,2.8,9.5,3.3,13.3
					c1.4,12.6-6,22.1-13.7,26.7c-0.4,0.2-0.7,0.4-1.1,0.6c-4.8,2.4-10.4,3.4-15.8,2.8c-5.4-0.6-10.6-2.9-14.5-7
					c-7-7.2-4.8-20.1,2.3-26.7C19.5,21.9,29.8,23.9,36.3,14.8z"/>
				<path class="st43" d="M36.2,15C39.8,10,40,4,42.2,6.6c3.6,4.2,6.2,9.1,8,13.9c1.8,4.8,2.8,9.5,3.2,13.3
					c1.4,12.6-6.1,22-13.7,26.6c-0.4,0.2-0.7,0.4-1.1,0.6c-4.8,2.4-10.4,3.4-15.8,2.8c-5.4-0.7-10.5-2.9-14.5-7
					c-6.9-7.2-4.8-20,2.4-26.6C19.6,22,29.7,24.1,36.2,15z"/>
				<path class="st43" d="M36.2,15.1c3.5-4.9,3.8-11,6-8.4c3.6,4.1,6.2,9,8,13.9c1.8,4.8,2.8,9.5,3.2,13.3
					c1.4,12.6-6.2,22-13.7,26.5c-0.4,0.2-0.7,0.4-1.1,0.6c-4.7,2.4-10.3,3.4-15.7,2.7c-5.3-0.7-10.5-2.9-14.4-7
					c-6.9-7.1-4.8-20,2.4-26.6C19.7,22.2,29.7,24.2,36.2,15.1z"/>
				<path class="st44" d="M36.2,15.3c3.5-4.9,3.9-11.1,6.1-8.5c3.6,4.1,6.2,9,8,13.9c1.8,4.8,2.8,9.5,3.2,13.3
					c1.3,12.5-6.3,21.9-13.8,26.4c-0.4,0.2-0.7,0.4-1.1,0.6c-4.7,2.4-10.3,3.4-15.7,2.7c-5.3-0.7-10.4-2.9-14.4-7
					C1.7,49.7,3.7,36.8,11,30.2C19.7,22.3,29.7,24.4,36.2,15.3z"/>
				<path class="st45" d="M36.2,15.5c3.5-4.9,3.9-11.1,6.1-8.6c3.6,4.1,6.2,9,7.9,13.9c1.8,4.8,2.8,9.6,3.2,13.3
					c1.3,12.5-6.3,21.9-13.8,26.3c-0.4,0.2-0.7,0.4-1.1,0.6c-4.7,2.4-10.3,3.3-15.7,2.7c-5.3-0.7-10.4-2.9-14.3-6.9
					c-6.8-7-4.8-19.9,2.5-26.5C19.8,22.4,29.6,24.5,36.2,15.5z"/>
				<path class="st46" d="M36.2,15.7c3.5-4.8,4-11.2,6.2-8.7c3.6,4.1,6.1,9,7.9,13.9c1.8,4.8,2.8,9.6,3.1,13.3
					C54.7,46.7,47,56,39.6,60.4c-0.4,0.2-0.7,0.4-1.1,0.6c-4.7,2.4-10.3,3.3-15.6,2.6c-5.3-0.7-10.4-2.9-14.3-6.9
					c-6.8-7-4.8-19.9,2.5-26.4C19.9,22.5,29.6,24.7,36.2,15.7z"/>
				<path class="st47" d="M36.2,15.9c3.5-4.8,4.1-11.3,6.3-8.8c3.6,4.1,6.1,9,7.9,13.9c1.8,4.8,2.7,9.6,3.1,13.3
					c1.2,12.5-6.5,21.7-13.8,26.1c-0.4,0.2-0.7,0.4-1.1,0.6c-4.7,2.3-10.2,3.3-15.6,2.6c-5.3-0.7-10.3-2.9-14.2-6.9
					c-6.7-6.9-4.8-19.8,2.5-26.3C19.9,22.6,29.6,24.8,36.2,15.9z"/>
				<path class="st47" d="M36.1,16c3.5-4.8,4.1-11.3,6.3-8.8c3.6,4.1,6.1,9,7.9,13.9C52,26,53,30.7,53.4,34.4
					c1.2,12.4-6.5,21.7-13.8,26c-0.4,0.2-0.7,0.4-1.1,0.6c-4.7,2.3-10.2,3.2-15.5,2.6c-5.2-0.7-10.3-2.9-14.2-6.9
					C2,49.9,4,37,11.3,30.4C20,22.7,29.5,25,36.1,16z"/>
				<path class="st48" d="M36.1,16.2c3.5-4.8,4.2-11.4,6.4-8.9c3.5,4.1,6.1,9,7.8,13.9c1.7,4.9,2.7,9.6,3.1,13.3
					c1.1,12.4-6.6,21.6-13.9,25.9c-0.4,0.2-0.7,0.4-1.1,0.6c-4.7,2.3-10.2,3.2-15.5,2.5c-5.2-0.7-10.3-2.9-14.1-6.8
					C2.1,49.9,4,37,11.4,30.5C20,22.9,29.5,25.1,36.1,16.2z"/>
				<path class="st49" d="M36.1,16.4c3.5-4.7,4.3-11.5,6.4-9c3.5,4.1,6.1,9,7.8,13.9c1.7,4.9,2.7,9.7,3,13.3
					c1.1,12.4-6.7,21.6-13.9,25.8c-0.4,0.2-0.7,0.4-1.1,0.6c-4.7,2.3-10.2,3.2-15.4,2.5c-5.2-0.7-10.2-2.9-14.1-6.8
					C2.2,49.9,4.1,37,11.5,30.5C20.1,23,29.5,25.3,36.1,16.4z"/>
				<path class="st50" d="M36.1,16.6c3.5-4.7,4.3-11.5,6.5-9.1c3.5,4,6,9,7.8,13.9c1.7,4.9,2.7,9.7,3,13.3
					c1.1,12.4-6.7,21.5-13.9,25.7c-0.4,0.2-0.7,0.4-1.1,0.6c-4.7,2.3-10.1,3.2-15.4,2.5c-5.2-0.7-10.2-2.9-14-6.8
					C2.3,50,4.2,37.1,11.6,30.6C20.2,23.1,29.5,25.4,36.1,16.6z"/>
				<path class="st51" d="M36.1,16.8c3.5-4.7,4.4-11.6,6.5-9.2c3.5,4,6,9,7.7,13.9c1.7,4.9,2.7,9.7,3,13.3
					c1,12.3-6.8,21.5-13.9,25.6c-0.4,0.2-0.7,0.4-1.1,0.6c-4.7,2.3-10.1,3.1-15.3,2.4c-5.2-0.7-10.1-2.9-14-6.8
					C2.4,50,4.2,37.1,11.7,30.6C20.2,23.2,29.4,25.6,36.1,16.8z"/>
				<path class="st52" d="M36.1,17c3.5-4.7,4.5-11.7,6.6-9.3c3.5,4,6,9,7.7,13.9C52,26.5,53,31.3,53.3,35c1,12.3-6.9,21.4-14,25.5
					c-0.4,0.2-0.7,0.4-1.1,0.6c-4.7,2.3-10.1,3.1-15.3,2.4c-5.1-0.7-10.1-2.9-13.9-6.7c-6.5-6.6-4.7-19.5,2.7-26
					C20.3,23.3,29.4,25.7,36.1,17z"/>
				<path class="st53" d="M36,17.1c3.5-4.6,4.5-11.7,6.6-9.3c3.5,4,6,9,7.7,13.9c1.7,4.9,2.6,9.7,2.9,13.3c1,12.3-6.9,21.3-14,25.4
					c-0.4,0.2-0.7,0.4-1.1,0.6c-4.7,2.2-10.1,3.1-15.2,2.4c-5.1-0.7-10.1-2.9-13.9-6.7c-6.5-6.5-4.7-19.5,2.8-26
					C20.4,23.4,29.4,25.9,36,17.1z"/>
				<path class="st54" d="M36,17.3c3.5-4.6,4.6-11.8,6.7-9.4c3.5,4,6,9,7.7,13.9c1.7,4.9,2.6,9.7,2.9,13.4c0.9,12.2-7,21.3-14,25.3
					c-0.4,0.2-0.7,0.4-1.1,0.6c-4.7,2.2-10,3-15.2,2.3c-5.1-0.7-10-2.9-13.8-6.7C2.7,50.2,4.4,37.2,12,30.8
					C20.4,23.6,29.3,26,36,17.3z"/>
				<path class="st55" d="M36,17.5c3.5-4.6,4.6-11.9,6.7-9.5c3.5,4,5.9,9,7.6,13.9c1.7,4.9,2.6,9.8,2.9,13.4
					c0.9,12.2-7.1,21.2-14,25.2c-0.4,0.2-0.7,0.4-1.1,0.6c-4.7,2.2-10,3-15.2,2.3c-5.1-0.7-10-2.9-13.8-6.7
					c-6.4-6.4-4.7-19.4,2.8-25.8C20.5,23.7,29.3,26.2,36,17.5z"/>
				<path class="st56" d="M36,17.7c3.5-4.5,4.7-12,6.8-9.6c3.5,4,5.9,9,7.6,13.9c1.7,4.9,2.6,9.8,2.8,13.4
					c0.9,12.2-7.2,21.2-14,25.1c-0.4,0.2-0.7,0.4-1.1,0.6c-4.6,2.2-10,3-15.1,2.3c-5.1-0.7-9.9-2.9-13.7-6.6
					c-6.4-6.4-4.7-19.4,2.9-25.8C20.5,23.8,29.3,26.3,36,17.7z"/>
				<path class="st57" d="M36,17.9c3.5-4.5,4.8-12,6.8-9.7c3.4,3.9,5.9,9,7.6,14c1.7,4.9,2.6,9.8,2.8,13.4
					c0.8,12.2-7.2,21.1-14.1,25c-0.4,0.2-0.7,0.4-1.1,0.5c-4.6,2.2-10,2.9-15.1,2.2c-5.1-0.7-9.9-2.9-13.7-6.6
					C3,50.3,4.6,37.3,12.2,30.9C20.6,23.9,29.2,26.5,36,17.9z"/>
				<path class="st58" d="M35.9,18.1c3.5-4.5,4.8-12.1,6.9-9.8c3.4,3.9,5.9,9,7.5,14c1.7,5,2.5,9.8,2.8,13.4
					c0.8,12.1-7.3,21-14.1,24.9c-0.4,0.2-0.7,0.4-1.1,0.5c-4.6,2.2-9.9,2.9-15,2.2c-5-0.7-9.9-2.9-13.6-6.6
					C3.1,50.4,4.6,37.4,12.3,31C20.7,24,29.2,26.6,35.9,18.1z"/>
				<path class="st59" d="M35.9,18.2c3.5-4.5,4.9-12.2,6.9-9.8c3.4,3.9,5.9,9,7.5,14c1.7,5,2.5,9.8,2.8,13.4
					c0.8,12.1-7.4,21-14.1,24.8c-0.4,0.2-0.7,0.4-1.1,0.5c-4.6,2.1-9.9,2.9-15,2.2c-5-0.7-9.8-2.9-13.6-6.6
					c-6.3-6.2-4.7-19.2,3-25.6C20.7,24.1,29.2,26.8,35.9,18.2z"/>
				<path class="st60" d="M35.9,18.4c3.5-4.4,5-12.2,7-9.9c3.4,3.9,5.8,9,7.5,14c1.6,5,2.5,9.9,2.7,13.4
					c0.7,12.1-7.4,20.9-14.1,24.7c-0.4,0.2-0.7,0.4-1.1,0.5c-4.6,2.1-9.9,2.9-14.9,2.1c-5-0.7-9.8-2.9-13.5-6.5
					c-6.3-6.2-4.7-19.2,3-25.6C20.8,24.2,29.2,26.9,35.9,18.4z"/>
				<path class="st61" d="M35.9,18.6c3.5-4.4,5-12.3,7-10c3.4,3.9,5.8,9,7.5,14c1.6,5,2.5,9.9,2.7,13.4C53.8,48,45.6,56.8,39,60.5
					c-0.4,0.2-0.7,0.4-1.1,0.5c-4.6,2.1-9.9,2.8-14.9,2.1c-5-0.7-9.7-2.9-13.5-6.5c-6.2-6.1-4.7-19.2,3-25.5
					C20.9,24.4,29.1,27.1,35.9,18.6z"/>
				<path class="st62" d="M35.9,18.8C39.4,14.4,41,6.4,43,8.7c3.4,3.9,5.8,9,7.4,14c1.6,5,2.5,9.9,2.7,13.4
					c0.7,12-7.6,20.8-14.2,24.5c-0.4,0.2-0.7,0.4-1.1,0.5c-4.6,2.1-9.8,2.8-14.8,2.1c-5-0.7-9.7-2.9-13.4-6.5
					c-6.2-6.1-4.7-19.1,3.1-25.5C20.9,24.5,29.1,27.2,35.9,18.8z"/>
				<path class="st62" d="M35.9,19C39.4,14.6,41,6.5,43,8.8c3.4,3.9,5.8,9,7.4,14c1.6,5,2.5,9.9,2.6,13.4c0.6,12-7.6,20.7-14.2,24.4
					c-0.4,0.2-0.7,0.4-1.1,0.5c-4.6,2.1-9.8,2.8-14.8,2c-4.9-0.7-9.7-2.9-13.4-6.5c-6.1-6-4.7-19.1,3.1-25.4
					C21,24.6,29.1,27.4,35.9,19z"/>
				<path class="st63" d="M35.8,19.2c3.5-4.3,5.2-12.5,7.2-10.2c3.4,3.8,5.8,9,7.4,14c1.6,5,2.5,9.9,2.6,13.4
					c0.6,12-7.7,20.7-14.2,24.2c-0.4,0.2-0.7,0.4-1.1,0.5c-4.6,2.1-9.8,2.7-14.7,2c-4.9-0.7-9.6-2.9-13.3-6.4
					c-6.1-6-4.7-19,3.1-25.3C21,24.7,29,27.5,35.8,19.2z"/>
				<path class="st64" d="M35.8,19.3C39.4,15,41.1,6.8,43.1,9c3.3,3.8,5.7,9,7.4,14C52,28,52.9,33,53,36.4
					c0.6,11.9-7.8,20.6-14.2,24.1c-0.4,0.2-0.7,0.4-1.1,0.5c-4.6,2.1-9.8,2.7-14.7,2c-4.9-0.7-9.6-2.9-13.3-6.4
					c-6.1-5.9-4.7-19,3.2-25.3C21.1,24.8,29,27.7,35.8,19.3z"/>
				<path class="st64" d="M35.8,19.5c3.5-4.3,5.4-12.6,7.3-10.4c3.3,3.8,5.7,9,7.3,14c1.6,5,2.4,10,2.6,13.4
					c0.5,11.9-7.9,20.6-14.3,24c-0.4,0.2-0.7,0.4-1.1,0.5c-4.6,2-9.7,2.7-14.7,1.9c-4.9-0.7-9.6-2.9-13.2-6.4
					c-6-5.9-4.7-19,3.2-25.2C21.2,24.9,29,27.8,35.8,19.5z"/>
				<path class="st65" d="M35.8,19.7c3.5-4.3,5.4-12.7,7.3-10.5c3.3,3.8,5.7,9,7.3,14c1.6,5,2.4,10,2.5,13.4
					c0.5,11.9-7.9,20.5-14.3,23.9c-0.4,0.2-0.7,0.4-1,0.5c-4.6,2-9.7,2.7-14.6,1.9c-4.9-0.7-9.5-2.9-13.1-6.4
					c-6-5.8-4.7-18.9,3.2-25.2C21.2,25,28.9,28,35.8,19.7z"/>
				<path class="st65" d="M35.8,19.9c3.5-4.2,5.5-12.8,7.4-10.6c3.3,3.8,5.7,9,7.3,14c1.6,5.1,2.4,10,2.5,13.4
					c0.5,11.9-8,20.4-14.3,23.8c-0.4,0.2-0.7,0.4-1,0.5c-4.6,2-9.7,2.6-14.6,1.9c-4.9-0.8-9.5-2.9-13.1-6.3
					c-6-5.8-4.7-18.9,3.3-25.1C21.3,25.2,28.9,28.1,35.8,19.9z"/>
				<path class="st66" d="M35.8,20.1c3.5-4.2,5.5-12.8,7.5-10.7c3.3,3.8,5.7,8.9,7.2,14c1.6,5.1,2.4,10,2.5,13.4
					c0.4,11.8-8.1,20.4-14.3,23.7c-0.4,0.2-0.7,0.4-1,0.5c-4.6,2-9.7,2.6-14.5,1.8c-4.8-0.8-9.4-2.9-13-6.3
					c-5.9-5.7-4.7-18.8,3.3-25.1C21.3,25.3,28.9,28.3,35.8,20.1z"/>
				<path class="st67" d="M35.7,20.3c3.5-4.2,5.6-12.9,7.5-10.7c3.3,3.8,5.7,8.9,7.2,14c1.6,5.1,2.4,10,2.5,13.4
					c0.4,11.8-8.1,20.3-14.3,23.6c-0.4,0.2-0.7,0.4-1,0.5c-4.6,2-9.6,2.6-14.5,1.8c-4.8-0.8-9.4-2.9-13-6.3
					c-5.9-5.7-4.7-18.8,3.3-25C21.4,25.4,28.8,28.4,35.7,20.3z"/>
				<path class="st68" d="M35.7,20.4c3.5-4.2,5.7-13,7.6-10.8c3.3,3.7,5.6,8.9,7.2,14c1.6,5.1,2.3,10.1,2.4,13.4
					c0.4,11.8-8.2,20.3-14.4,23.5c-0.4,0.2-0.7,0.4-1,0.5c-4.5,1.9-9.6,2.5-14.4,1.8c-4.8-0.8-9.4-2.9-12.9-6.3
					c-5.9-5.6-4.7-18.8,3.4-25C21.5,25.5,28.8,28.6,35.7,20.4z"/>
				<path class="st69" d="M35.7,20.6c3.5-4.1,5.7-13,7.6-10.9c3.3,3.7,5.6,8.9,7.2,14c1.5,5.1,2.3,10.1,2.4,13.4
					c0.3,11.8-8.3,20.2-14.4,23.4c-0.4,0.2-0.7,0.4-1,0.5c-4.5,1.9-9.6,2.5-14.4,1.7c-4.8-0.8-9.3-2.9-12.9-6.2
					C4.4,51,5.5,37.8,13.6,31.6C21.5,25.6,28.8,28.7,35.7,20.6z"/>
				<path class="st70" d="M35.7,20.8c3.5-4.1,5.8-13.1,7.7-11c3.3,3.7,5.6,8.9,7.1,14C52,29,52.8,34,52.9,37.2
					c0.3,11.7-8.4,20.1-14.4,23.3c-0.4,0.2-0.7,0.3-1,0.5c-4.5,1.9-9.6,2.5-14.3,1.7c-4.8-0.8-9.3-2.9-12.8-6.2
					C4.5,51,5.5,37.9,13.7,31.7C21.6,25.7,28.7,28.9,35.7,20.8z"/>
				<path class="st71" d="M35.7,21c3.5-4.1,5.9-13.2,7.7-11.1c3.2,3.7,5.6,8.9,7.1,14c1.5,5.1,2.3,10.1,2.4,13.4
					c0.2,11.7-8.4,20.1-14.4,23.2c-0.4,0.2-0.7,0.3-1,0.5c-4.5,1.9-9.5,2.4-14.3,1.7c-4.7-0.8-9.2-2.9-12.8-6.2
					c-5.7-5.5-4.7-18.6,3.5-24.8C21.6,25.8,28.7,29,35.7,21z"/>
				<path class="st72" d="M35.7,21.2c3.5-4.1,5.9-13.3,7.8-11.2c3.2,3.7,5.6,8.9,7.1,14.1c1.5,5.1,2.3,10.1,2.3,13.4
					c0.2,11.7-8.5,20-14.4,23.1c-0.4,0.2-0.7,0.3-1,0.5c-4.5,1.9-9.5,2.4-14.2,1.6c-4.7-0.8-9.2-2.9-12.7-6.2
					c-5.7-5.4-4.7-18.6,3.5-24.7C21.7,25.9,28.7,29.2,35.7,21.2z"/>
				<path class="st73" d="M35.6,21.3c3.5-4,6-13.3,7.8-11.2c3.2,3.7,5.5,8.9,7.1,14.1c1.5,5.1,2.3,10.2,2.3,13.4
					c0.2,11.7-8.6,20-14.5,23c-0.4,0.2-0.7,0.3-1,0.5c-4.5,1.9-9.5,2.4-14.2,1.6c-4.7-0.8-9.2-2.9-12.7-6.1C4.7,51.2,5.7,38,14,31.8
					C21.8,26,28.6,29.3,35.6,21.3z"/>
				<path class="st74" d="M35.6,21.5c3.5-4,6.1-13.4,7.9-11.3c3.2,3.7,5.5,8.9,7,14.1c1.5,5.1,2.2,10.2,2.3,13.4
					c0.1,11.6-8.6,19.9-14.5,22.9c-0.4,0.2-0.7,0.3-1,0.5c-4.5,1.9-9.4,2.4-14.1,1.6c-4.7-0.8-9.1-2.8-12.6-6.1
					C4.8,51.2,5.7,38,14.1,31.9C21.8,26.2,28.6,29.5,35.6,21.5z"/>
				<path class="st75" d="M35.6,21.7c3.5-4,6.1-13.5,7.9-11.4c3.2,3.7,5.5,8.9,7,14.1c1.5,5.2,2.2,10.2,2.2,13.4
					c0.1,11.6-8.7,19.8-14.5,22.8c-0.4,0.2-0.7,0.3-1,0.5c-4.5,1.8-9.4,2.3-14.1,1.5c-4.7-0.8-9.1-2.8-12.6-6.1
					C4.9,51.3,5.8,38,14.1,31.9C21.9,26.3,28.6,29.6,35.6,21.7z"/>
				<path class="st76" d="M35.6,21.9c3.5-4,6.2-13.5,8-11.5c3.2,3.6,5.5,8.9,7,14.1c1.5,5.2,2.2,10.2,2.2,13.4
					c0.1,11.6-8.8,19.8-14.5,22.7c-0.4,0.2-0.7,0.3-1,0.5c-4.5,1.8-9.4,2.3-14.1,1.5c-4.6-0.8-9-2.8-12.5-6.1C5,51.3,5.9,38,14.2,32
					C21.9,26.4,28.6,29.8,35.6,21.9z"/>
				<path class="st77" d="M35.6,22.1c3.5-3.9,6.2-13.6,8-11.6c3.2,3.6,5.5,8.9,6.9,14.1c1.5,5.2,2.2,10.2,2.2,13.4
					c0,11.5-8.9,19.7-14.6,22.6c-0.4,0.2-0.7,0.3-1,0.5c-4.5,1.8-9.4,2.3-14,1.5c-4.6-0.8-9-2.8-12.5-6C5.1,51.3,5.9,38.1,14.3,32
					C22,26.5,28.5,29.9,35.6,22.1z"/>
				<path class="st77" d="M35.6,22.3c3.5-3.9,6.3-13.7,8.1-11.6c3.2,3.6,5.4,8.9,6.9,14.1c1.5,5.2,2.2,10.2,2.2,13.4
					c0,11.5-8.9,19.7-14.6,22.5c-0.4,0.2-0.7,0.3-1,0.5c-4.5,1.8-9.3,2.2-14,1.4c-4.6-0.8-9-2.8-12.4-6C5.2,51.4,6,38.1,14.4,32.1
					C22.1,26.6,28.5,30.1,35.6,22.3z"/>
				<path class="st78" d="M35.5,22.4c3.5-3.9,6.4-13.7,8.1-11.7c3.2,3.6,5.4,8.9,6.9,14.1c1.5,5.2,2.1,10.3,2.1,13.4
					c-0.1,11.5-9,19.6-14.6,22.4c-0.4,0.2-0.7,0.3-1,0.5c-4.5,1.8-9.3,2.2-13.9,1.4c-4.6-0.8-8.9-2.8-12.4-6
					c-5.5-5-4.8-18.3,3.7-24.4C22.1,26.7,28.4,30.2,35.5,22.4z"/>
				<path class="st78" d="M35.5,22.6C39,18.8,42,8.8,43.7,10.8c3.1,3.6,5.4,8.9,6.9,14.1c1.5,5.2,2.1,10.3,2.1,13.4
					C52.6,49.8,43.6,57.9,38,60.6c-0.4,0.2-0.7,0.3-1,0.5c-4.5,1.8-9.3,2.2-13.9,1.4c-4.6-0.8-8.9-2.8-12.3-6
					c-5.4-5-4.8-18.3,3.8-24.3C22.2,26.8,28.4,30.4,35.5,22.6z"/>
				<path class="st79" d="M35.5,22.8C39,19,42,8.9,43.7,10.9c3.1,3.6,5.4,8.9,6.8,14.1c1.5,5.2,2.1,10.3,2.1,13.4
					C52.5,49.9,43.5,57.9,38,60.6c-0.4,0.2-0.7,0.3-1,0.5c-4.5,1.7-9.3,2.2-13.8,1.3c-4.6-0.8-8.8-2.8-12.3-5.9
					c-5.4-4.9-4.8-18.3,3.8-24.2C22.2,26.9,28.4,30.5,35.5,22.8z"/>
				<path class="st80" d="M35.5,23C39,19.2,42,9.1,43.8,11c3.1,3.6,5.4,8.9,6.8,14.1c1.4,5.2,2.1,10.3,2.1,13.4
					C52.5,49.9,43.4,57.9,38,60.6c-0.4,0.2-0.7,0.3-1,0.4c-4.4,1.7-9.2,2.1-13.8,1.3c-4.5-0.8-8.8-2.8-12.2-5.9
					c-5.4-4.9-4.8-18.2,3.8-24.2C22.3,27,28.4,30.7,35.5,23z"/>
				<path class="st81" d="M35.5,23.2c3.5-3.8,6.6-14,8.3-12.1c3.1,3.5,5.3,8.9,6.8,14.1c1.4,5.2,2.1,10.3,2,13.4
					C52.4,50,43.3,58,37.9,60.6c-0.4,0.2-0.7,0.3-1,0.4c-4.4,1.7-9.2,2.1-13.7,1.3c-4.5-0.8-8.8-2.8-12.2-5.9
					c-5.3-4.8-4.8-18.2,3.9-24.1C22.4,27.2,28.3,30.8,35.5,23.2z"/>
				<path class="st82" d="M35.4,23.4c3.5-3.8,6.7-14.1,8.4-12.1c3.1,3.5,5.3,8.9,6.8,14.1c1.4,5.2,2.1,10.4,2,13.4
					C52.4,50.1,43.2,58,37.9,60.6c-0.4,0.2-0.7,0.3-1,0.4c-4.4,1.7-9.2,2.1-13.7,1.2c-4.5-0.8-8.7-2.8-12.1-5.9
					C5.8,51.7,6.3,38.3,15,32.3C22.4,27.3,28.3,31,35.4,23.4z"/>
				<path class="st83" d="M36.8,61.1c-4.4,1.7-9.2,2-13.6,1.2c-4.5-0.8-8.7-2.8-12.1-5.8c-5.3-4.7-4.8-18.1,3.9-24
					c7.4-5,13.2-1.3,20.4-8.9c3.5-3.7,6.8-14.1,8.4-12.2c3.1,3.5,5.3,8.9,6.7,14.1c1.4,5.2,2.1,10.4,2,13.4
					C52.3,50.9,41.9,59.1,36.8,61.1z"/>
				<path class="st84" d="M43.9,11.5c3.1,3.5,5.3,8.8,6.7,14c0.4,1.6,0.8,3.2,1.1,4.7c0.6,3.4,0.9,6.5,0.9,8.6
					c-0.2,6.8-3.5,12.3-7.3,16.2c-2.9,3-6.1,5-8.3,5.9c-3.9,1.5-8.1,1.9-12.1,1.4c-0.5-0.1-1-0.1-1.4-0.2c-4.5-0.8-8.6-2.8-12-5.8
					c-5.2-4.7-4.7-18,4-23.9c7.4-5,13.1-1.3,20.2-8.9C39,19.9,42.2,9.6,43.9,11.5z"/>
				<path class="st85" d="M43.9,11.7c3.1,3.4,5.2,8.7,6.6,13.9c0.4,1.6,0.8,3.2,1.1,4.7c0.6,3.4,0.9,6.5,0.9,8.5
					c-0.2,6.7-3.5,12.3-7.3,16.1c-2.9,3-6.1,5-8.3,5.8c-3.9,1.5-8.1,1.9-12,1.5c-0.5-0.1-1-0.1-1.4-0.2c-4.4-0.8-8.6-2.8-11.9-5.8
					c-5.2-4.7-4.6-17.9,4-23.7c7.3-5,13-1.4,20.1-8.8C39.1,20.1,42.2,9.8,43.9,11.7z"/>
				<path class="st86" d="M43.9,11.8c3,3.4,5.2,8.7,6.6,13.9c0.4,1.6,0.8,3.2,1.1,4.7c0.6,3.4,0.9,6.4,0.8,8.5
					c-0.2,6.7-3.5,12.2-7.2,16c-2.9,3-6,5-8.2,5.8c-3.9,1.5-8,1.9-12,1.5c-0.5-0.1-1-0.1-1.4-0.2c-4.4-0.8-8.6-2.7-11.9-5.7
					c-5.2-4.7-4.6-17.7,4-23.5c7.3-4.9,13-1.4,20-8.8C39.1,20.2,42.3,10,43.9,11.8z"/>
				<path class="st87" d="M44,12c3,3.4,5.2,8.6,6.5,13.8c0.4,1.6,0.8,3.2,1,4.7c0.6,3.4,0.9,6.4,0.8,8.5c-0.2,6.7-3.5,12.1-7.2,16
					c-2.9,3-6,4.9-8.2,5.8c-3.9,1.5-8,2-11.9,1.5c-0.5-0.1-0.9-0.1-1.4-0.2c-4.4-0.8-8.5-2.7-11.8-5.7c-5.1-4.7-4.5-17.6,4-23.4
					c7.2-4.9,12.9-1.4,19.8-8.8C39.2,20.3,42.3,10.2,44,12z"/>
				<path class="st88" d="M44,12.2c3,3.3,5.1,8.5,6.5,13.7c0.4,1.6,0.8,3.1,1,4.6c0.6,3.3,0.9,6.3,0.8,8.4
					c-0.2,6.6-3.4,12.1-7.1,15.9c-2.9,2.9-6,4.9-8.1,5.8c-3.8,1.5-7.9,2-11.8,1.5c-0.5-0.1-0.9-0.1-1.4-0.2
					c-4.4-0.8-8.5-2.7-11.7-5.6C7,51.6,7.7,38.7,16.1,33c7.2-4.9,12.8-1.5,19.7-8.8C39.2,20.5,42.3,10.4,44,12.2z"/>
				<path class="st89" d="M44,12.4c3,3.3,5.1,8.5,6.4,13.6c0.4,1.6,0.8,3.1,1,4.6c0.6,3.3,0.9,6.3,0.8,8.4c-0.2,6.6-3.4,12-7.1,15.8
					c-2.8,2.9-5.9,4.9-8.1,5.7c-3.8,1.5-7.9,1.9-11.7,1.5c-0.5-0.1-0.9-0.1-1.4-0.2c-4.3-0.7-8.4-2.6-11.6-5.6
					c-5.1-4.6-4.3-17.3,4-23c7.1-4.9,12.7-1.5,19.6-8.8C39.3,20.6,42.4,10.6,44,12.4z"/>
				<path class="st90" d="M44,12.6c3,3.2,5,8.4,6.4,13.5c0.4,1.6,0.7,3.1,1,4.6c0.6,3.3,0.8,6.3,0.8,8.3c-0.2,6.5-3.4,11.9-7.1,15.7
					c-2.8,2.9-5.9,4.9-8,5.7c-3.8,1.5-7.8,1.9-11.7,1.5c-0.5-0.1-0.9-0.1-1.4-0.2c-4.3-0.7-8.4-2.6-11.6-5.5c-5-4.6-4.3-17.2,4-22.9
					c7.1-4.8,12.6-1.6,19.4-8.8C39.3,20.7,42.4,10.8,44,12.6z"/>
				<path class="st90" d="M44,12.7c2.9,3.2,5,8.3,6.3,13.4c0.4,1.5,0.7,3.1,1,4.5c0.6,3.3,0.8,6.2,0.8,8.3c-0.2,6.5-3.4,11.9-7,15.6
					c-2.8,2.9-5.9,4.8-8,5.7c-3.8,1.5-7.7,1.9-11.6,1.5c-0.5-0.1-0.9-0.1-1.4-0.2c-4.3-0.7-8.3-2.6-11.5-5.5
					c-5-4.6-4.2-17.1,4.1-22.7c7.1-4.8,12.6-1.6,19.3-8.8C39.4,20.9,42.4,11,44,12.7z"/>
				<path class="st91" d="M44.1,12.9C47,16,49,21.2,50.3,26.2c0.4,1.5,0.7,3.1,1,4.5c0.6,3.2,0.8,6.2,0.7,8.2
					c-0.2,6.5-3.4,11.8-7,15.5c-2.8,2.9-5.8,4.8-7.9,5.7c-3.7,1.5-7.7,1.9-11.5,1.5c-0.5,0-0.9-0.1-1.4-0.2C20,60.8,16,58.9,12.8,56
					c-5-4.6-4.1-16.9,4.1-22.5c7-4.8,12.5-1.6,19.1-8.8C39.4,21,42.5,11.2,44.1,12.9z"/>
				<path class="st92" d="M44.1,13.1c2.9,3.1,4.9,8.2,6.2,13.2c0.4,1.5,0.7,3,1,4.5C51.8,34,52,37,52,39c-0.2,6.4-3.3,11.7-6.9,15.4
					c-2.8,2.8-5.8,4.8-7.9,5.6c-3.7,1.5-7.6,1.9-11.4,1.5c-0.5,0-0.9-0.1-1.4-0.2c-4.3-0.7-8.2-2.5-11.4-5.4
					c-4.9-4.6-4-16.8,4.1-22.4c7-4.8,12.4-1.7,19-8.8C39.5,21.2,42.5,11.4,44.1,13.1z"/>
				<path class="st92" d="M44.1,13.3c2.9,3.1,4.9,8.1,6.1,13.2c0.4,1.5,0.7,3,1,4.5c0.6,3.2,0.8,6.1,0.7,8.1
					c-0.2,6.4-3.3,11.7-6.9,15.3c-2.7,2.8-5.7,4.8-7.8,5.6c-3.7,1.5-7.6,1.9-11.4,1.6c-0.5,0-0.9-0.1-1.4-0.2
					c-4.2-0.7-8.2-2.5-11.3-5.4c-4.9-4.6-4-16.7,4.1-22.2c6.9-4.7,12.3-1.7,18.9-8.8C39.5,21.3,42.5,11.6,44.1,13.3z"/>
				<path class="st93" d="M44.1,13.4c2.9,3,4.8,8.1,6.1,13.1c0.4,1.5,0.7,3,0.9,4.4c0.6,3.2,0.8,6.1,0.7,8.1
					c-0.2,6.3-3.3,11.6-6.8,15.2c-2.7,2.8-5.7,4.7-7.8,5.6c-3.7,1.5-7.5,1.9-11.3,1.6c-0.5,0-0.9-0.1-1.4-0.2
					c-4.2-0.7-8.2-2.5-11.2-5.3c-4.9-4.5-3.9-16.5,4.1-22c6.9-4.7,12.2-1.8,18.7-8.8C39.6,21.4,42.5,11.8,44.1,13.4z"/>
				<path class="st94" d="M44.1,13.6c2.8,3,4.8,8,6,13c0.4,1.5,0.7,3,0.9,4.4c0.5,3.2,0.8,6,0.7,8c-0.2,6.3-3.3,11.5-6.8,15.1
					c-2.7,2.8-5.7,4.7-7.7,5.6c-3.6,1.5-7.5,1.9-11.2,1.6c-0.5,0-0.9-0.1-1.4-0.2c-4.2-0.6-8.1-2.4-11.1-5.3
					C8.7,51.4,9.7,39.5,17.7,34c6.8-4.7,12.2-1.8,18.6-8.8C39.6,21.6,42.6,12,44.1,13.6z"/>
				<path class="st95" d="M44.2,13.8c2.8,2.9,4.7,7.9,6,12.9c0.4,1.5,0.7,2.9,0.9,4.4c0.5,3.1,0.7,6,0.7,8c-0.2,6.3-3.3,11.5-6.7,15
					c-2.7,2.8-5.6,4.7-7.7,5.5c-3.6,1.5-7.4,1.9-11.1,1.6c-0.5,0-0.9-0.1-1.3-0.2c-4.2-0.6-8.1-2.4-11.1-5.2
					C9,51.3,10,39.6,17.9,34.1c6.8-4.6,12.1-1.8,18.5-8.8C39.7,21.7,42.6,12.2,44.2,13.8z"/>
				<path class="st96" d="M44.2,14c2.8,2.9,4.7,7.8,5.9,12.8c0.4,1.5,0.7,2.9,0.9,4.3c0.5,3.1,0.7,6,0.7,8
					C51.4,45.3,48.4,50.4,45,54c-2.7,2.8-5.6,4.7-7.6,5.5c-3.6,1.5-7.4,1.9-11,1.6c-0.4,0-0.9-0.1-1.3-0.2c-4.1-0.6-8-2.4-11-5.2
					c-4.8-4.5-3.7-16.1,4.2-21.5c6.7-4.6,12-1.9,18.3-8.8C39.7,21.8,42.6,12.4,44.2,14z"/>
				<path class="st97" d="M44.2,14.1c2.8,2.8,4.7,7.8,5.9,12.7c0.4,1.5,0.7,2.9,0.9,4.3c0.5,3.1,0.7,5.9,0.6,7.9
					c-0.3,6.2-3.2,11.3-6.7,14.9c-2.7,2.7-5.5,4.6-7.6,5.5c-3.6,1.5-7.3,1.9-11,1.6c-0.4,0-0.9-0.1-1.3-0.2c-4.1-0.6-8-2.3-10.9-5.1
					c-4.7-4.5-3.6-16,4.2-21.4c6.7-4.6,11.9-1.9,18.2-8.8C39.8,22,42.7,12.6,44.2,14.1z"/>
				<path class="st98" d="M44.2,14.3C47,17.1,48.8,22,50,26.9c0.4,1.4,0.7,2.9,0.9,4.3c0.5,3.1,0.7,5.9,0.6,7.9
					c-0.3,6.2-3.2,11.3-6.6,14.8c-2.6,2.7-5.5,4.6-7.5,5.5c-3.5,1.5-7.3,1.9-10.9,1.6c-0.4,0-0.9-0.1-1.3-0.1
					c-4.1-0.6-7.9-2.3-10.8-5.1c-4.7-4.5-3.5-15.9,4.2-21.2c6.6-4.6,11.8-2,18.1-8.8C39.8,22.1,42.7,12.8,44.2,14.3z"/>
				<path class="st99" d="M44.2,14.5C47,17.3,48.8,22.1,50,27c0.3,1.4,0.6,2.9,0.9,4.2c0.5,3.1,0.7,5.8,0.6,7.8
					c-0.3,6.1-3.2,11.2-6.6,14.7c-2.6,2.7-5.5,4.6-7.5,5.4c-3.5,1.5-7.2,1.9-10.8,1.6c-0.4,0-0.9-0.1-1.3-0.1
					c-4.1-0.6-7.9-2.3-10.8-5c-4.7-4.5-3.5-15.8,4.2-21c6.6-4.5,11.7-2,17.9-8.8C39.9,22.2,42.7,13,44.2,14.5z"/>
				<path class="st100" d="M44.3,14.7c2.7,2.7,4.6,7.6,5.7,12.4c0.3,1.4,0.6,2.8,0.9,4.2c0.5,3,0.7,5.8,0.6,7.8
					c-0.3,6.1-3.2,11.1-6.5,14.6c-2.6,2.7-5.4,4.6-7.5,5.4c-3.5,1.5-7.2,1.9-10.7,1.6c-0.4,0-0.9-0.1-1.3-0.1
					c-4.1-0.6-7.8-2.2-10.7-5c-4.6-4.4-3.4-15.6,4.2-20.9c6.5-4.5,11.7-2,17.8-8.8C39.9,22.4,42.7,13.2,44.3,14.7z"/>
				<path class="st100" d="M44.3,14.9c2.7,2.7,4.5,7.5,5.7,12.4c0.3,1.4,0.6,2.8,0.8,4.2c0.5,3,0.7,5.8,0.6,7.7
					c-0.3,6-3.1,11.1-6.5,14.5c-2.6,2.7-5.4,4.5-7.4,5.4c-3.5,1.5-7.1,1.9-10.7,1.7c-0.4,0-0.9-0.1-1.3-0.1c-4-0.5-7.8-2.2-10.6-4.9
					c-4.6-4.4-3.3-15.5,4.3-20.7c6.5-4.5,11.6-2.1,17.7-8.8C40,22.5,42.8,13.4,44.3,14.9z"/>
				<path class="st101" d="M44.3,15c2.7,2.6,4.5,7.4,5.6,12.3c0.3,1.4,0.6,2.8,0.8,4.2c0.5,3,0.7,5.7,0.6,7.7
					c-0.3,6-3.1,11-6.4,14.4c-2.6,2.7-5.4,4.5-7.4,5.4c-3.4,1.5-7.1,1.9-10.6,1.7c-0.4,0-0.9-0.1-1.3-0.1c-4-0.5-7.7-2.2-10.6-4.9
					c-4.6-4.4-3.2-15.4,4.3-20.5c6.5-4.5,11.5-2.1,17.5-8.8C40,22.6,42.8,13.6,44.3,15z"/>
				<path class="st101" d="M44.3,15.2c2.7,2.6,4.4,7.4,5.6,12.2c0.3,1.4,0.6,2.8,0.8,4.1c0.5,3,0.6,5.7,0.5,7.6
					c-0.3,6-3.1,10.9-6.4,14.3c-2.5,2.6-5.3,4.5-7.3,5.3c-3.4,1.5-7,1.9-10.5,1.7c-0.4,0-0.9-0.1-1.3-0.1c-4-0.5-7.7-2.1-10.5-4.9
					c-4.5-4.4-3.2-15.2,4.3-20.4C26,30.7,31,33,36.9,26.3C40.1,22.8,42.8,13.8,44.3,15.2z"/>
				<path class="st102" d="M44.3,15.4c2.7,2.6,4.4,7.3,5.5,12.1c0.3,1.4,0.6,2.8,0.8,4.1c0.5,3,0.6,5.7,0.5,7.6
					c-0.3,5.9-3.1,10.8-6.3,14.2c-2.5,2.6-5.3,4.5-7.3,5.3c-3.4,1.5-7,1.9-10.4,1.7c-0.4,0-0.9-0.1-1.3-0.1c-4-0.5-7.7-2.1-10.4-4.8
					c-4.5-4.4-3.1-15.1,4.3-20.2c6.4-4.4,11.3-2.2,17.2-8.8C40.1,22.9,42.9,14,44.3,15.4z"/>
				<path class="st103" d="M44.4,15.6c2.6,2.5,4.4,7.2,5.5,12c0.3,1.4,0.6,2.7,0.8,4.1c0.5,2.9,0.6,5.6,0.5,7.5
					c-0.3,5.9-3.1,10.8-6.3,14.1c-2.5,2.6-5.2,4.4-7.2,5.3c-3.4,1.5-6.9,1.9-10.3,1.7c-0.4,0-0.9-0.1-1.3-0.1
					c-3.9-0.5-7.6-2.1-10.3-4.8c-4.5-4.4-3-15,4.3-20c6.3-4.4,11.3-2.3,17.1-8.8C40.2,23,42.9,14.2,44.4,15.6z"/>
				<path class="st104" d="M44.4,15.7c2.6,2.5,4.3,7.2,5.4,11.9c0.3,1.4,0.6,2.7,0.8,4c0.5,2.9,0.6,5.6,0.5,7.5
					c-0.3,5.8-3,10.7-6.2,14c-2.5,2.6-5.2,4.4-7.2,5.3c-3.3,1.4-6.9,1.9-10.3,1.7c-0.4,0-0.9-0.1-1.3-0.1c-3.9-0.5-7.6-2.1-10.3-4.7
					c-4.4-4.4-2.9-14.8,4.3-19.9c6.3-4.3,11.2-2.3,17-8.8C40.3,23.2,42.9,14.4,44.4,15.7z"/>
				<path class="st105" d="M44.4,15.9c2.6,2.4,4.3,7.1,5.3,11.8c0.3,1.4,0.6,2.7,0.8,4c0.4,2.9,0.6,5.5,0.5,7.5
					c-0.3,5.8-3,10.6-6.2,13.9c-2.5,2.6-5.2,4.4-7.1,5.2c-3.3,1.4-6.8,1.9-10.2,1.7c-0.4,0-0.8-0.1-1.3-0.1c-3.9-0.5-7.5-2-10.2-4.7
					c-4.4-4.3-2.9-14.7,4.3-19.7c6.2-4.3,11.1-2.3,16.8-8.8C40.3,23.3,43,14.6,44.4,15.9z"/>
				<path class="st106" d="M44.4,16.1c2.6,2.4,4.2,7,5.3,11.7c0.3,1.3,0.6,2.7,0.8,4c0.4,2.9,0.6,5.5,0.5,7.4
					c-0.3,5.8-3,10.6-6.2,13.9c-2.5,2.6-5.1,4.4-7.1,5.2c-3.3,1.4-6.8,1.9-10.1,1.7c-0.4,0-0.8-0.1-1.3-0.1c-3.9-0.4-7.5-2-10.1-4.6
					c-4.4-4.3-2.8-14.6,4.4-19.5c6.2-4.3,11-2.4,16.7-8.8C40.4,23.5,43,14.8,44.4,16.1z"/>
				<path class="st107" d="M44.4,16.3c2.6,2.3,4.2,6.9,5.2,11.6c0.3,1.3,0.6,2.7,0.7,3.9c0.4,2.8,0.6,5.5,0.5,7.4
					c-0.3,5.7-3,10.5-6.1,13.8c-2.4,2.5-5.1,4.3-7,5.2c-3.3,1.4-6.7,1.9-10,1.7c-0.4,0-0.8-0.1-1.3-0.1c-3.9-0.4-7.4-2-10.1-4.6
					c-4.3-4.3-2.7-14.4,4.4-19.4c6.1-4.3,10.9-2.4,16.6-8.8C40.4,23.6,43,15,44.4,16.3z"/>
				<path class="st108" d="M44.5,16.4c2.5,2.3,4.2,6.9,5.2,11.6c0.3,1.3,0.5,2.6,0.7,3.9c0.4,2.8,0.6,5.4,0.4,7.3
					c-0.3,5.7-3,10.4-6.1,13.7c-2.4,2.5-5,4.3-7,5.2c-3.2,1.4-6.7,1.9-10,1.8c-0.4,0-0.8,0-1.2-0.1c-3.8-0.4-7.4-1.9-10-4.5
					C12.3,50.9,13.9,40.9,21,36c6.1-4.2,10.9-2.5,16.4-8.8C40.5,23.7,43,15.2,44.5,16.4z"/>
				<path class="st109" d="M44.5,16.6c2.5,2.3,4.1,6.8,5.1,11.5c0.3,1.3,0.5,2.6,0.7,3.9c0.4,2.8,0.5,5.4,0.4,7.3
					c-0.3,5.6-2.9,10.4-6,13.6c-2.4,2.5-5,4.3-6.9,5.1c-3.2,1.4-6.6,1.9-9.9,1.8c-0.4,0-0.8,0-1.2-0.1c-3.8-0.4-7.3-1.9-9.9-4.5
					c-4.3-4.3-2.6-14.2,4.4-19c6-4.2,10.8-2.5,16.3-8.8C40.5,23.9,43.1,15.4,44.5,16.6z"/>
				<path class="st110" d="M44.5,16.8c2.5,2.2,4.1,6.7,5.1,11.4c0.3,1.3,0.5,2.6,0.7,3.9c0.4,2.8,0.5,5.3,0.4,7.2
					c-0.3,5.6-2.9,10.3-6,13.5c-2.4,2.5-5,4.3-6.9,5.1c-3.2,1.4-6.6,1.9-9.8,1.8c-0.4,0-0.8,0-1.2-0.1c-3.8-0.4-7.3-1.9-9.8-4.4
					c-4.2-4.3-2.5-14,4.4-18.9c6-4.2,10.7-2.5,16.2-8.8C40.6,24,43.1,15.6,44.5,16.8z"/>
				<path class="st111" d="M44.5,17c2.5,2.2,4,6.7,5,11.3c0.3,1.3,0.5,2.6,0.7,3.8c0.4,2.8,0.5,5.3,0.4,7.2
					c-0.3,5.6-2.9,10.2-5.9,13.4c-2.4,2.5-4.9,4.2-6.8,5.1c-3.2,1.4-6.5,1.9-9.7,1.8c-0.4,0-0.8,0-1.2-0.1c-3.8-0.4-7.2-1.8-9.8-4.4
					c-4.2-4.3-2.4-13.9,4.4-18.7c6-4.2,10.6-2.6,16-8.8C40.6,24.1,43.1,15.8,44.5,17z"/>
				<path class="st112" d="M44.5,17.2c2.5,2.1,4,6.6,5,11.2c0.3,1.3,0.5,2.6,0.7,3.8c0.4,2.7,0.5,5.3,0.4,7.1
					c-0.3,5.5-2.9,10.2-5.9,13.3c-2.3,2.5-4.9,4.2-6.8,5.1c-3.1,1.4-6.5,1.9-9.7,1.8c-0.4,0-0.8,0-1.2-0.1c-3.7-0.4-7.2-1.8-9.7-4.4
					c-4.2-4.2-2.4-13.8,4.5-18.5c5.9-4.1,10.5-2.6,15.9-8.8C40.7,24.3,43.2,16,44.5,17.2z"/>
				<path class="st113" d="M44.6,17.3c2.4,2.1,4,6.5,4.9,11.1c0.3,1.3,0.5,2.5,0.7,3.8c0.4,2.7,0.5,5.2,0.4,7.1
					c-0.4,5.5-2.9,10.1-5.8,13.2c-2.3,2.4-4.9,4.2-6.7,5.1c-3.1,1.4-6.4,1.9-9.6,1.8c-0.4,0-0.8,0-1.2-0.1C23.4,59,20,57.5,17.5,55
					c-4.1-4.2-2.3-13.6,4.5-18.4c5.9-4.1,10.4-2.7,15.7-8.8C40.7,24.4,43.2,16.2,44.6,17.3z"/>
				<path class="st113" d="M44.6,17.5c2.4,2.1,3.9,6.5,4.9,11c0.3,1.3,0.5,2.5,0.7,3.7c0.4,2.7,0.5,5.2,0.4,7
					c-0.4,5.4-2.8,10-5.8,13.1c-2.3,2.4-4.8,4.2-6.7,5c-3.1,1.4-6.4,1.9-9.5,1.8c-0.4,0-0.8,0-1.2-0.1c-3.7-0.3-7.1-1.8-9.6-4.3
					c-4.1-4.2-2.2-13.5,4.5-18.2C28,32.7,32.6,34,37.8,28C40.8,24.5,43.2,16.4,44.6,17.5z"/>
				<path class="st114" d="M44.6,17.7c2.4,2,3.9,6.4,4.8,10.9c0.3,1.2,0.5,2.5,0.7,3.7c0.4,2.7,0.5,5.2,0.3,7
					c-0.4,5.4-2.8,10-5.7,13c-2.3,2.4-4.8,4.1-6.6,5c-3.1,1.4-6.3,1.9-9.4,1.8c-0.4,0-0.8,0-1.2-0.1c-3.7-0.3-7.1-1.7-9.5-4.2
					c-4.1-4.2-2.1-13.4,4.5-18c5.8-4.1,10.3-2.8,15.5-8.8C40.8,24.7,43.2,16.6,44.6,17.7z"/>
				<path class="st114" d="M44.6,17.9c2.4,2,3.8,6.3,4.8,10.9c0.2,1.2,0.5,2.5,0.6,3.7c0.4,2.7,0.4,5.1,0.3,6.9
					c-0.4,5.4-2.8,9.9-5.7,12.9c-2.3,2.4-4.7,4.1-6.6,5c-3,1.4-6.3,1.9-9.3,1.8c-0.4,0-0.8,0-1.2-0.1c-3.7-0.3-7-1.7-9.4-4.2
					C14,50.7,16,41.6,22.6,37c5.7-4,10.2-2.8,15.3-8.8C40.9,24.8,43.3,16.8,44.6,17.9z"/>
				<path class="st115" d="M44.6,18c2.4,1.9,3.8,6.3,4.7,10.8c0.2,1.2,0.5,2.5,0.6,3.6c0.4,2.6,0.4,5.1,0.3,6.9
					c-0.4,5.3-2.8,9.8-5.7,12.9c-2.3,2.4-4.7,4.1-6.5,5c-3,1.4-6.2,1.9-9.3,1.9c-0.4,0-0.8,0-1.2-0.1c-3.6-0.3-7-1.7-9.3-4.1
					c-4-4.2-2-13.1,4.5-17.7c5.7-4,10.1-2.8,15.2-8.8C40.9,24.9,43.3,16.9,44.6,18z"/>
				<path class="st116" d="M44.7,18.2c2.3,1.9,3.8,6.2,4.7,10.7c0.2,1.2,0.5,2.4,0.6,3.6c0.3,2.6,0.4,5,0.3,6.9
					c-0.4,5.3-2.8,9.8-5.6,12.8c-2.2,2.4-4.7,4.1-6.5,4.9c-3,1.4-6.2,1.9-9.2,1.9c-0.4,0-0.8,0-1.2,0c-3.6-0.3-6.9-1.6-9.3-4.1
					c-4-4.2-1.9-13,4.6-17.5c5.6-4,10-2.9,15.1-8.8C41,25.1,43.3,17.1,44.7,18.2z"/>
				<path class="st117" d="M44.7,18.4c2.3,1.9,3.7,6.1,4.6,10.6c0.2,1.2,0.5,2.4,0.6,3.6c0.3,2.6,0.4,5,0.3,6.8
					c-0.4,5.2-2.7,9.7-5.6,12.7c-2.2,2.3-4.6,4-6.4,4.9c-3,1.4-6.1,1.9-9.1,1.9c-0.4,0-0.8,0-1.2,0c-3.6-0.3-6.9-1.6-9.2-4
					c-3.9-4.2-1.8-12.9,4.6-17.4c5.6-3.9,9.9-2.9,14.9-8.8C41,25.2,43.4,17.3,44.7,18.4z"/>
				<path class="st118" d="M44.7,18.6c2.3,1.8,3.7,6,4.5,10.5c0.2,1.2,0.4,2.4,0.6,3.6c0.3,2.6,0.4,5,0.3,6.8
					c-0.4,5.2-2.7,9.6-5.5,12.6c-2.2,2.3-4.6,4-6.4,4.9c-2.9,1.4-6.1,1.9-9,1.9c-0.4,0-0.8,0-1.2,0c-3.6-0.2-6.8-1.6-9.1-4
					c-3.9-4.1-1.8-12.7,4.6-17.2c5.5-3.9,9.9-3,14.8-8.8C41.1,25.3,43.4,17.5,44.7,18.6z"/>
				<path class="st119" d="M44.7,18.7c2.3,1.8,3.7,6,4.5,10.4c0.2,1.2,0.4,2.4,0.6,3.5c0.3,2.5,0.4,4.9,0.2,6.7
					c-0.4,5.2-2.7,9.6-5.5,12.5c-2.2,2.3-4.5,4-6.4,4.9c-2.9,1.4-6,1.9-9,1.9c-0.4,0-0.8,0-1.2,0c-3.5-0.2-6.8-1.5-9.1-4
					c-3.9-4.1-1.7-12.6,4.6-17c5.5-3.9,9.8-3,14.7-8.8C41.1,25.5,43.4,17.7,44.7,18.7z"/>
				<path class="st120" d="M44.7,18.9c2.3,1.7,3.6,5.9,4.4,10.3c0.2,1.2,0.4,2.4,0.6,3.5c0.3,2.5,0.4,4.9,0.2,6.7
					c-0.4,5.1-2.7,9.5-5.4,12.4c-2.2,2.3-4.5,4-6.3,4.8c-2.9,1.4-6,1.9-8.9,1.9c-0.4,0-0.8,0-1.1,0c-3.5-0.2-6.7-1.5-9-3.9
					c-3.8-4.1-1.6-12.5,4.6-16.9c5.4-3.9,9.7-3.1,14.5-8.8C41.2,25.6,43.5,17.9,44.7,18.9z"/>
				<path class="st121" d="M44.8,19.1c2.3,1.7,3.6,5.8,4.4,10.2c0.2,1.2,0.4,2.3,0.6,3.5c0.3,2.5,0.4,4.8,0.2,6.6
					c-0.4,5.1-2.7,9.4-5.4,12.3c-2.1,2.3-4.5,3.9-6.3,4.8c-2.9,1.4-5.9,1.9-8.8,1.9c-0.4,0-0.8,0-1.1,0c-3.5-0.2-6.7-1.5-8.9-3.9
					c-3.8-4.1-1.5-12.3,4.6-16.7c5.4-3.8,9.6-3.1,14.4-8.8C41.2,25.7,43.5,18.1,44.8,19.1z"/>
				<path class="st122" d="M44.8,19.3c2.2,1.6,3.5,5.8,4.3,10.1c0.2,1.2,0.4,2.3,0.5,3.4c0.3,2.5,0.3,4.8,0.2,6.6
					c-0.4,5-2.6,9.4-5.3,12.2c-2.1,2.3-4.4,3.9-6.2,4.8c-2.8,1.4-5.9,1.9-8.7,1.9c-0.4,0-0.8,0-1.1,0c-3.5-0.2-6.7-1.4-8.8-3.8
					c-3.8-4.1-1.5-12.2,4.7-16.5c5.4-3.8,9.5-3.1,14.2-8.8C41.3,25.9,43.5,18.3,44.8,19.3z"/>
				<path class="st123" d="M44.8,19.4c2.2,1.6,3.5,5.7,4.3,10.1c0.2,1.1,0.4,2.3,0.5,3.4c0.3,2.5,0.3,4.8,0.2,6.5
					c-0.4,5-2.6,9.3-5.3,12.1c-2.1,2.2-4.4,3.9-6.2,4.8c-2.8,1.4-5.8,1.9-8.7,1.9c-0.4,0-0.8,0-1.1,0c-3.5-0.2-6.6-1.4-8.8-3.8
					c-3.7-4.1-1.4-12.1,4.7-16.4c5.3-3.8,9.5-3.2,14.1-8.8C41.3,26,43.5,18.5,44.8,19.4z"/>
				<path class="st123" d="M44.8,19.6c2.2,1.6,3.5,5.6,4.2,10c0.2,1.1,0.4,2.3,0.5,3.4c0.3,2.4,0.3,4.7,0.2,6.5
					c-0.4,5-2.6,9.2-5.2,12c-2.1,2.2-4.4,3.9-6.1,4.7c-2.8,1.4-5.8,1.9-8.6,2c-0.4,0-0.7,0-1.1,0c-3.4-0.2-6.6-1.4-8.7-3.7
					c-3.7-4.1-1.3-11.9,4.7-16.2c5.3-3.8,9.4-3.2,14-8.8C41.4,26.1,43.6,18.7,44.8,19.6z"/>
				<path class="st124" d="M44.8,19.8c2.2,1.5,3.4,5.6,4.2,9.9c0.2,1.1,0.4,2.2,0.5,3.3c0.3,2.4,0.3,4.7,0.2,6.4
					c-0.4,4.9-2.6,9.2-5.2,11.9c-2.1,2.2-4.3,3.8-6.1,4.7c-2.8,1.4-5.7,1.9-8.5,2c-0.4,0-0.7,0-1.1,0c-3.4-0.1-6.5-1.4-8.6-3.7
					c-3.7-4-1.3-11.8,4.7-16c5.2-3.7,9.3-3.3,13.8-8.8C41.4,26.3,43.6,18.9,44.8,19.8z"/>
				<path class="st124" d="M44.9,20c2.2,1.5,3.4,5.5,4.1,9.8c0.2,1.1,0.4,2.2,0.5,3.3c0.3,2.4,0.3,4.7,0.1,6.4
					c-0.4,4.9-2.6,9.1-5.2,11.8c-2.1,2.2-4.3,3.8-6,4.7c-2.8,1.4-5.7,1.9-8.4,2c-0.4,0-0.7,0-1.1,0c-3.4-0.1-6.5-1.3-8.6-3.6
					c-3.6-4-1.2-11.7,4.7-15.9c5.2-3.7,9.2-3.3,13.7-8.8C41.5,26.4,43.6,19.1,44.9,20z"/>
				<path class="st125" d="M44.9,20.2c2.1,1.4,3.3,5.4,4.1,9.7c0.2,1.1,0.4,2.2,0.5,3.3c0.3,2.4,0.3,4.6,0.1,6.4
					c-0.4,4.8-2.5,9-5.1,11.8c-2,2.2-4.2,3.8-6,4.7c-2.7,1.4-5.6,1.9-8.3,2c-0.4,0-0.7,0-1.1,0c-3.4-0.1-6.4-1.3-8.5-3.6
					c-3.6-4-1.1-11.5,4.7-15.7c5.1-3.7,9.1-3.4,13.6-8.8C41.5,26.5,43.7,19.3,44.9,20.2z"/>
				<path class="st126" d="M44.9,20.3c2.1,1.4,3.3,5.4,4,9.6c0.2,1.1,0.4,2.2,0.5,3.3c0.2,2.4,0.3,4.6,0.1,6.3
					c-0.4,4.8-2.5,9-5.1,11.7c-2,2.2-4.2,3.8-5.9,4.6c-2.7,1.4-5.6,2-8.3,2c-0.4,0-0.7,0-1.1,0c-3.3-0.1-6.4-1.3-8.4-3.5
					c-3.6-4-1-11.4,4.7-15.5c5.1-3.6,9-3.4,13.4-8.8C41.6,26.7,43.7,19.5,44.9,20.3z"/>
				<path class="st127" d="M44.9,20.5c2.1,1.4,3.3,5.3,4,9.5c0.2,1.1,0.3,2.2,0.5,3.2c0.2,2.3,0.3,4.5,0.1,6.3
					c-0.4,4.8-2.5,8.9-5,11.6c-2,2.1-4.2,3.7-5.9,4.6c-2.7,1.4-5.5,2-8.2,2c-0.4,0-0.7,0-1.1,0c-3.3-0.1-6.3-1.2-8.3-3.5
					c-3.5-4-1-11.3,4.8-15.4c5-3.6,9-3.4,13.3-8.8C41.6,26.8,43.7,19.7,44.9,20.5z"/>
				<path class="st127" d="M44.9,20.7c2.1,1.3,3.2,5.2,3.9,9.4c0.2,1.1,0.3,2.1,0.4,3.2c0.2,2.3,0.2,4.5,0.1,6.2
					c-0.4,4.7-2.5,8.8-5,11.5c-2,2.1-4.1,3.7-5.8,4.6c-2.7,1.4-5.5,2-8.1,2c-0.4,0-0.7,0-1.1,0c-3.3-0.1-6.3-1.2-8.3-3.5
					c-3.5-4-0.9-11.1,4.8-15.2c5-3.6,8.9-3.5,13.2-8.8C41.7,27,43.7,19.9,44.9,20.7z"/>
				<path class="st128" d="M45,20.9c2,1.3,3.2,5.1,3.9,9.3c0.2,1.1,0.3,2.1,0.4,3.2c0.2,2.3,0.2,4.5,0.1,6.2
					c-0.5,4.7-2.5,8.7-4.9,11.4c-2,2.1-4.1,3.7-5.8,4.6c-2.6,1.4-5.4,2-8,2c-0.4,0-0.7,0-1.1,0c-3.3-0.1-6.2-1.2-8.2-3.4
					c-3.5-4-0.8-11,4.8-15c4.9-3.6,8.8-3.5,13-8.8C41.7,27.1,43.8,20.1,45,20.9z"/>
				<path class="st129" d="M45,21c2,1.2,3.2,5.1,3.8,9.3c0.2,1,0.3,2.1,0.4,3.1c0.2,2.3,0.2,4.4,0,6.1c-0.5,4.7-2.4,8.7-4.9,11.3
					c-1.9,2.1-4,3.7-5.7,4.5c-2.6,1.4-5.4,2-8,2c-0.4,0-0.7,0-1.1,0c-3.3,0-6.2-1.1-8.1-3.4c-3.4-4-0.7-10.9,4.8-14.9
					c4.9-3.5,8.7-3.6,12.9-8.8C41.8,27.2,43.8,20.3,45,21z"/>
				<path class="st129" d="M45,21.2c2,1.2,3.1,5,3.8,9.2c0.2,1,0.3,2.1,0.4,3.1c0.2,2.2,0.2,4.4,0,6.1c-0.5,4.6-2.4,8.6-4.8,11.2
					c-1.9,2.1-4,3.6-5.7,4.5c-2.6,1.4-5.3,2-7.9,2.1c-0.4,0-0.7,0-1.1,0c-3.2,0-6.2-1.1-8.1-3.3c-3.4-3.9-0.7-10.7,4.8-14.7
					c4.9-3.5,8.6-3.6,12.7-8.8C41.8,27.4,43.8,20.5,45,21.2z"/>
				<path class="st130" d="M45,21.4c2,1.1,3.1,4.9,3.7,9.1c0.2,1,0.3,2.1,0.4,3.1c0.2,2.2,0.2,4.3,0,6c-0.5,4.6-2.4,8.5-4.8,11.1
					c-1.9,2.1-4,3.6-5.6,4.5c-2.6,1.4-5.3,2-7.8,2.1c-0.4,0-0.7,0-1,0c-3.2,0-6.1-1.1-8-3.3c-3.4-3.9-0.6-10.6,4.8-14.5
					c4.8-3.5,8.5-3.7,12.6-8.8C41.9,27.5,43.9,20.7,45,21.4z"/>
				<path class="st130" d="M45,21.6c2,1.1,3,4.9,3.6,9c0.1,1,0.3,2,0.4,3.1c0.2,2.2,0.2,4.3,0,6c-0.5,4.5-2.4,8.5-4.8,11
					c-1.9,2-3.9,3.6-5.6,4.5c-2.5,1.4-5.2,2-7.7,2.1c-0.4,0-0.7,0-1,0c-3.2,0-6.1-1.1-7.9-3.2c-3.3-3.9-0.5-10.5,4.9-14.4
					c4.8-3.5,8.5-3.7,12.5-8.8C41.9,27.6,43.9,20.9,45,21.6z"/>
				<path class="st131" d="M45.1,21.7c1.9,1.1,3,4.8,3.6,8.9c0.1,1,0.3,2,0.4,3c0.2,2.2,0.2,4.3,0,5.9c-0.5,4.5-2.4,8.4-4.7,10.9
					c-1.9,2-3.9,3.6-5.5,4.4c-2.5,1.4-5.2,2-7.6,2.1c-0.3,0-0.7,0-1,0c-3.2,0-6-1-7.8-3.2c-3.3-3.9-0.4-10.3,4.9-14.2
					c4.7-3.4,8.4-3.7,12.3-8.8C42,27.8,43.9,21.1,45.1,21.7z"/>
				<path class="st132" d="M45.1,21.9c1.9,1,3,4.7,3.5,8.8c0.1,1,0.3,2,0.4,3c0.2,2.2,0.1,4.2,0,5.9c-0.5,4.5-2.3,8.3-4.7,10.8
					c-1.9,2-3.9,3.5-5.5,4.4c-2.5,1.3-5.1,2-7.6,2.1c-0.3,0-0.7,0-1,0c-3.1,0-6-1-7.8-3.1c-3.3-3.9-0.4-10.2,4.9-14
					c4.7-3.4,8.3-3.8,12.2-8.8C42,27.9,43.9,21.3,45.1,21.9z"/>
				<path class="st133" d="M45.1,22.1c1.9,1,2.9,4.7,3.5,8.7c0.1,1,0.3,2,0.3,3c0.2,2.1,0.1,4.2,0,5.9c-0.5,4.4-2.3,8.3-4.6,10.8
					c-1.8,2-3.8,3.5-5.4,4.4c-2.5,1.3-5.1,2-7.5,2.1c-0.3,0-0.7,0-1,0c-3.1,0-5.9-1-7.7-3.1C19.4,50,22.3,43.8,27.5,40
					c4.6-3.4,8.2-3.8,12.1-8.8C42.1,28,44,21.5,45.1,22.1z"/>
				<path class="st133" d="M45.1,22.3c1.9,0.9,2.9,4.6,3.4,8.6c0.1,1,0.3,2,0.3,2.9C49,36,49,38,48.8,39.7
					c-0.5,4.4-2.3,8.2-4.6,10.7c-1.8,2-3.8,3.5-5.4,4.4c-2.4,1.3-5,2-7.4,2.1c-0.3,0-0.7,0-1,0.1c-3.1,0.1-5.9-0.9-7.6-3
					c-3.2-3.9-0.2-10,4.9-13.7c4.6-3.3,8.1-3.9,11.9-8.8C42.1,28.2,44,21.7,45.1,22.3z"/>
				<path class="st134" d="M45.1,22.5C47,23.4,48,27,48.5,31c0.1,1,0.3,1.9,0.3,2.9C49,36,49,38,48.8,39.7
					c-0.5,4.3-2.3,8.1-4.5,10.6c-1.8,2-3.7,3.5-5.3,4.3c-2.4,1.3-5,2-7.3,2.1c-0.3,0-0.7,0.1-1,0.1c-3.1,0.1-5.8-0.9-7.6-3
					c-3.2-3.9-0.2-9.8,4.9-13.5c4.5-3.3,8-3.9,11.8-8.8C42.2,28.3,44,21.9,45.1,22.5z"/>
				<path class="st135" d="M45.2,22.6c1.8,0.9,2.8,4.4,3.3,8.5c0.1,1,0.2,1.9,0.3,2.9c0.1,2.1,0.1,4.1-0.1,5.7
					c-0.5,4.3-2.3,8.1-4.5,10.5c-1.8,1.9-3.7,3.4-5.3,4.3c-2.4,1.3-4.9,2-7.3,2.1c-0.3,0-0.7,0.1-1,0.1c-3.1,0.1-5.8-0.9-7.5-3
					c-3.1-3.8-0.1-9.7,5-13.4c4.5-3.3,8-4,11.7-8.8C42.2,28.4,44.1,22.1,45.2,22.6z"/>
				<path class="st136" d="M45.2,22.8c1.8,0.8,2.8,4.4,3.3,8.4c0.1,0.9,0.2,1.9,0.3,2.8c0.1,2.1,0.1,4-0.1,5.7
					c-0.5,4.3-2.2,8-4.4,10.4c-1.8,1.9-3.7,3.4-5.3,4.3c-2.4,1.3-4.9,2-7.2,2.2c-0.3,0-0.7,0.1-1,0.1c-3,0.1-5.7-0.8-7.4-2.9
					c-3.1-3.8,0-9.6,5-13.2c4.4-3.3,7.9-4,11.5-8.8C42.3,28.6,44.1,22.3,45.2,22.8z"/>
				<path class="st137" d="M45.2,23c1.8,0.8,2.7,4.3,3.2,8.3c0.1,0.9,0.2,1.9,0.3,2.8c0.1,2,0.1,4-0.1,5.6
					c-0.5,4.2-2.2,7.9-4.4,10.3c-1.7,1.9-3.6,3.4-5.2,4.3c-2.3,1.3-4.8,2-7.1,2.2c-0.3,0-0.7,0.1-1,0.1c-3,0.1-5.7-0.8-7.3-2.9
					c-3.1-3.8,0.1-9.4,5-13c4.4-3.2,7.8-4,11.4-8.8C42.3,28.7,44.1,22.5,45.2,23z"/>
				<path class="st138" d="M45.2,23.2c1.8,0.7,2.7,4.2,3.2,8.2c0.1,0.9,0.2,1.9,0.3,2.8c0.1,2,0.1,4-0.1,5.6
					c-0.5,4.2-2.2,7.9-4.3,10.2c-1.7,1.9-3.6,3.3-5.2,4.2c-2.3,1.3-4.8,2-7,2.2c-0.3,0-0.7,0.1-1,0.1c-3,0.1-5.7-0.8-7.3-2.8
					c-3-3.8,0.1-9.3,5-12.9c4.4-3.2,7.7-4.1,11.3-8.8C42.4,28.8,44.1,22.7,45.2,23.2z"/>
				<path class="st139" d="M45.2,23.3c1.8,0.7,2.7,4.2,3.1,8.1c0.1,0.9,0.2,1.8,0.3,2.8c0.1,2,0,3.9-0.2,5.5
					c-0.5,4.1-2.2,7.8-4.3,10.1c-1.7,1.9-3.5,3.3-5.1,4.2c-2.3,1.3-4.7,2-7,2.2c-0.3,0-0.7,0.1-1,0.1c-3,0.1-5.6-0.8-7.2-2.8
					c-3-3.8,0.2-9.2,5-12.7c4.3-3.2,7.6-4.1,11.1-8.8C42.4,29,44.2,22.9,45.2,23.3z"/>
				<path class="st139" d="M45.3,23.5c1.7,0.7,2.6,4.1,3.1,8c0.1,0.9,0.2,1.8,0.2,2.7c0.1,2,0,3.9-0.2,5.5c-0.5,4.1-2.2,7.7-4.3,10
					c-1.7,1.9-3.5,3.3-5.1,4.2c-2.3,1.3-4.7,2-6.9,2.2c-0.3,0-0.6,0.1-1,0.1c-2.9,0.2-5.6-0.7-7.1-2.7c-3-3.8,0.3-9,5-12.5
					c4.3-3.2,7.5-4.2,11-8.8C42.5,29.1,44.2,23.1,45.3,23.5z"/>
				<path class="st140" d="M45.3,23.7c1.7,0.6,2.6,4,3,7.9c0.1,0.9,0.2,1.8,0.2,2.7c0.1,1.9,0,3.8-0.2,5.4c-0.5,4.1-2.1,7.7-4.2,9.9
					c-1.7,1.8-3.5,3.3-5,4.2c-2.2,1.3-4.6,2-6.8,2.2c-0.3,0-0.6,0.1-1,0.1c-2.9,0.2-5.5-0.7-7.1-2.7c-2.9-3.8,0.4-8.9,5-12.4
					c4.2-3.1,7.5-4.2,10.8-8.8C42.5,29.2,44.2,23.3,45.3,23.7z"/>
				<path class="st140" d="M45.3,23.9c1.7,0.6,2.6,4,3,7.8c0.1,0.9,0.2,1.8,0.2,2.7c0.1,1.9,0,3.8-0.2,5.4c-0.5,4-2.1,7.6-4.2,9.8
					c-1.7,1.8-3.4,3.2-5,4.1c-2.2,1.3-4.6,2-6.7,2.2c-0.3,0-0.6,0.1-0.9,0.1c-2.9,0.2-5.5-0.7-7-2.6c-2.9-3.8,0.4-8.8,5.1-12.2
					c4.2-3.1,7.4-4.3,10.7-8.7C42.6,29.4,44.3,23.5,45.3,23.9z"/>
				<path class="st141" d="M45.3,24c1.7,0.5,2.5,3.9,2.9,7.8c0.1,0.9,0.2,1.8,0.2,2.6c0.1,1.9,0,3.8-0.2,5.4c-0.5,4-2.1,7.5-4.1,9.7
					c-1.6,1.8-3.4,3.2-4.9,4.1c-2.2,1.3-4.5,2-6.6,2.2c-0.3,0-0.6,0.1-0.9,0.1c-2.9,0.2-5.4-0.6-6.9-2.6c-2.9-3.7,0.5-8.6,5.1-12
					c4.1-3.1,7.3-4.3,10.6-8.7C42.6,29.5,44.3,23.7,45.3,24z"/>
				<path class="st141" d="M45.3,24.2c1.6,0.5,2.5,3.8,2.8,7.7c0.1,0.9,0.2,1.7,0.2,2.6c0.1,1.9,0,3.7-0.2,5.3
					c-0.5,3.9-2.1,7.5-4.1,9.7c-1.6,1.8-3.4,3.2-4.9,4.1c-2.2,1.3-4.5,2-6.6,2.3c-0.3,0-0.6,0.1-0.9,0.1c-2.9,0.2-5.4-0.6-6.8-2.5
					c-2.8-3.7,0.6-8.5,5.1-11.9c4.1-3.1,7.2-4.4,10.4-8.7C42.7,29.6,44.3,23.9,45.3,24.2z"/>
				<path class="st142" d="M45.4,24.4c1.6,0.5,2.4,3.7,2.8,7.6c0.1,0.8,0.2,1.7,0.2,2.6c0.1,1.9,0,3.7-0.2,5.3
					c-0.5,3.9-2.1,7.4-4,9.6c-1.6,1.8-3.3,3.2-4.8,4.1c-2.1,1.3-4.4,2-6.5,2.3c-0.3,0-0.6,0.1-0.9,0.1c-2.8,0.2-5.3-0.6-6.8-2.5
					c-2.8-3.7,0.7-8.4,5.1-11.7c4-3,7.1-4.4,10.3-8.7C42.7,29.8,44.3,24.1,45.4,24.4z"/>
				<path class="st142" d="M45.4,24.6c1.6,0.4,2.4,3.7,2.7,7.5c0.1,0.8,0.1,1.7,0.2,2.5c0.1,1.8,0,3.7-0.3,5.2c-0.5,3.9-2,7.3-4,9.5
					c-1.6,1.8-3.3,3.1-4.8,4.1c-2.1,1.3-4.4,2-6.4,2.3c-0.3,0-0.6,0.1-0.9,0.1c-2.8,0.2-5.3-0.6-6.7-2.5c-2.8-3.7,0.7-8.2,5.1-11.5
					c4-3,7-4.4,10.2-8.7C42.8,29.9,44.4,24.3,45.4,24.6z"/>
				<path class="st143" d="M45.4,24.8c1.6,0.4,2.4,3.6,2.7,7.4c0.1,0.8,0.1,1.7,0.2,2.5c0.1,1.8-0.1,3.6-0.3,5.2
					c-0.5,3.8-2,7.3-3.9,9.4c-1.6,1.7-3.2,3.1-4.7,4c-2.1,1.3-4.3,2-6.3,2.3c-0.3,0-0.6,0.1-0.9,0.1c-2.8,0.2-5.2-0.5-6.6-2.4
					c-2.7-3.7,0.8-8.1,5.1-11.4c3.9-3,6.9-4.5,10-8.7C42.8,30,44.4,24.5,45.4,24.8z"/>
				<path class="st144" d="M45.4,24.9c1.6,0.3,2.3,3.5,2.6,7.3c0.1,0.8,0.1,1.7,0.1,2.5c0,1.8-0.1,3.6-0.3,5.1
					c-0.5,3.8-2,7.2-3.9,9.3c-1.5,1.7-3.2,3.1-4.7,4c-2.1,1.3-4.2,2-6.3,2.3c-0.3,0-0.6,0.1-0.9,0.1c-2.8,0.3-5.2-0.5-6.6-2.4
					c-2.7-3.7,0.9-8,5.2-11.2c3.9-2.9,6.9-4.5,9.9-8.7C42.9,30.2,44.4,24.7,45.4,24.9z"/>
				<path class="st145" d="M45.4,25.1c1.5,0.3,2.3,3.5,2.6,7.2c0.1,0.8,0.1,1.6,0.1,2.5c0,1.8-0.1,3.5-0.3,5.1
					c-0.5,3.7-2,7.1-3.8,9.2c-1.5,1.7-3.2,3.1-4.6,4c-2.1,1.3-4.2,2-6.2,2.3c-0.3,0-0.6,0.1-0.9,0.1c-2.8,0.3-5.1-0.5-6.5-2.3
					c-2.7-3.7,1-7.8,5.2-11c3.8-2.9,6.8-4.6,9.8-8.7C42.9,30.3,44.4,24.9,45.4,25.1z"/>
				<path class="st146" d="M45.5,25.3c1.5,0.3,2.3,3.4,2.5,7.1c0.1,0.8,0.1,1.6,0.1,2.4c0,1.8-0.1,3.5-0.3,5c-0.6,3.7-2,7.1-3.8,9.1
					c-1.5,1.7-3.1,3-4.6,4c-2,1.3-4.1,2-6.1,2.3c-0.3,0-0.6,0.1-0.9,0.1c-2.7,0.3-5.1-0.4-6.4-2.3c-2.6-3.7,1-7.7,5.2-10.9
					c3.8-2.9,6.7-4.6,9.6-8.7C43,30.4,44.5,25.1,45.5,25.3z"/>
				<path class="st146" d="M45.5,25.5c1.5,0.2,2.2,3.3,2.5,7c0.1,0.8,0.1,1.6,0.1,2.4c0,1.7-0.1,3.5-0.3,5c-0.6,3.7-1.9,7-3.8,9
					c-1.5,1.7-3.1,3-4.5,3.9c-2,1.3-4.1,2-6,2.3c-0.3,0.1-0.6,0.1-0.9,0.1c-2.7,0.3-5-0.4-6.3-2.2c-2.6-3.6,1.1-7.6,5.2-10.7
					c3.8-2.9,6.6-4.7,9.5-8.7C43,30.6,44.5,25.3,45.5,25.5z"/>
				<path class="st147" d="M45.5,25.6c1.5,0.2,2.2,3.3,2.4,7c0,0.8,0.1,1.6,0.1,2.4c0,1.7-0.1,3.4-0.3,4.9c-0.6,3.6-1.9,6.9-3.7,8.9
					c-1.5,1.7-3.1,3-4.5,3.9c-2,1.3-4,2-6,2.3c-0.3,0.1-0.6,0.1-0.9,0.1c-2.7,0.3-5-0.4-6.3-2.2c-2.5-3.6,1.2-7.4,5.2-10.5
					c3.7-2.8,6.5-4.7,9.3-8.7C43.1,30.7,44.5,25.5,45.5,25.6z"/>
				<path class="st147" d="M45.5,25.8c1.4,0.2,2.2,3.2,2.4,6.9c0,0.8,0.1,1.5,0.1,2.3c0,1.7-0.1,3.4-0.4,4.9
					c-0.6,3.6-1.9,6.9-3.7,8.8c-1.5,1.6-3,3-4.4,3.9c-2,1.3-4,2-5.9,2.4c-0.3,0.1-0.6,0.1-0.9,0.1c-2.7,0.3-5-0.3-6.2-2.1
					c-2.5-3.6,1.2-7.3,5.2-10.4c3.7-2.8,6.4-4.8,9.2-8.7C43.1,30.8,44.6,25.7,45.5,25.8z"/>
				<path class="st148" d="M45.5,26c1.4,0.1,2.1,3.1,2.3,6.8c0,0.8,0.1,1.5,0.1,2.3c0,1.7-0.1,3.3-0.4,4.9c-0.6,3.5-1.9,6.8-3.6,8.7
					c-1.4,1.6-3,2.9-4.4,3.9c-1.9,1.3-3.9,2-5.8,2.4c-0.3,0.1-0.6,0.1-0.9,0.1c-2.6,0.3-4.9-0.3-6.1-2.1c-2.5-3.6,1.3-7.2,5.3-10.2
					c3.6-2.8,6.3-4.8,9.1-8.7C43.2,31,44.6,25.9,45.5,26z"/>
				<path class="st148" d="M45.6,26.2c1.4,0.1,2.1,3.1,2.3,6.7c0,0.7,0.1,1.5,0.1,2.3c0,1.6-0.2,3.3-0.4,4.8
					c-0.6,3.5-1.9,6.7-3.6,8.7c-1.4,1.6-2.9,2.9-4.3,3.8c-1.9,1.3-3.9,2-5.7,2.4c-0.3,0.1-0.6,0.1-0.9,0.2c-2.6,0.4-4.9-0.3-6.1-2.1
					c-2.4-3.6,1.4-7.1,5.3-10c3.6-2.8,6.3-4.8,8.9-8.7C43.2,31.1,44.6,26.1,45.6,26.2z"/>
				<path class="st149" d="M45.6,26.3c1.4,0.2,2.1,3,2.2,6.6c0,0.7,0.1,1.5,0,2.2c0,1.6-0.2,3.3-0.4,4.8c-0.6,3.5-1.8,6.7-3.5,8.6
					c-1.4,1.6-2.9,2.9-4.3,3.8c-1.9,1.3-3.8,2-5.6,2.4c-0.3,0.1-0.6,0.1-0.9,0.2c-2.6,0.4-4.8-0.3-6-2c-2.4-3.6,1.5-6.9,5.3-9.9
					c3.5-2.7,6.2-4.9,8.8-8.7C43.3,31.2,44.6,26.2,45.6,26.3z"/>
				<path class="st150" d="M45.6,26.5c1.3,0.1,2,2.9,2.2,6.5c0,0.7,0,1.5,0,2.2c0,1.6-0.2,3.2-0.4,4.7c-0.6,3.4-1.8,6.6-3.5,8.5
					c-1.4,1.6-2.9,2.9-4.2,3.8c-1.9,1.2-3.8,2-5.6,2.4c-0.3,0.1-0.6,0.1-0.8,0.2c-2.6,0.4-4.8-0.2-5.9-2c-2.4-3.6,1.5-6.8,5.3-9.7
					c3.5-2.7,6.1-4.9,8.7-8.7C43.3,31.4,44.7,26.4,45.6,26.5z"/>
				<path class="st151" d="M45.6,26.7c1.3,0.1,2,2.8,2.1,6.4c0,0.7,0,1.4,0,2.2c0,1.6-0.2,3.2-0.4,4.7c-0.6,3.4-1.8,6.5-3.4,8.4
					c-1.4,1.6-2.8,2.8-4.2,3.8c-1.8,1.2-3.7,2-5.5,2.4c-0.3,0.1-0.6,0.1-0.8,0.2c-2.6,0.4-4.7-0.2-5.8-1.9c-2.3-3.6,1.6-6.7,5.3-9.5
					c3.4-2.7,6-5,8.5-8.7C43.4,31.5,44.7,26.6,45.6,26.7z"/>
				<path class="st152" d="M45.6,26.9c1.3-0.1,2,2.8,2.1,6.3c0,0.7,0,1.4,0,2.2c0,1.6-0.2,3.2-0.5,4.6c-0.6,3.4-1.8,6.4-3.4,8.3
					c-1.3,1.5-2.8,2.8-4.2,3.7c-1.8,1.2-3.7,2-5.4,2.4c-0.3,0.1-0.6,0.1-0.8,0.2c-2.5,0.4-4.7-0.2-5.8-1.9c-2.3-3.6,1.7-6.5,5.3-9.4
					c3.4-2.6,5.9-5,8.4-8.7C43.4,31.6,44.7,26.9,45.6,26.9z"/>
				<path class="st153" d="M45.7,27c1.3-0.1,1.9,2.7,2,6.2c0,0.7,0,1.4,0,2.1c0,1.5-0.2,3.1-0.5,4.6c-0.6,3.3-1.8,6.4-3.4,8.2
					c-1.3,1.5-2.7,2.8-4.1,3.7c-1.8,1.2-3.6,2-5.3,2.4c-0.3,0.1-0.6,0.1-0.8,0.2c-2.5,0.4-4.6-0.1-5.7-1.8c-2.3-3.5,1.8-6.4,5.4-9.2
					c3.3-2.6,5.8-5.1,8.3-8.7C43.5,31.8,44.8,27.1,45.7,27z"/>
				<path class="st154" d="M45.7,27.2c1.3-0.1,1.9,2.6,1.9,6.2c0,0.7,0,1.4,0,2.1c-0.1,1.5-0.2,3.1-0.5,4.5
					c-0.6,3.3-1.7,6.3-3.3,8.1c-1.3,1.5-2.7,2.7-4.1,3.7c-1.8,1.2-3.6,2-5.3,2.4c-0.3,0.1-0.5,0.1-0.8,0.2c-2.5,0.4-4.6-0.1-5.6-1.8
					c-2.2-3.5,1.8-6.3,5.4-9c3.3-2.6,5.7-5.1,8.1-8.7C43.5,31.9,44.8,27.3,45.7,27.2z"/>
				<path class="st154" d="M45.7,27.4c1.2-0.2,1.9,2.6,1.9,6.1c0,0.7,0,1.4,0,2.1c-0.1,1.5-0.2,3-0.5,4.5c-0.6,3.2-1.7,6.2-3.3,8
					c-1.3,1.5-2.7,2.7-4,3.7c-1.7,1.2-3.5,2-5.2,2.5c-0.3,0.1-0.5,0.1-0.8,0.2c-2.5,0.5-4.5-0.1-5.6-1.7c-2.2-3.5,1.9-6.1,5.4-8.9
					c3.3-2.6,5.7-5.2,8-8.7C43.6,32,44.8,27.5,45.7,27.4z"/>
				<path class="st155" d="M45.7,27.6c1.2-0.2,1.8,2.5,1.8,6c0,0.7,0,1.3,0,2c-0.1,1.5-0.2,3-0.5,4.4c-0.6,3.2-1.7,6.2-3.2,7.9
					c-1.3,1.5-2.6,2.7-4,3.6c-1.7,1.2-3.5,2-5.1,2.5c-0.3,0.1-0.5,0.1-0.8,0.2c-2.4,0.5-4.5-0.1-5.5-1.7c-2.1-3.5,2-6,5.4-8.7
					c3.2-2.5,5.6-5.2,7.8-8.7C43.6,32.2,44.8,27.7,45.7,27.6z"/>
				<path class="st156" d="M45.7,27.8c1.2-0.2,1.8,2.4,1.8,5.9c0,0.6,0,1.3-0.1,2c-0.1,1.5-0.3,3-0.5,4.4c-0.6,3.2-1.7,6.1-3.2,7.8
					c-1.3,1.5-2.6,2.7-3.9,3.6c-1.7,1.2-3.4,2-5,2.5c-0.3,0.1-0.5,0.1-0.8,0.2c-2.4,0.5-4.4,0-5.4-1.6c-2.1-3.5,2.1-5.9,5.4-8.5
					c3.2-2.5,5.5-5.3,7.7-8.7C43.7,32.3,44.9,27.9,45.7,27.8z"/>
				<path class="st157" d="M45.8,27.9c1.2-0.3,1.8,2.4,1.7,5.8c0,0.6,0,1.3-0.1,2c-0.1,1.4-0.3,2.9-0.5,4.4c-0.6,3.1-1.7,6-3.1,7.7
					c-1.2,1.4-2.6,2.6-3.9,3.6c-1.7,1.2-3.4,2-4.9,2.5c-0.3,0.1-0.5,0.1-0.8,0.2c-2.4,0.5-4.4,0-5.3-1.6c-2.1-3.5,2.1-5.7,5.4-8.4
					c3.1-2.5,5.4-5.3,7.6-8.7C43.7,32.4,44.9,28.1,45.8,27.9z"/>
				<path class="st158" d="M45.8,28.1c1.2-0.3,1.7,2.3,1.7,5.7c0,0.6,0,1.3-0.1,1.9c-0.1,1.4-0.3,2.9-0.6,4.3
					c-0.6,3.1-1.6,6-3.1,7.6c-1.2,1.4-2.5,2.6-3.8,3.6c-1.7,1.2-3.3,2-4.9,2.5c-0.3,0.1-0.5,0.1-0.8,0.2c-2.4,0.5-4.3,0-5.3-1.6
					c-2-3.5,2.2-5.6,5.4-8.2c3.1-2.5,5.3-5.3,7.4-8.7C43.8,32.6,44.9,28.3,45.8,28.1z"/>
				<path class="st159" d="M45.8,28.3c1.1-0.3,1.7,2.2,1.6,5.6c0,0.6,0,1.3-0.1,1.9c-0.1,1.4-0.3,2.8-0.6,4.3c-0.6,3-1.6,5.9-3,7.6
					c-1.2,1.4-2.5,2.6-3.8,3.5c-1.6,1.2-3.3,2-4.8,2.5c-0.3,0.1-0.5,0.1-0.8,0.2c-2.4,0.5-4.3,0.1-5.2-1.5c-2-3.5,2.3-5.5,5.5-8
					c3-2.4,5.2-5.4,7.3-8.7C43.8,32.7,45,28.5,45.8,28.3z"/>
				<path class="st160" d="M34.9,44.5c3-2.4,5.1-5.4,7.2-8.7c1.8-3,3-7,3.8-7.3c1.3-0.4,1.8,3.1,1.5,7.4c-0.4,4.3-1.5,9.3-3.6,11.7
					c-2.7,3.1-5.8,5.2-8.4,6c-2.7,0.8-4.9,0.5-5.9-1.3C27.4,48.9,31.7,47,34.9,44.5z"/>
			</g>
		</g>
		<linearGradient id="SVGID_3_" gradientUnits="userSpaceOnUse" x1="30.2234" y1="40.1506" x2="36.7789" y2="38.1064">
			<stop  offset="0" style="stop-color:#0E7099"/>
			<stop  offset="1" style="stop-color:#054F7E"/>
		</linearGradient>
		<path class="st161" d="M38.6,40.8L35,35.2c-0.1-0.2-0.4-0.2-0.5,0L27.2,43c-0.3,0.3,0.1,0.7,0.4,0.5l5-3.6c0.2-0.1,0.5,0,0.5,0.2
			l0.3,1.4c0,0.2,0.3,0.3,0.5,0.2l1.8-0.8c0.2-0.1,0.4,0,0.4,0.1l0.3,0.5c0.1,0.1,0.2,0.2,0.4,0.2l1.5-0.5
			C38.6,41.2,38.7,41,38.6,40.8z"/>
	</g>
</g>
</svg>
